/* XPM */
static const gchar * forwdblarrow_xpm[] = {
"20 11 3 1",
" 	c None",
".	c #000000",
"+	c #FFFFFF",
"              ..    ",
"              .+.   ",
"              .++.  ",
" ..............+++. ",
" .+++++++++++++++++.",
" ...................",
" .+++++++++++++++++.",
" ..............+++. ",
"              .++.  ",
"              .+.   ",
"              ..    "};
