/* XPM */
static const gchar *h_meter_strip_xpm[] = {
"186 5 187 2",
"  	c None",
". 	c #2BFE00",
"+ 	c #2DFE00",
"@ 	c #2FFE01",
"# 	c #32FE01",
"$ 	c #34FE02",
"% 	c #36FE02",
"& 	c #38FE03",
"* 	c #3BFE03",
"= 	c #3DFD04",
"- 	c #3FFD04",
"; 	c #41FD05",
"> 	c #44FD05",
", 	c #46FD06",
"' 	c #48FD06",
") 	c #4AFD07",
"! 	c #4DFD07",
"~ 	c #4FFD08",
"{ 	c #51FC08",
"] 	c #53FC09",
"^ 	c #56FC09",
"/ 	c #58FC09",
"( 	c #5AFC0A",
"_ 	c #5CFC0A",
": 	c #5FFC0B",
"< 	c #61FC0B",
"[ 	c #63FB0C",
"} 	c #65FB0C",
"| 	c #68FB0D",
"1 	c #6AFB0D",
"2 	c #6CFB0E",
"3 	c #6EFB0E",
"4 	c #71FB0F",
"5 	c #73FB0F",
"6 	c #75FB10",
"7 	c #77FA10",
"8 	c #7AFA11",
"9 	c #7CFA11",
"0 	c #7EFA12",
"a 	c #80FA12",
"b 	c #83FA12",
"c 	c #85FA13",
"d 	c #87FA13",
"e 	c #89FA14",
"f 	c #8CF914",
"g 	c #8EF915",
"h 	c #90F915",
"i 	c #92F916",
"j 	c #95F916",
"k 	c #97F917",
"l 	c #99F917",
"m 	c #9BF918",
"n 	c #9EF818",
"o 	c #A0F819",
"p 	c #A2F819",
"q 	c #A4F81A",
"r 	c #A7F81A",
"s 	c #A9F81A",
"t 	c #ABF81B",
"u 	c #ADF81B",
"v 	c #B0F81C",
"w 	c #B2F71C",
"x 	c #B4F71D",
"y 	c #B6F71D",
"z 	c #B9F71E",
"A 	c #BBF71E",
"B 	c #BDF71F",
"C 	c #BFF71F",
"D 	c #C2F720",
"E 	c #C4F720",
"F 	c #C6F621",
"G 	c #C8F621",
"H 	c #CBF622",
"I 	c #CDF622",
"J 	c #CFF623",
"K 	c #D1F623",
"L 	c #D4F624",
"M 	c #D6F624",
"N 	c #D8F524",
"O 	c #DAF525",
"P 	c #DDF525",
"Q 	c #DFF526",
"R 	c #E1F526",
"S 	c #E3F527",
"T 	c #E6F527",
"U 	c #E8F528",
"V 	c #EAF528",
"W 	c #ECF429",
"X 	c #EFF429",
"Y 	c #F1F42A",
"Z 	c #F3F42A",
"` 	c #F5F42B",
" .	c #F8F42B",
"..	c #FAF42C",
"+.	c #FCF42C",
"@.	c #FFF42D",
"#.	c #FFF22C",
"$.	c #FFF12B",
"%.	c #FFF02A",
"&.	c #FFEF2A",
"*.	c #FFEE29",
"=.	c #FFED28",
"-.	c #FFEC28",
";.	c #FFEB27",
">.	c #FFE926",
",.	c #FFE826",
"'.	c #FFE725",
").	c #FFE624",
"!.	c #FFE524",
"~.	c #FFE423",
"{.	c #FFE322",
"].	c #FFE222",
"^.	c #FFE021",
"/.	c #FFDF20",
"(.	c #FFDE20",
"_.	c #FFDD1F",
":.	c #FFDC1E",
"<.	c #FFDB1E",
"[.	c #FFDA1D",
"}.	c #FFD91C",
"|.	c #FFD71B",
"1.	c #FFD61B",
"2.	c #FFD51A",
"3.	c #FFD419",
"4.	c #FFD319",
"5.	c #FFD218",
"6.	c #FFD117",
"7.	c #FFD017",
"8.	c #FFCF16",
"9.	c #FFCD15",
"0.	c #FFCC15",
"a.	c #FFCB14",
"b.	c #FFCA13",
"c.	c #FFC913",
"d.	c #FFC812",
"e.	c #FFC711",
"f.	c #FFC611",
"g.	c #FFC410",
"h.	c #FFC30F",
"i.	c #FFC20F",
"j.	c #FFC10E",
"k.	c #FFC00D",
"l.	c #FFBF0C",
"m.	c #FFBE0C",
"n.	c #FFBD0B",
"o.	c #FFBB0A",
"p.	c #FFBA0A",
"q.	c #FFB909",
"r.	c #FFB808",
"s.	c #FFB708",
"t.	c #FFB607",
"u.	c #FFB506",
"v.	c #FFB406",
"w.	c #FFB205",
"x.	c #FFB104",
"y.	c #FFB004",
"z.	c #FFAF03",
"A.	c #FFAE02",
"B.	c #FFAD02",
"C.	c #FFAC01",
"D.	c #FFAB00",
"E.	c #FFA900",
"F.	c #F11F00",
"G.	c #F21E00",
"H.	c #F21C00",
"I.	c #F31B00",
"J.	c #F31A00",
"K.	c #F41800",
"L.	c #F41700",
"M.	c #F51600",
"N.	c #F61400",
"O.	c #F61300",
"P.	c #F71100",
"Q.	c #F71000",
"R.	c #F80F00",
"S.	c #F90D00",
"T.	c #F90C00",
"U.	c #FA0B00",
"V.	c #FA0900",
"W.	c #FB0800",
"X.	c #FC0600",
"Y.	c #FC0500",
"Z.	c #FD0400",
"`.	c #FD0200",
" +	c #FE0100",
".+	c #FE0000",
"++	c #FF0000",
". + @ # $ % & * = - ; > , ' ) ! ~ { ] ^ / ( _ : < [ } | 1 2 3 4 5 6 7 8 9 0 a b c d e f g h i j k l m n o p q r s t u v w x y z A B C D E F G H I J K L M N O P Q R S T U V W X Y Z `  ...+.@.@.#.$.%.&.*.=.-.;.>.,.'.).!.~.{.].^./.(._.:.<.[.}.|.1.2.3.4.5.6.7.8.9.0.a.b.c.d.e.f.g.h.i.j.k.l.m.n.o.p.q.r.s.t.u.v.w.x.y.z.A.B.C.D.E.F.G.H.I.J.K.L.M.N.O.P.Q.R.S.T.U.V.W.X.Y.Z.`. +.+",
". + @ # $ % & * = - ; > , ' ) ! ~ { ] ^ / ( _ : < [ } | 1 2 3 4 5 6 7 8 9 0 a b c d e f g h i j k l m n o p q r s t u v w x y z A B C D E F G H I J K L M N O P Q R S T U V W X Y Z `  ...+.@.@.#.$.%.&.*.=.-.;.>.,.'.).!.~.{.].^./.(._.:.<.[.}.|.1.2.3.4.5.6.7.8.9.0.a.b.c.d.e.f.g.h.i.j.k.l.m.n.o.p.q.r.s.t.u.v.w.x.y.z.A.B.C.D.E.F.G.H.I.J.K.L.M.N.O.P.Q.R.S.T.U.V.W.X.Y.Z.`. +.+",
". + @ # $ % & * = - ; > , ' ) ! ~ { ] ^ / ( _ : < [ } | 1 2 3 4 5 6 7 8 9 0 a b c d e f g h i j k l m n o p q r s t u v w x y z A B C D E F G H I J K L M N O P Q R S T U V W X Y Z `  ...+.@.@.#.$.%.&.*.=.-.;.>.,.'.).!.~.{.].^./.(._.:.<.[.}.|.1.2.3.4.5.6.7.8.9.0.a.b.c.d.e.f.g.h.i.j.k.l.m.n.o.p.q.r.s.t.u.v.w.x.y.z.A.B.C.D.E.F.G.H.I.J.K.L.M.N.O.P.Q.R.S.T.U.V.W.X.Y.Z.`. +++",
". + @ # $ % & * = - ; > , ' ) ! ~ { ] ^ / ( _ : < [ } | 1 2 3 4 5 6 7 8 9 0 a b c d e f g h i j k l m n o p q r s t u v w x y z A B C D E F G H I J K L M N O P Q R S T U V W X Y Z `  ...+.@.@.#.$.%.&.*.=.-.;.>.,.'.).!.~.{.].^./.(._.:.<.[.}.|.1.2.3.4.5.6.7.8.9.0.a.b.c.d.e.f.g.h.i.j.k.l.m.n.o.p.q.r.s.t.u.v.w.x.y.z.A.B.C.D.E.F.G.H.I.J.K.L.M.N.O.P.Q.R.S.T.U.V.W.X.Y.Z.`. +++",
". + @ # $ % & * = - ; > , ' ) ! ~ { ] ^ / ( _ : < [ } | 1 2 3 4 5 6 7 8 9 0 a b c d e f g h i j k l m n o p q r s t u v w x y z A B C D E F G H I J K L M N O P Q R S T U V W X Y Z `  ...+.@.@.#.$.%.&.*.=.-.;.>.,.'.).!.~.{.].^./.(._.:.<.[.}.|.1.2.3.4.5.6.7.8.9.0.a.b.c.d.e.f.g.h.i.j.k.l.m.n.o.p.q.r.s.t.u.v.w.x.y.z.A.B.C.D.E.F.G.H.I.J.K.L.M.N.O.P.Q.R.S.T.U.V.W.X.Y.Z.`. +++"};
