/* XPM */
static const gchar * hiin_xpm[] = {
"25 25 3 1",
" 	c None",
".	c #F6FA2A",
"+	c #F6F92A",
"                         ",
"                         ",
"                         ",
"                         ",
"            .......+     ",
"           ........+     ",
"         ......          ",
"        .....            ",
"       ....              ",
"       ...               ",
"      ...                ",
"      ...                ",
"     ...                 ",
"     ...                 ",
"     ...                 ",
"     ...                 ",
"     ..                  ",
"    ...                  ",
"    ...                  ",
"    ...                  ",
"    ...                  ",
"    +.+                  ",
"                         ",
"                         ",
"                         "};
