/* XPM */
static char * hslider00_xpm[] = {
"38 19 157 2",
"  	c None",
". 	c #8B8B8B",
"+ 	c #8C8C8C",
"@ 	c #949494",
"# 	c #3C3C3C",
"$ 	c #808080",
"% 	c #858585",
"& 	c #A7A7A7",
"* 	c #B8B8B8",
"= 	c #CCCCCC",
"- 	c #DBDBDB",
"; 	c #DEDEDE",
"> 	c #FFFFFF",
", 	c #E6E6E6",
"' 	c #E5E5E5",
") 	c #848484",
"! 	c #2A2A2A",
"~ 	c #383838",
"{ 	c #DFDFDF",
"] 	c #E2E2E2",
"^ 	c #CBCBCB",
"/ 	c #888888",
"( 	c #626262",
"_ 	c #090909",
": 	c #6C6C6C",
"< 	c #818181",
"[ 	c #A1A1A1",
"} 	c #ADADAD",
"| 	c #C7C7C7",
"1 	c #D4D4D4",
"2 	c #D9D9D9",
"3 	c #D7D7D7",
"4 	c #D1D1D1",
"5 	c #D2D2D2",
"6 	c #CFCFCF",
"7 	c #DCDCDC",
"8 	c #BBBBBB",
"9 	c #696969",
"0 	c #000000",
"a 	c #7C7C7C",
"b 	c #D8D8D8",
"c 	c #D5D5D5",
"d 	c #DADADA",
"e 	c #C5C5C5",
"f 	c #B1B1B1",
"g 	c #666666",
"h 	c #515151",
"i 	c #797979",
"j 	c #A8A8A8",
"k 	c #C8C8C8",
"l 	c #DDDDDD",
"m 	c #CACACA",
"n 	c #B9B9B9",
"o 	c #BDBDBD",
"p 	c #646464",
"q 	c #A2A2A2",
"r 	c #D0D0D0",
"s 	c #C2C2C2",
"t 	c #D6D6D6",
"u 	c #BEBEBE",
"v 	c #A6A6A6",
"w 	c #5D5D5D",
"x 	c #4A4A4A",
"y 	c #5C5C5C",
"z 	c #6D6D6D",
"A 	c #828282",
"B 	c #A3A3A3",
"C 	c #D3D3D3",
"D 	c #AFAFAF",
"E 	c #B6B6B6",
"F 	c #CDCDCD",
"G 	c #C0C0C0",
"H 	c #9B9B9B",
"I 	c #535353",
"J 	c #3D3D3D",
"K 	c #545454",
"L 	c #7B7B7B",
"M 	c #9E9E9E",
"N 	c #E7E7E7",
"O 	c #9F9F9F",
"P 	c #636363",
"Q 	c #BABABA",
"R 	c #919191",
"S 	c #4C4C4C",
"T 	c #4E4E4E",
"U 	c #787878",
"V 	c #999999",
"W 	c #BFBFBF",
"X 	c #E8E8E8",
"Y 	c #C3C3C3",
"Z 	c #989898",
"` 	c #C6C6C6",
" .	c #ABABAB",
"..	c #B5B5B5",
"+.	c #8A8A8A",
"@.	c #494949",
"#.	c #595959",
"$.	c #959595",
"%.	c #C4C4C4",
"&.	c #B4B4B4",
"*.	c #616161",
"=.	c #CECECE",
"-.	c #B2B2B2",
";.	c #555555",
">.	c #929292",
",.	c #8D8D8D",
"'.	c #5E5E5E",
").	c #C9C9C9",
"!.	c #A5A5A5",
"~.	c #8F8F8F",
"{.	c #BCBCBC",
"].	c #898989",
"^.	c #B3B3B3",
"/.	c #AEAEAE",
"(.	c #B7B7B7",
"_.	c #B0B0B0",
":.	c #A9A9A9",
"<.	c #AAAAAA",
"[.	c #585858",
"}.	c #7F7F7F",
"|.	c #7D7D7D",
"1.	c #565656",
"2.	c #ACACAC",
"3.	c #9C9C9C",
"4.	c #878787",
"5.	c #979797",
"6.	c #505050",
"7.	c #7A7A7A",
"8.	c #8E8E8E",
"9.	c #969696",
"0.	c #6B6B6B",
"a.	c #838383",
"b.	c #A0A0A0",
"c.	c #747474",
"d.	c #757575",
"e.	c #3F3F3F",
"f.	c #727272",
"g.	c #909090",
"h.	c #717171",
"i.	c #484848",
"j.	c #4D4D4D",
"k.	c #707070",
"l.	c #686868",
"m.	c #353535",
"n.	c #656565",
"o.	c #606060",
"p.	c #5B5B5B",
"q.	c #6A6A6A",
"r.	c #5F5F5F",
"s.	c #4B4B4B",
"t.	c #373737",
"u.	c #202020",
"v.	c #131313",
"w.	c #0B0B0B",
"x.	c #060606",
"y.	c #030303",
"z.	c #010101",
"  . + @ @ @ @ @ @ @ @ @ @ @ @ @ @ @ @ @ @ @ @ @ @ @ @ @ @ @ @ @ @ @ @ + #   ",
"$ % & * = - ; > > > > > > > , ' > ) ! ~ % > { ; ] > > > > > > > > > ^ / ( _ ",
": < [ } | 1 - 2 3 3 4 4 5 5 6 7 8 9 0 0 a * b 7 c c 7 d c c - 2 4 e f g h 0 ",
"g i + j k c l 3 1 1 ^ = m m n l o p 0 0 a n 1 q r r ; s r r t f | u v w x 0 ",
"y z A B s t ' C l l m 6 ^ ^ & d D p 0 0 a E t q F F 7 q ^ ^ 5 f G 8 H I J 0 ",
"K p L M G b N 3 - - e ^ | | O b o P 0 0 a * b q ^ ^ - q | | 4 f n Q R S ~ 0 ",
"T w U V W d X b 2 2 G k Y Y Z b D ( 0 0 a * b q ^ ^ - q ` ` r  ...n +.S ~ 0 ",
"@.#.U $.o - X b 3 3 8 %.W W R 3 &.*.0 0 a ..3 q m m d q ` ` =.& -...% S ~ 0 ",
"@.;.z >.8 7 X d c c E G Q Q ,.b f '.0 0 a -.c q ).).2 q ` ` = !.D f A S ~ 0 ",
"@.K z ~.n l X 2 C C f {.&.&.].2 &.w 0 0 a ^.C q k k b q m m = B /.} $ S ~ 0 ",
"@.K z + (.l { ; 4 4 } .././.% 2 E #.0 0 a _.4 q k k 3 q ).).= B } :.$ S ~ 0 ",
"@.I z +.E l l 7 r r <.D j j < 2 o [.0 0 a /.6 q | | c q ).).F q } & }.S ~ 0 ",
"@.I z ].E 7 - 3 6 6 & j q q |.2 E 1.0 0 a 2.= q ` ` 5 q k k F q } & }.S ~ 0 ",
"@.I z / E - b 5 = = !.[ 3.3.a 2 /.I 0 0 a :.| q s s =.q Y Y m q 2.& }.S ~ 0 ",
"@.I z 4.E l 7 b k ).@ 5.$.$.L t !.6.0 0 a !.G q o o ).q Q Q e q  .j }.S ~ 0 ",
"@.I z 4.^.5 k Y o ^.~.+.+.+.7./.5.@.0 0 a V [ 3.v v &.8.B B -.q 9.+.0.S ~ 0 ",
"@.I ( a.3.b.~.a.|.|.7.7.c.% i c.d.e.0 0 a + ~.d.a a ].f.7.7.g.|.i h.P i.~ 0 ",
"i.j.P ( 0.: : 0.k.: 9 ( w l.p 0.P m.0 0 i.n.g o.P w p.p p.q.'.r.p *.r.p.S 0 ",
"  o.s.t.u.v.w.x.y.z.0 0 0 0 0 0 0 0 0 0 0 0 0 0 0 0 0 0 0 0 0 0 0 0 0 0 0 0 "};
