/* XPM */
static char * hslider01_xpm[] = {
"149 20 2 1",
" 	c None",
".	c #000000",
"                                                                                                                                                     ",
"                                                                                                                                                     ",
"                                                                                                                                                     ",
"                                                                                                                                                     ",
"                                                                                                                                                     ",
"                                                                                                                                                     ",
"                                                                                                                                                     ",
"                                                                                                                                                     ",
"                                                                                                                                                     ",
".....................................................................................................................................................",
".....................................................................................................................................................",
".....................................................................................................................................................",
"                                                                                                                                                     ",
"                                                                                                                                                     ",
"                                                                                                                                                     ",
"                                                                                                                                                     ",
"                                                                                                                                                     ",
"                                                                                                                                                     ",
"                                                                                                                                                     ",
"                                                                                                                                                     "};
