/* XPM */
static const gchar * left_arrow_xpm[] = {
"12 15 3 1",
" 	c None",
".	c #000000",
"+	c #FFFFFF",
"       ..+. ",
"      ..++. ",
"     ..+++. ",
"    ..+++.. ",
"   ..+++..  ",
"  ..+++..   ",
" ..+++..    ",
" .+++..     ",
" ..+++..    ",
"  ..+++..   ",
"   ..+++..  ",
"    ..+++.. ",
"     ..+++. ",
"      ..++. ",
"       ..+. "};
