/* XPM */
static const gchar * linout_xpm[] = {
"25 25 3 1",
" 	c None",
".	c #FDFD00",
"+	c #FEFE00",
"                         ",
"                         ",
"                         ",
"    ..                   ",
"    +++                  ",
"    .+++                 ",
"     ++++                ",
"      ++++               ",
"       +++.              ",
"        +++              ",
"         +++             ",
"          +++            ",
"           +++           ",
"            +++          ",
"             +++         ",
"              +++        ",
"              .+++       ",
"               ++++      ",
"                ++++     ",
"                 ++++    ",
"                  ++++   ",
"                   ..    ",
"                         ",
"                         ",
"                         "};
