/* XPM */
static const gchar * loout_xpm[] = {
"25 25 3 1",
" 	c None",
".	c #F6F92A",
"+	c #F6FA2A",
"                         ",
"                         ",
"    ..                   ",
"    ++                   ",
"    ++                   ",
"    ++                   ",
"    ++                   ",
"    ++                   ",
"    +++                  ",
"    +++                  ",
"    +++                  ",
"    ++++                 ",
"     +++                 ",
"     +++                 ",
"      +++                ",
"      ++++               ",
"       +++++             ",
"        ++++++           ",
"         +++++++++.      ",
"           ++++++++      ",
"              ++++.      ",
"                         ",
"                         ",
"                         ",
"                         "};
