/* XPM */
static const gchar * lr_xpm[] = {
"11 11 2 1",
" 	c None",
".	c #cccccc",
"           ",
"           ",
"   .   .   ",
"  .     .  ",
" .       . ",
"...........",
" .       . ",
"  .     .  ",
"   .   .   ",
"           ",
"           "};
