/* XPM */
static const gchar * revdblarrow_xpm[] = {
"20 11 3 1",
" 	c None",
".	c #000000",
"+	c #FFFFFF",
"              ..    ",
"              .+.   ",
"              .++.  ",
" ..............+++. ",
" .+++++++++++++++++.",
" ...................",
" .+++++++++++++++++.",
"  .+++..............",
"   .++.             ",
"    .+.             ",
"     ..             "};
