/* XPM */
static char * right_arrow_xpm[] = {
"12 12 7 1",
" 	c None",
".	c #000000",
"+	c #FFFFFF",
"@	c #020202",
"#	c #0B0B0B",
"$	c #131313",
"%	c #121212",
"  ....      ",
"  .++..     ",
"  ..++..    ",
"   ..++..   ",
"    ..++..  ",
"     ..++.. ",
"     .@++.. ",
"    .#++..  ",
"   .$++..   ",
"  .%++..    ",
"  .++..     ",
"  ....      "};
