/* XPM */
static char * t_small_round_button_01_xpm[] = {
"28 30 565 2",
"  	c None",
". 	c #3C4B52",
"+ 	c #465960",
"@ 	c #44575D",
"# 	c #45565D",
"$ 	c #4A5961",
"% 	c #3A4B53",
"& 	c #39464D",
"* 	c #32424A",
"= 	c #34464D",
"- 	c #36454C",
"; 	c #34434C",
"> 	c #35464E",
", 	c #34444C",
"' 	c #34434D",
") 	c #35454F",
"! 	c #374750",
"~ 	c #314248",
"{ 	c #34444A",
"] 	c #2A343A",
"^ 	c #3A454C",
"/ 	c #37464F",
"( 	c #394850",
"_ 	c #3E4F55",
": 	c #405157",
"< 	c #3E5259",
"[ 	c #46585F",
"} 	c #41545A",
"| 	c #3E5057",
"1 	c #3E4E57",
"2 	c #3E4C56",
"3 	c #39494F",
"4 	c #36434A",
"5 	c #273437",
"6 	c #2F3A41",
"7 	c #394952",
"8 	c #3A4E58",
"9 	c #40525C",
"0 	c #41515A",
"a 	c #45555B",
"b 	c #42565B",
"c 	c #41555A",
"d 	c #45575E",
"e 	c #43575C",
"f 	c #45545E",
"g 	c #45525A",
"h 	c #42525A",
"i 	c #415158",
"j 	c #3D4E56",
"k 	c #3C4D55",
"l 	c #354750",
"m 	c #2D3B45",
"n 	c #2E3B43",
"o 	c #404F58",
"p 	c #42545D",
"q 	c #43595D",
"r 	c #42585B",
"s 	c #45545B",
"t 	c #414E54",
"u 	c #35454E",
"v 	c #2E3E44",
"w 	c #2A3C42",
"x 	c #2F4048",
"y 	c #324249",
"z 	c #39454B",
"A 	c #404D51",
"B 	c #425257",
"C 	c #43565B",
"D 	c #41555B",
"E 	c #41505A",
"F 	c #394955",
"G 	c #2D3943",
"H 	c #324147",
"I 	c #405259",
"J 	c #47565F",
"K 	c #46585C",
"L 	c #475A5A",
"M 	c #3B4D4F",
"N 	c #2C3B3D",
"O 	c #293B3E",
"P 	c #33434A",
"Q 	c #394A52",
"R 	c #44525B",
"S 	c #49565D",
"T 	c #364649",
"U 	c #2C3D41",
"V 	c #2D3E41",
"W 	c #394B4F",
"X 	c #425659",
"Y 	c #465561",
"Z 	c #44545F",
"` 	c #40515C",
" .	c #303D45",
"..	c #232F33",
"+.	c #43535B",
"@.	c #4A5C62",
"#.	c #4A5B62",
"$.	c #485458",
"%.	c #354144",
"&.	c #223034",
"*.	c #31404A",
"=.	c #506069",
"-.	c #617380",
";.	c #738492",
">.	c #7F8E9C",
",.	c #7D8C9C",
"'.	c #7E8D9C",
").	c #71828E",
"!.	c #5D6F79",
"~.	c #44555B",
"{.	c #2B3C41",
"].	c #344548",
"^.	c #43515C",
"/.	c #4A5660",
"(.	c #43555C",
"_.	c #415058",
":.	c #263035",
"<.	c #40535A",
"[.	c #4A5A62",
"}.	c #46555E",
"|.	c #2D393F",
"1.	c #414F5A",
"2.	c #687686",
"3.	c #8293A5",
"4.	c #93A5BC",
"5.	c #9DB1C8",
"6.	c #9CB1C8",
"7.	c #96ABC2",
"8.	c #95ABC3",
"9.	c #98A9C0",
"0.	c #93A5BA",
"a.	c #818E9F",
"b.	c #576570",
"c.	c #35424A",
"d.	c #314144",
"e.	c #42535A",
"f.	c #4A5A61",
"g.	c #495A5F",
"h.	c #405158",
"i.	c #303D42",
"j.	c #485A68",
"k.	c #4A5B5F",
"l.	c #4B5B5D",
"m.	c #334345",
"n.	c #233037",
"o.	c #485660",
"p.	c #6C7B8A",
"q.	c #8A9AB1",
"r.	c #92A1BB",
"s.	c #91A3BB",
"t.	c #8EA0B6",
"u.	c #8799B2",
"v.	c #8597B0",
"w.	c #8598B0",
"x.	c #8C9BB1",
"y.	c #90A0B7",
"z.	c #95A4B9",
"A.	c #8090A4",
"B.	c #5D6C7C",
"C.	c #2D3F3E",
"D.	c #35444C",
"E.	c #4A5860",
"F.	c #4E5D63",
"G.	c #475A61",
"H.	c #2C3A3D",
"I.	c #3C4C52",
"J.	c #4F6271",
"K.	c #4A5E61",
"L.	c #415051",
"M.	c #263437",
"N.	c #334149",
"O.	c #687583",
"P.	c #7F90A1",
"Q.	c #899AAF",
"R.	c #8393AC",
"S.	c #8594AA",
"T.	c #8393A7",
"U.	c #8391A7",
"V.	c #8394AA",
"W.	c #8393A8",
"X.	c #8696AC",
"Y.	c #8496AB",
"Z.	c #7A8DA0",
"`.	c #526264",
" +	c #2A3A3F",
".+	c #424E53",
"++	c #4F5D63",
"@+	c #4D5E62",
"#+	c #3A4B4D",
"$+	c #4D5F66",
"%+	c #4A616A",
"&+	c #485D5D",
"*+	c #2E3F3E",
"=+	c #253238",
"-+	c #7C8A9B",
";+	c #8191A2",
">+	c #8190A4",
",+	c #8091A5",
"'+	c #7E8EA3",
")+	c #7B8DA2",
"!+	c #7C8DA4",
"~+	c #808DA4",
"{+	c #808FA4",
"]+	c #828EA4",
"^+	c #8390A4",
"/+	c #8392A8",
"(+	c #8392A6",
"_+	c #76858D",
":+	c #404E51",
"<+	c #314245",
"[+	c #48595F",
"}+	c #505F6A",
"|+	c #4A5E64",
"1+	c #2D363A",
"2+	c #52626A",
"3+	c #50646A",
"4+	c #435656",
"5+	c #253736",
"6+	c #364148",
"7+	c #6D7A8A",
"8+	c #7C8B9D",
"9+	c #7B8B9E",
"0+	c #7C8EA2",
"a+	c #7C8D9D",
"b+	c #7B8B9C",
"c+	c #7B8C9D",
"d+	c #7B8B9D",
"e+	c #808EA3",
"f+	c #7B8AA1",
"g+	c #7C8BA3",
"h+	c #808EA4",
"i+	c #818D9E",
"j+	c #556668",
"k+	c #2B3E3B",
"l+	c #45565A",
"m+	c #52616A",
"n+	c #4C6065",
"o+	c #283336",
"p+	c #52636A",
"q+	c #52656A",
"r+	c #3A504F",
"s+	c #253437",
"t+	c #48545E",
"u+	c #798496",
"v+	c #7B899D",
"w+	c #7B899E",
"x+	c #7B8A9C",
"y+	c #7A8C9B",
"z+	c #7A899B",
"A+	c #7B899C",
"B+	c #7E8BA3",
"C+	c #808BA3",
"D+	c #7D8AA2",
"E+	c #7E8A9F",
"F+	c #7E8AA2",
"G+	c #7C889D",
"H+	c #6C7B7D",
"I+	c #32443E",
"J+	c #3A4C4F",
"K+	c #4D626A",
"L+	c #4C6068",
"M+	c #4F636A",
"N+	c #50656B",
"O+	c #52666B",
"P+	c #3B4B4A",
"Q+	c #263536",
"R+	c #516067",
"S+	c #778698",
"T+	c #7B889C",
"U+	c #7B8898",
"V+	c #73828B",
"W+	c #394A4F",
"X+	c #374A4F",
"Y+	c #50656A",
"Z+	c #4C6365",
"`+	c #374844",
" @	c #263537",
".@	c #52636E",
"+@	c #768596",
"@@	c #7B8595",
"#@	c #7B859A",
"$@	c #7A879A",
"%@	c #79889C",
"&@	c #7A889C",
"*@	c #79879C",
"=@	c #75859A",
"-@	c #7A8594",
";@	c #75838C",
">@	c #3E4E51",
",@	c #3A4A4F",
"'@	c #51646A",
")@	c #4C626A",
"!@	c #4F6468",
"~@	c #3B4A48",
"{@	c #253536",
"]@	c #52626D",
"^@	c #768398",
"/@	c #768294",
"(@	c #7A8294",
"_@	c #7B8294",
":@	c #7B8494",
"<@	c #7B8696",
"[@	c #7B8698",
"}@	c #7B869C",
"|@	c #78859B",
"1@	c #7A859C",
"2@	c #79859A",
"3@	c #74838B",
"4@	c #3E4F51",
"5@	c #3B4C4F",
"6@	c #52676A",
"7@	c #52666A",
"8@	c #3F4F4E",
"9@	c #253436",
"0@	c #495863",
"a@	c #728091",
"b@	c #778194",
"c@	c #7B8194",
"d@	c #7B8594",
"e@	c #7B8596",
"f@	c #7B859C",
"g@	c #7A859B",
"h@	c #788496",
"i@	c #7B8499",
"j@	c #798596",
"k@	c #6B7B84",
"l@	c #39484B",
"m@	c #3F5052",
"n@	c #52666D",
"o@	c #52686D",
"p@	c #54666D",
"q@	c #435451",
"r@	c #263736",
"s@	c #394950",
"t@	c #70798A",
"u@	c #788092",
"v@	c #788194",
"w@	c #7B8396",
"x@	c #7B8598",
"y@	c #7B8599",
"z@	c #7B849A",
"A@	c #7A8399",
"B@	c #7B8498",
"C@	c #758194",
"D@	c #758393",
"E@	c #5E7076",
"F@	c #334448",
"G@	c #52656D",
"H@	c #52676D",
"I@	c #526973",
"J@	c #536973",
"K@	c #475C5B",
"L@	c #304340",
"M@	c #2D3B41",
"N@	c #626D7C",
"O@	c #717D8D",
"P@	c #738194",
"Q@	c #7A849A",
"R@	c #7A8396",
"S@	c #7B8394",
"T@	c #7B859B",
"U@	c #798194",
"V@	c #7A8497",
"W@	c #778191",
"X@	c #737F88",
"Y@	c #4C5A5D",
"Z@	c #304346",
"`@	c #4B5A62",
" #	c #526673",
".#	c #526972",
"+#	c #2D393A",
"@#	c #526A73",
"##	c #4F6265",
"$#	c #3B4C4D",
"%#	c #2A383B",
"&#	c #6B7787",
"*#	c #737F8F",
"=#	c #737F91",
"-#	c #7A8394",
";#	c #788497",
">#	c #7A8495",
",#	c #738191",
"'#	c #75818F",
")#	c #707D88",
"!#	c #697579",
"~#	c #394947",
"{#	c #374B4A",
"]#	c #4F6165",
"^#	c #526670",
"/#	c #43585D",
"(#	c #536D73",
"_#	c #526771",
":#	c #485861",
"<#	c #324142",
"[#	c #334043",
"}#	c #525F6A",
"|#	c #6B7A84",
"1#	c #737D8B",
"2#	c #737F90",
"3#	c #738090",
"4#	c #738190",
"5#	c #768390",
"6#	c #788390",
"7#	c #73808B",
"8#	c #707E8A",
"9#	c #657580",
"0#	c #48575E",
"a#	c #374647",
"b#	c #4B5D5C",
"c#	c #57696F",
"d#	c #576975",
"e#	c #44565D",
"f#	c #37474E",
"g#	c #536D7A",
"h#	c #52697A",
"i#	c #4F636F",
"j#	c #425351",
"k#	c #2F3E3C",
"l#	c #344148",
"m#	c #505E69",
"n#	c #69747F",
"o#	c #6B7784",
"p#	c #6F7C88",
"q#	c #717D89",
"r#	c #717D8B",
"s#	c #6C7D86",
"t#	c #6C7D89",
"u#	c #6B7C83",
"v#	c #485961",
"w#	c #334150",
"x#	c #435258",
"y#	c #54646A",
"z#	c #596D78",
"A#	c #5A6B7A",
"B#	c #39474E",
"C#	c #526B78",
"D#	c #546C79",
"E#	c #576B72",
"F#	c #4D6062",
"G#	c #384C4D",
"H#	c #29383F",
"I#	c #2E3C46",
"J#	c #4C5960",
"K#	c #636D73",
"L#	c #65757D",
"M#	c #677882",
"N#	c #657982",
"O#	c #687985",
"P#	c #677983",
"Q#	c #69777D",
"R#	c #68757B",
"S#	c #59686D",
"T#	c #3C4E54",
"U#	c #324348",
"V#	c #3A4C59",
"W#	c #52636F",
"X#	c #5A707D",
"Y#	c #586B78",
"Z#	c #35434C",
"`#	c #586E7B",
" $	c #5A707A",
".$	c #576A71",
"+$	c #4E5F65",
"@$	c #3E4C51",
"#$	c #2E3C40",
"$$	c #293637",
"%$	c #334041",
"&$	c #435156",
"*$	c #505E65",
"=$	c #56666B",
"-$	c #576A6E",
";$	c #556567",
">$	c #4F5B5F",
",$	c #3C4A4D",
"'$	c #2D3C44",
")$	c #314149",
"!$	c #3E515A",
"~$	c #4E626C",
"{$	c #5B6F78",
"]$	c #5D737B",
"^$	c #5A727B",
"/$	c #38464C",
"($	c #4C5E66",
"_$	c #5D727C",
":$	c #5E717D",
"<$	c #596D75",
"[$	c #516569",
"}$	c #455858",
"|$	c #334343",
"1$	c #273636",
"2$	c #233132",
"3$	c #273334",
"4$	c #2B3536",
"5$	c #273536",
"6$	c #273333",
"7$	c #273439",
"8$	c #29373D",
"9$	c #384550",
"0$	c #495B66",
"a$	c #576A73",
"b$	c #5C717C",
"c$	c #61737D",
"d$	c #61757D",
"e$	c #4B5F66",
"f$	c #4F5C68",
"g$	c #627183",
"h$	c #61727F",
"i$	c #5E7178",
"j$	c #556970",
"k$	c #506266",
"l$	c #45585B",
"m$	c #3D4E50",
"n$	c #384648",
"o$	c #364246",
"p$	c #344347",
"q$	c #3B484A",
"r$	c #45555D",
"s$	c #51616A",
"t$	c #586976",
"u$	c #5F7280",
"v$	c #617582",
"w$	c #637884",
"x$	c #4F5F6A",
"y$	c #4F5E6D",
"z$	c #627787",
"A$	c #637A87",
"B$	c #617785",
"C$	c #627683",
"D$	c #64747F",
"E$	c #5E7078",
"F$	c #5C6D73",
"G$	c #5F7077",
"H$	c #5F7178",
"I$	c #62747B",
"J$	c #677784",
"K$	c #6A7B87",
"L$	c #687B87",
"M$	c #6A7E8E",
"N$	c #677B8B",
"O$	c #6A798B",
"P$	c #52606C",
"Q$	c #3D4D52",
"R$	c #5E7383",
"S$	c #687A8B",
"T$	c #6A7D8B",
"U$	c #6A7C8B",
"V$	c #677A8A",
"W$	c #6A7A8A",
"X$	c #6A7B8B",
"Y$	c #6A7C8E",
"Z$	c #6A808E",
"`$	c #6A7F8B",
" %	c #6A7E8C",
".%	c #6A7E8B",
"+%	c #637683",
"@%	c #404E55",
"#%	c #566672",
"$%	c #60717E",
"%%	c #6A7D8C",
"&%	c #6A8092",
"*%	c #6A8190",
"=%	c #6E8191",
"-%	c #637584",
";%	c #576873",
">%	c #566671",
"                      . + @ # $ %                       ",
"                & * = - ; > , ' ) ! ~ {                 ",
"            ] ^ / ( _ : < [ } | 1 2 3 / 4 5             ",
"          6 7 8 9 0 a b c d e f g h i j k l m           ",
"        n o p q r s t u v w x y z A B C D E F G         ",
"      H I J K L M N O P Q R S g T U V W X Y Z `  .      ",
"    ..+.@.#.$.%.&.*.=.-.;.>.,.'.).!.~.{.].^./.(._.:.    ",
"    <.#.[.}.n |.1.2.3.4.5.6.7.8.9.0.a.b.c.d.e.f.g.h.    ",
"  i.j.k.l.m.n.o.p.q.r.s.t.u.v.w.x.y.z.A.B.C.D.E.F.G.H.  ",
"  I.J.K.L.M.N.O.P.Q.R.S.T.U.U.V.W.T.X.Y.Z.`. +.+++@+#+  ",
"  $+%+&+*+=+b.-+;+>+,+'+)+!+~+{+]+{+^+/+(+_+:+<+[+}+|+  ",
"1+2+3+4+5+6+7+8+9+0+a+b+c+c+c+d+e+f+g+^+h+i+j+k+l+m+n+o+",
"p+p+q+r+s+t+u+v+w+x+y+z+A+A+A+A+B+C+D+E+F+G+H+I+J+m+K+L+",
"M+N+O+P+Q+R+S+A+A+A+A+A+A+A+A+A+A+A+A+x+T+U+V+W+X+2+3+%+",
"q+Y+Z+`+ @.@+@@@@@#@#@$@A+A+A+A+A+%@&@*@=@-@;@>@,@2+'@)@",
"q+Y+!@~@{@]@^@/@(@_@:@-@<@[@}@}@}@|@1@1@2@-@3@4@5@2+q+q+",
"q+6@7@8@9@0@a@b@b@c@c@:@d@e@f@f@g@h@f@f@i@j@k@l@m@2+q+7@",
"n@o@p@q@r@s@t@u@v@c@w@@@d@x@y@y@f@z@A@B@C@D@E@F@l+G@n@H@",
"|.I@J@K@L@M@N@O@P@b@Q@R@(@S@:@d@T@i@U@V@W@X@Y@Z@`@ #.#+#",
"  @#I@##$#%#/.&#*#=#U@C@C@-#:@d@;#>#,#'#)#!#~#{#]#^#I@  ",
"  /#(#_#:#<#[#}#|#1#2#3#4#4#5#6#3#4#7#8#9#0#a#b#c#d#e#  ",
"  f#g#h#i#j#k#l#m#n#o#p#q#r#r#r#s#t#u#E@v#w#x#y#z#A#B#  ",
"    C#D#E#F#G#H#I#J#K#L#M#N#O#P#Q#R#S#T#U#V#W#z#X#Y#    ",
"    Z#`# $.$+$@$#$$$%$&$*$=$-$;$>$,$'$)$!$~${$]$^$/$    ",
"      ($_$:$<$[$}$|$1$2$3$4$5$6$7$8$9$0$a$b$c$d$e$      ",
"        f$g$h$i$j$k$l$m$n$o$p$q$r$s$t$u$v$w$w$x$        ",
"          y$z$A$B$C$D$E$F$G$H$I$J$K$L$M$N$O$P$          ",
"            Q$R$S$T$U$V$W$W$X$Y$Z$`$ %.%+%@%            ",
"                #%$%T$T$T$T$%%&%*%=%-%;%                ",
"                      >%T$T$T$T$>%                      "};
