/* XPM */
static char * toggle_button_00_xpm[] = {
"21 22 329 2",
"  	c None",
". 	c #52646A",
"+ 	c #56686E",
"@ 	c #506268",
"# 	c #4C5E66",
"$ 	c #4E626A",
"% 	c #52646C",
"& 	c #52636A",
"* 	c #52636C",
"= 	c #52636E",
"- 	c #50626C",
"; 	c #4E6166",
"> 	c #4E5F66",
", 	c #4C5D66",
"' 	c #4E5E66",
") 	c #505F68",
"! 	c #52656A",
"~ 	c #52676C",
"{ 	c #54676C",
"] 	c #415156",
"^ 	c #2B3A41",
"/ 	c #24343D",
"( 	c #28363D",
"_ 	c #24363D",
": 	c #24383D",
"< 	c #29363D",
"[ 	c #24363F",
"} 	c #27363F",
"| 	c #27343B",
"1 	c #2D3944",
"2 	c #37464E",
"3 	c #485960",
"4 	c #42545A",
"5 	c #29383F",
"6 	c #2F3C46",
"7 	c #2F4143",
"8 	c #334246",
"9 	c #2F3F46",
"0 	c #314046",
"a 	c #354246",
"b 	c #313F46",
"c 	c #314048",
"d 	c #333F48",
"e 	c #313F48",
"f 	c #33404A",
"g 	c #2F3B46",
"h 	c #2B393F",
"i 	c #3B4A52",
"j 	c #394C54",
"k 	c #394752",
"l 	c #415058",
"m 	c #415252",
"n 	c #29393F",
"o 	c #28383F",
"p 	c #28373D",
"q 	c #2D383D",
"r 	c #2D373D",
"s 	c #2D3A3D",
"t 	c #2D393D",
"u 	c #2B373F",
"v 	c #2A373D",
"w 	c #283837",
"x 	c #283A3D",
"y 	c #3B4952",
"z 	c #3D4D56",
"A 	c #394750",
"B 	c #3F5258",
"C 	c #44565E",
"D 	c #46585E",
"E 	c #39474A",
"F 	c #3B4B56",
"G 	c #4E5A66",
"H 	c #525C66",
"I 	c #525E6A",
"J 	c #52606A",
"K 	c #56606A",
"L 	c #525E68",
"M 	c #48585E",
"N 	c #2F3E3D",
"O 	c #202F31",
"P 	c #2A3B42",
"Q 	c #46545E",
"R 	c #435260",
"S 	c #3D4D58",
"T 	c #43575E",
"U 	c #4A5A62",
"V 	c #4E5B5E",
"W 	c #37484E",
"X 	c #62707F",
"Y 	c #8190A8",
"Z 	c #8C9AB4",
"` 	c #8E9EB4",
" .	c #8E9EB8",
"..	c #8C9CB4",
"+.	c #8C9EB4",
"@.	c #90A0B8",
"#.	c #90A2B6",
"$.	c #90A0B4",
"%.	c #90A2B0",
"&.	c #627379",
"*.	c #2B363D",
"=.	c #2D3A46",
"-.	c #465766",
";.	c #465762",
">.	c #3F4F5A",
",.	c #465860",
"'.	c #4A5D62",
").	c #4E6164",
"!.	c #6A7A8E",
"~.	c #92A0BE",
"{.	c #94A2C0",
"].	c #94A6C4",
"^.	c #94A6C9",
"/.	c #94A4C3",
"(.	c #94A4C0",
"_.	c #96A6C2",
":.	c #96A4C2",
"<.	c #909EB8",
"[.	c #8392A0",
"}.	c #424C54",
"|.	c #2F3F48",
"1.	c #4A5B66",
"2.	c #4A5962",
"3.	c #3F515C",
"4.	c #4A5F62",
"5.	c #4C5F62",
"6.	c #37414A",
"7.	c #68748C",
"8.	c #7F8EAA",
"9.	c #7F8FA8",
"0.	c #7F8EA8",
"a.	c #7F8DA8",
"b.	c #7F8BA6",
"c.	c #7D88A2",
"d.	c #7D8998",
"e.	c #46565E",
"f.	c #2D4048",
"g.	c #3D505A",
"h.	c #465B5E",
"i.	c #4A5F66",
"j.	c #313D4A",
"k.	c #667184",
"l.	c #7B87A2",
"m.	c #7B89A4",
"n.	c #7987A2",
"o.	c #7785A0",
"p.	c #7B879C",
"q.	c #7B88A0",
"r.	c #7B869E",
"s.	c #7B8596",
"t.	c #46565A",
"u.	c #2D3D42",
"v.	c #465B66",
"w.	c #4A5E66",
"x.	c #313C48",
"y.	c #64707F",
"z.	c #79859A",
"A.	c #798598",
"B.	c #738598",
"C.	c #738398",
"D.	c #73849A",
"E.	c #73859C",
"F.	c #75859A",
"G.	c #778798",
"H.	c #77859A",
"I.	c #79849C",
"J.	c #758490",
"K.	c #46585A",
"L.	c #2B3C42",
"M.	c #465A62",
"N.	c #465B62",
"O.	c #4A5C66",
"P.	c #2F3C43",
"Q.	c #606C7D",
"R.	c #778294",
"S.	c #798394",
"T.	c #758394",
"U.	c #738394",
"V.	c #738294",
"W.	c #738194",
"X.	c #738494",
"Y.	c #738396",
"Z.	c #738496",
"`.	c #73818B",
" +	c #263A40",
".+	c #485B64",
"++	c #4A5C62",
"@+	c #3F505A",
"#+	c #2D3D43",
"$+	c #5E6C78",
"%+	c #778094",
"&+	c #778194",
"*+	c #738192",
"=+	c #737E8B",
"-+	c #283A42",
";+	c #41505A",
">+	c #465A5E",
",+	c #2D3D41",
"'+	c #5E6B76",
")+	c #738190",
"!+	c #737D8B",
"~+	c #465656",
"{+	c #2D3B42",
"]+	c #465A64",
"^+	c #4A5B62",
"/+	c #41515A",
"(+	c #465B64",
"_+	c #4A5D64",
":+	c #2D3D3D",
"<+	c #5C6A74",
"[+	c #737F8B",
"}+	c #73808B",
"|+	c #73808D",
"1+	c #737F90",
"2+	c #737F92",
"3+	c #737F8D",
"4+	c #6E7D87",
"5+	c #445256",
"6+	c #2D3C42",
"7+	c #465962",
"8+	c #41525A",
"9+	c #4A5E62",
"0+	c #46595E",
"a+	c #2B3B41",
"b+	c #5A6A72",
"c+	c #6C7B87",
"d+	c #6E7C89",
"e+	c #6E7B87",
"f+	c #6C7C89",
"g+	c #6A7B89",
"h+	c #6A7987",
"i+	c #6A7B87",
"j+	c #687B87",
"k+	c #6A7A83",
"l+	c #404A4E",
"m+	c #2F3D44",
"n+	c #485A64",
"o+	c #41545A",
"p+	c #2D3D46",
"q+	c #647581",
"r+	c #647783",
"s+	c #627583",
"t+	c #647681",
"u+	c #62757F",
"v+	c #60757F",
"w+	c #64757F",
"x+	c #62737B",
"y+	c #334248",
"z+	c #2F3F44",
"A+	c #4A5D66",
"B+	c #485C66",
"C+	c #2A3D44",
"D+	c #31414A",
"E+	c #526268",
"F+	c #56676E",
"G+	c #56696E",
"H+	c #56656E",
"I+	c #54666E",
"J+	c #56666C",
"K+	c #4E5C64",
"L+	c #374A52",
"M+	c #4C6068",
"N+	c #3F525A",
"O+	c #4A5D6A",
"P+	c #3D5056",
"Q+	c #2F3F41",
"R+	c #273639",
"S+	c #223133",
"T+	c #203033",
"U+	c #203437",
"V+	c #203335",
"W+	c #203235",
"X+	c #223135",
"Y+	c #2D393F",
"Z+	c #394B52",
"`+	c #445862",
" @	c #4C6268",
".@	c #41555A",
"+@	c #465D66",
"@@	c #485D66",
"#@	c #4A5F6A",
"$@	c #3B4D54",
"%@	c #2D3A42",
"&@	c #28373E",
"*@	c #283840",
"=@	c #26363E",
"-@	c #24363E",
";@	c #2B3840",
">@	c #35454E",
",@	c #48575E",
"'@	c #4E606A",
")@	c #4C606A",
"!@	c #465C64",
"~@	c #3D525C",
"{@	c #4A606A",
"]@	c #4A616A",
"^@	c #485B62",
"/@	c #435660",
"(@	c #3D4E56",
"_@	c #3D4C56",
":@	c #4A5B64",
"<@	c #4C5F68",
"[@	c #4A5E68",
"}@	c #485F68",
"|@	c #506773",
"1@	c #526875",
"2@	c #566A77",
"3@	c #566975",
"4@	c #526570",
"5@	c #4E636C",
"6@	c #4A5F68",
"7@	c #546670",
"8@	c #566A72",
"9@	c #566B75",
"0@	c #546973",
"a@	c #50656E",
"b@	c #526971",
"c@	c #526A75",
"d@	c #546C77",
"e@	c #566D7B",
"f@	c #586D7B",
"g@	c #586C79",
"h@	c #546A73",
"i@	c #566B73",
"j@	c #566C77",
"k@	c #566D77",
"l@	c #566B77",
"m@	c #546777",
"n@	c #526673",
". + @ # $ % & * = - ; > , # > > > ' ) ! ~ ",
"{ ] ^ / ( _ : < [ } < < < < < < < | 1 2 3 ",
"4 5 6 7 8 9 0 a b b 0 0 0 c d b e f g h i ",
"j k l m n o ( p q r s s t u v w x y z A k ",
"B C D E F G H H I I J K J L M N O P Q R S ",
"T U V W X Y Z `  ...+.@.#.$.%.&.*.=.-.;.>.",
",.'.).y !.~.{.].^./.(.(._.:.<.[.}.|.1.2.3.",
";.4.5.6.7.8.9.9.9.0.a.a.9.b.c.d.e.f.1.2.g.",
"h.i.'.j.k.l.m.m.m.n.o.p.p.q.r.s.t.u.v.2.g.",
"h.w.1.x.y.z.A.B.C.D.E.F.G.H.I.J.K.L.M.U g.",
"N.O.1.P.Q.R.S.T.U.V.W.U.X.Y.Z.`.t. +.+++@+",
"v.1.M.#+$+%+&+W.V.V.W.W.W.W.*+=+t.-+v.++;+",
"v.O.>+,+'+%+&+W.W.W.W.W.W.W.)+!+~+{+]+^+/+",
"(+_+h.:+<+=+[+}+`.|+1+1+1+2+3+4+5+6+7+^+8+",
"N.9+0+a+b+c+d+e+f+g+h+i+i+d+j+k+l+m+n+++o+",
"N.'.o+p+% q+r+s+s+t+u+u+u+v+w+x+y+z+A+++8+",
"N.'.B+C+D+E+F++ G+F+H+H+H+I+J+K+D+L+M+'.N+",
"N.A+O+P+Q+R+S+T+U+V+W+W+W+X+Y+Z+`+w. @'..@",
"+@@@#@T $@y+%@&@*@&@=@-@=@;@>@,@'@)@M+!@~@",
"{@]@]@#@^@/@@+z P+(@z _@z g./@:@<@'@[@}@M.",
"|@1@2@3@4@5@<@i.6@i.i.i.i.<@'@7@8@9@3@0@a@",
"b@c@d@e@f@g@h@h@i@i@i@i@i@i@i@j@k@l@2@m@n@"};
