/* XPM */
static char * toggle_button_01_xpm[] = {
"21 22 340 2",
"  	c None",
". 	c #52646A",
"+ 	c #56686E",
"@ 	c #506268",
"# 	c #4C5E66",
"$ 	c #4E626A",
"% 	c #52646C",
"& 	c #52636A",
"* 	c #52636C",
"= 	c #52636E",
"- 	c #50626C",
"; 	c #4E6166",
"> 	c #4E5F66",
", 	c #4C5D66",
"' 	c #4E5E66",
") 	c #505F68",
"! 	c #52656A",
"~ 	c #52676C",
"{ 	c #54676C",
"] 	c #415156",
"^ 	c #2B3A41",
"/ 	c #24343D",
"( 	c #28363D",
"_ 	c #24363D",
": 	c #24383D",
"< 	c #29363D",
"[ 	c #24363F",
"} 	c #27363F",
"| 	c #27343B",
"1 	c #2D3944",
"2 	c #37464E",
"3 	c #485960",
"4 	c #42545A",
"5 	c #29383F",
"6 	c #2F3C46",
"7 	c #2F4143",
"8 	c #334246",
"9 	c #2F3F46",
"0 	c #314046",
"a 	c #354246",
"b 	c #313F46",
"c 	c #314048",
"d 	c #333F48",
"e 	c #313F48",
"f 	c #33404A",
"g 	c #2F3B46",
"h 	c #2B393F",
"i 	c #3B4A52",
"j 	c #394C54",
"k 	c #394752",
"l 	c #415058",
"m 	c #415252",
"n 	c #29393F",
"o 	c #28383F",
"p 	c #28373D",
"q 	c #2D383D",
"r 	c #2D373D",
"s 	c #2D3A3D",
"t 	c #2D393D",
"u 	c #2B373F",
"v 	c #2A373D",
"w 	c #283837",
"x 	c #283A3D",
"y 	c #3B4952",
"z 	c #3D4D56",
"A 	c #394750",
"B 	c #3F5258",
"C 	c #44565E",
"D 	c #46585E",
"E 	c #39474A",
"F 	c #3B4B56",
"G 	c #4E5A66",
"H 	c #525C66",
"I 	c #525E6A",
"J 	c #52606A",
"K 	c #56606A",
"L 	c #525E68",
"M 	c #48585E",
"N 	c #2F3E3D",
"O 	c #202F31",
"P 	c #2A3B42",
"Q 	c #46545E",
"R 	c #435260",
"S 	c #3D4D58",
"T 	c #43575E",
"U 	c #4A5A62",
"V 	c #4E5B5E",
"W 	c #37484E",
"X 	c #62707F",
"Y 	c #8190A8",
"Z 	c #8C9AB4",
"` 	c #8E9EB4",
" .	c #8E9EB8",
"..	c #8C9CB4",
"+.	c #8C9EB4",
"@.	c #90A0B8",
"#.	c #90A2B6",
"$.	c #90A0B4",
"%.	c #90A2B0",
"&.	c #627379",
"*.	c #2B363D",
"=.	c #2D3A46",
"-.	c #465766",
";.	c #465762",
">.	c #3F4F5A",
",.	c #465860",
"'.	c #4A5D62",
").	c #4E6164",
"!.	c #6A7A8E",
"~.	c #92A0BE",
"{.	c #94A2C0",
"].	c #94A6C4",
"^.	c #94A6C9",
"/.	c #94A4C3",
"(.	c #94A4C0",
"_.	c #96A6C2",
":.	c #96A4C2",
"<.	c #909EB8",
"[.	c #8392A0",
"}.	c #424C54",
"|.	c #2F3F48",
"1.	c #4A5B66",
"2.	c #4A5962",
"3.	c #3F515C",
"4.	c #4A5F62",
"5.	c #4C5F62",
"6.	c #37414A",
"7.	c #68748C",
"8.	c #7F8EAA",
"9.	c #7F8FA8",
"0.	c #7F8EA8",
"a.	c #7F8DA8",
"b.	c #7F8BA6",
"c.	c #7D88A2",
"d.	c #7D8998",
"e.	c #46565E",
"f.	c #2D4048",
"g.	c #3D505A",
"h.	c #465B5E",
"i.	c #4A5F66",
"j.	c #313D4A",
"k.	c #667184",
"l.	c #7B87A2",
"m.	c #7B89A4",
"n.	c #7B88A3",
"o.	c #7B86A0",
"p.	c #7A85A0",
"q.	c #7B879C",
"r.	c #7B88A0",
"s.	c #7B869E",
"t.	c #7B8596",
"u.	c #46565A",
"v.	c #2D3D42",
"w.	c #465B66",
"x.	c #4A5E66",
"y.	c #313C48",
"z.	c #64707F",
"A.	c #79859A",
"B.	c #798598",
"C.	c #748599",
"D.	c #A97E7F",
"E.	c #E7765A",
"F.	c #E67256",
"G.	c #A97B7B",
"H.	c #788799",
"I.	c #77859A",
"J.	c #79849C",
"K.	c #758490",
"L.	c #46585A",
"M.	c #2B3C42",
"N.	c #465A62",
"O.	c #465B62",
"P.	c #4A5C66",
"Q.	c #2F3C43",
"R.	c #606C7D",
"S.	c #778294",
"T.	c #798394",
"U.	c #788498",
"V.	c #E66141",
"W.	c #E45A38",
"X.	c #E46A4C",
"Y.	c #768598",
"Z.	c #738396",
"`.	c #738496",
" +	c #73818B",
".+	c #263A40",
"++	c #485B64",
"@+	c #4A5C62",
"#+	c #3F505A",
"$+	c #2D3D43",
"%+	c #5E6C78",
"&+	c #778094",
"*+	c #778194",
"=+	c #768298",
"-+	c #E24E2A",
";+	c #E46547",
">+	c #738194",
",+	c #738192",
"'+	c #737E8B",
")+	c #283A42",
"!+	c #41505A",
"~+	c #465A5E",
"{+	c #2D3D41",
"]+	c #5E6B76",
"^+	c #748195",
"/+	c #A87A7A",
"(+	c #A77675",
"_+	c #738190",
":+	c #737D8B",
"<+	c #465656",
"[+	c #2D3B42",
"}+	c #465A64",
"|+	c #4A5B62",
"1+	c #41515A",
"2+	c #465B64",
"3+	c #4A5D64",
"4+	c #2D3D3D",
"5+	c #5C6A74",
"6+	c #737F8B",
"7+	c #73808B",
"8+	c #74818D",
"9+	c #768293",
"0+	c #768093",
"a+	c #747F90",
"b+	c #737F90",
"c+	c #737F92",
"d+	c #737F8D",
"e+	c #6E7D87",
"f+	c #445256",
"g+	c #2D3C42",
"h+	c #465962",
"i+	c #41525A",
"j+	c #4A5E62",
"k+	c #46595E",
"l+	c #2B3B41",
"m+	c #5A6A72",
"n+	c #6C7B87",
"o+	c #6E7C89",
"p+	c #6E7B87",
"q+	c #6C7C89",
"r+	c #6A7B89",
"s+	c #6A7987",
"t+	c #6A7B87",
"u+	c #687B87",
"v+	c #6A7A83",
"w+	c #404A4E",
"x+	c #2F3D44",
"y+	c #485A64",
"z+	c #41545A",
"A+	c #2D3D46",
"B+	c #647581",
"C+	c #647783",
"D+	c #627583",
"E+	c #647681",
"F+	c #62757F",
"G+	c #60757F",
"H+	c #64757F",
"I+	c #62737B",
"J+	c #334248",
"K+	c #2F3F44",
"L+	c #4A5D66",
"M+	c #485C66",
"N+	c #2A3D44",
"O+	c #31414A",
"P+	c #526268",
"Q+	c #56676E",
"R+	c #56696E",
"S+	c #56656E",
"T+	c #54666E",
"U+	c #56666C",
"V+	c #4E5C64",
"W+	c #374A52",
"X+	c #4C6068",
"Y+	c #3F525A",
"Z+	c #4A5D6A",
"`+	c #3D5056",
" @	c #2F3F41",
".@	c #273639",
"+@	c #223133",
"@@	c #203033",
"#@	c #203437",
"$@	c #203335",
"%@	c #203235",
"&@	c #223135",
"*@	c #2D393F",
"=@	c #394B52",
"-@	c #445862",
";@	c #4C6268",
">@	c #41555A",
",@	c #465D66",
"'@	c #485D66",
")@	c #4A5F6A",
"!@	c #3B4D54",
"~@	c #2D3A42",
"{@	c #28373E",
"]@	c #283840",
"^@	c #26363E",
"/@	c #24363E",
"(@	c #2B3840",
"_@	c #35454E",
":@	c #48575E",
"<@	c #4E606A",
"[@	c #4C606A",
"}@	c #465C64",
"|@	c #3D525C",
"1@	c #4A606A",
"2@	c #4A616A",
"3@	c #485B62",
"4@	c #435660",
"5@	c #3D4E56",
"6@	c #3D4C56",
"7@	c #4A5B64",
"8@	c #4C5F68",
"9@	c #4A5E68",
"0@	c #485F68",
"a@	c #506773",
"b@	c #526875",
"c@	c #566A77",
"d@	c #566975",
"e@	c #526570",
"f@	c #4E636C",
"g@	c #4A5F68",
"h@	c #546670",
"i@	c #566A72",
"j@	c #566B75",
"k@	c #546973",
"l@	c #50656E",
"m@	c #526971",
"n@	c #526A75",
"o@	c #546C77",
"p@	c #566D7B",
"q@	c #586D7B",
"r@	c #586C79",
"s@	c #546A73",
"t@	c #566B73",
"u@	c #566C77",
"v@	c #566D77",
"w@	c #566B77",
"x@	c #546777",
"y@	c #526673",
". + @ # $ % & * = - ; > , # > > > ' ) ! ~ ",
"{ ] ^ / ( _ : < [ } < < < < < < < | 1 2 3 ",
"4 5 6 7 8 9 0 a b b 0 0 0 c d b e f g h i ",
"j k l m n o ( p q r s s t u v w x y z A k ",
"B C D E F G H H I I J K J L M N O P Q R S ",
"T U V W X Y Z `  ...+.@.#.$.%.&.*.=.-.;.>.",
",.'.).y !.~.{.].^./.(.(._.:.<.[.}.|.1.2.3.",
";.4.5.6.7.8.9.9.9.0.a.a.9.b.c.d.e.f.1.2.g.",
"h.i.'.j.k.l.m.m.n.o.p.q.q.r.s.t.u.v.w.2.g.",
"h.x.1.y.z.A.B.C.D.E.F.G.H.I.J.K.L.M.N.U g.",
"O.P.1.Q.R.S.T.U.E.V.W.X.Y.Z.`. +u..+++@+#+",
"w.1.N.$+%+&+*+=+F.W.-+;+=+>+,+'+u.)+w.@+!+",
"w.P.~+{+]+&+*+^+/+X.;+(+^+>+_+:+<+[+}+|+1+",
"2+3+h.4+5+'+6+7+8+9+0+a+b+c+d+e+f+g+h+|+i+",
"O.j+k+l+m+n+o+p+q+r+s+t+t+o+u+v+w+x+y+@+z+",
"O.'.z+A+% B+C+D+D+E+F+F+F+G+H+I+J+K+L+@+i+",
"O.'.M+N+O+P+Q++ R+Q+S+S+S+T+U+V+O+W+X+'.Y+",
"O.L+Z+`+ @.@+@@@#@$@%@%@%@&@*@=@-@x.;@'.>@",
",@'@)@T !@J+~@{@]@{@^@/@^@(@_@:@<@[@X+}@|@",
"1@2@2@)@3@4@#+z `+5@z 6@z g.4@7@8@<@9@0@N.",
"a@b@c@d@e@f@8@i.g@i.i.i.i.8@<@h@i@j@d@k@l@",
"m@n@o@p@q@r@s@s@t@t@t@t@t@t@t@u@v@w@c@x@y@"};
