/* XPM */
static char * tool_audition_xpm[] = {
"16 12 4 1",
" 	c None",
".	c #000000",
"+	c #ECECEC",
"@	c #FFFFFF",
"      ..        ",
"     .+.    .   ",
"    .++.   .@.  ",
"....+@+...  .@. ",
".+++@@+..@.  .@.",
".+@@@@+. .@. .@.",
".+@@@@+. .@. .@.",
".+++@@+..@.  .@.",
"....+@+...  .@. ",
"    .++.   .@.  ",
"     .+.    .   ",
"      ..        "};
