/* XPM */
static char * tool_object_xpm[] = {
"16 12 8 1",
" 	c None",
".	c #000000",
"+	c #444444",
"@	c #888888",
"#	c #CC9966",
"$	c #DDDDDD",
"%	c #FFCC99",
"&	c #FFFFFF",
"     ...        ",
"     .&.        ",
"     .&.        ",
"     .&.        ",
"     .&.....    ",
"     .&.&.&...  ",
"   ...&.&.&.&.  ",
"   .&.&&&&&&&.  ",
"   .&&&&&&&&&.  ",
"   ...&&&&&&..  ",
"     ..&&&&&.   ",
"      .&&&&&.   "};
