/* XPM */
static const gchar * v_meter_strip_xpm[] = {
"5 250 230 2",
"  	c None",
". 	c #FE0000",
"+ 	c #FF0000",
"@ 	c #FE0100",
"# 	c #FD0200",
"$ 	c #FD0300",
"% 	c #FD0400",
"& 	c #FC0500",
"* 	c #FC0600",
"= 	c #FC0700",
"- 	c #FB0800",
"; 	c #FA0900",
"> 	c #FA0A00",
", 	c #FA0B00",
"' 	c #F90C00",
") 	c #F90D00",
"! 	c #F80E00",
"~ 	c #F80F00",
"{ 	c #F71000",
"] 	c #F71100",
"^ 	c #F61200",
"/ 	c #F61300",
"( 	c #F61400",
"_ 	c #F51600",
": 	c #F41700",
"< 	c #F41800",
"[ 	c #F31A00",
"} 	c #F31B00",
"| 	c #F21C00",
"1 	c #F21E00",
"2 	c #F11F00",
"3 	c #F54A00",
"4 	c #FFA900",
"5 	c #FFAB00",
"6 	c #FFAC01",
"7 	c #FFAD02",
"8 	c #FFAE02",
"9 	c #FFAF03",
"0 	c #FFB004",
"a 	c #FFB104",
"b 	c #FFB205",
"c 	c #FFB406",
"d 	c #FFB506",
"e 	c #FFB607",
"f 	c #FFB708",
"g 	c #FFB808",
"h 	c #FFB909",
"i 	c #FFBA0A",
"j 	c #FFBB0A",
"k 	c #FFBC0A",
"l 	c #FFBD0B",
"m 	c #FFBE0C",
"n 	c #FFBF0C",
"o 	c #FFC00D",
"p 	c #FFC10E",
"q 	c #FFC20F",
"r 	c #FFC30F",
"s 	c #FFC410",
"t 	c #FFC511",
"u 	c #FFC611",
"v 	c #FFC711",
"w 	c #FFC812",
"x 	c #FFC913",
"y 	c #FFCA13",
"z 	c #FFCB14",
"A 	c #FFCC15",
"B 	c #FFCD15",
"C 	c #FFCF16",
"D 	c #FFD017",
"E 	c #FFD117",
"F 	c #FFD218",
"G 	c #FFD319",
"H 	c #FFD419",
"I 	c #FFD51A",
"J 	c #FFD61B",
"K 	c #FFD71B",
"L 	c #FFD81C",
"M 	c #FFD91C",
"N 	c #FFDA1D",
"O 	c #FFDB1E",
"P 	c #FFDC1E",
"Q 	c #FFDD1F",
"R 	c #FFDE20",
"S 	c #FFDF20",
"T 	c #FFE021",
"U 	c #FFE222",
"V 	c #FFE322",
"W 	c #FFE423",
"X 	c #FFE524",
"Y 	c #FFE624",
"Z 	c #FFE725",
"` 	c #FFE826",
" .	c #FFE926",
"..	c #FFEA26",
"+.	c #FFEB27",
"@.	c #FFEC28",
"#.	c #FFED28",
"$.	c #FFEE29",
"%.	c #FFEF2A",
"&.	c #FFF02A",
"*.	c #FFF12B",
"=.	c #FFF22C",
"-.	c #FFF32D",
";.	c #FFF42D",
">.	c #FDF42C",
",.	c #FBF42C",
"'.	c #FAF42C",
").	c #F8F42B",
"!.	c #F6F42B",
"~.	c #F4F42B",
"{.	c #F3F42A",
"].	c #F1F42A",
"^.	c #F0F429",
"/.	c #EEF429",
"(.	c #ECF429",
"_.	c #EAF528",
":.	c #E9F528",
"<.	c #E7F528",
"[.	c #E5F527",
"}.	c #E3F527",
"|.	c #E2F526",
"1.	c #E0F526",
"2.	c #DFF526",
"3.	c #DDF525",
"4.	c #DBF525",
"5.	c #D9F525",
"6.	c #D8F524",
"7.	c #D6F624",
"8.	c #D5F624",
"9.	c #D3F624",
"0.	c #D1F623",
"a.	c #CFF623",
"b.	c #CEF622",
"c.	c #CCF622",
"d.	c #CBF622",
"e.	c #C9F621",
"f.	c #C7F621",
"g.	c #C5F621",
"h.	c #C4F720",
"i.	c #C2F720",
"j.	c #C0F71F",
"k.	c #BEF71F",
"l.	c #BDF71F",
"m.	c #BBF71E",
"n.	c #BAF71E",
"o.	c #B8F71E",
"p.	c #B6F71D",
"q.	c #B5F71D",
"r.	c #B3F71D",
"s.	c #B2F71C",
"t.	c #B0F81C",
"u.	c #AEF81B",
"v.	c #ACF81B",
"w.	c #ABF81B",
"x.	c #A9F81A",
"y.	c #A8F81A",
"z.	c #A6F81A",
"A.	c #A4F81A",
"B.	c #A2F819",
"C.	c #A1F819",
"D.	c #9FF819",
"E.	c #9EF818",
"F.	c #9BF918",
"G.	c #9AF917",
"H.	c #98F917",
"I.	c #97F917",
"J.	c #95F916",
"K.	c #93F916",
"L.	c #91F916",
"M.	c #90F915",
"N.	c #8EF915",
"O.	c #8DF914",
"P.	c #8BF914",
"Q.	c #89FA14",
"R.	c #87FA13",
"S.	c #86FA13",
"T.	c #84FA13",
"U.	c #83FA12",
"V.	c #81FA12",
"W.	c #7FFA12",
"X.	c #7DFA12",
"Y.	c #7CFA11",
"Z.	c #7AFA11",
"`.	c #78FA10",
" +	c #76FA10",
".+	c #75FB10",
"++	c #73FB0F",
"@+	c #72FB0F",
"#+	c #70FB0F",
"$+	c #6EFB0E",
"%+	c #6DFB0E",
"&+	c #6BFB0E",
"*+	c #6AFB0D",
"=+	c #68FB0D",
"-+	c #66FB0C",
";+	c #64FB0C",
">+	c #63FB0C",
",+	c #61FC0B",
"'+	c #60FC0B",
")+	c #5EFC0B",
"!+	c #5CFC0A",
"~+	c #5AFC0A",
"{+	c #59FC09",
"]+	c #57FC09",
"^+	c #56FC09",
"/+	c #53FC09",
"(+	c #52FC08",
"_+	c #50FC08",
":+	c #4FFD08",
"<+	c #4DFD07",
"[+	c #4BFD07",
"}+	c #49FD07",
"|+	c #48FD06",
"1+	c #46FD06",
"2+	c #45FD05",
"3+	c #43FD05",
"4+	c #41FD05",
"5+	c #3FFD04",
"6+	c #3EFD04",
"7+	c #3CFD04",
"8+	c #3BFE03",
"9+	c #39FE03",
"0+	c #37FE02",
"a+	c #35FE02",
"b+	c #34FE02",
"c+	c #32FE01",
"d+	c #30FE01",
"e+	c #2EFE01",
"f+	c #2DFE00",
"g+	c #2BFE00",
". . + + + ",
". . + + + ",
"@ @ @ @ @ ",
"# # # # # ",
"$ $ $ $ $ ",
"% % % % % ",
"& & & & & ",
"* * * * * ",
"= = = = = ",
"- - - - - ",
"; ; ; ; ; ",
"> > > > > ",
", , , , , ",
"' ' ' ' ' ",
") ) ) ) ) ",
"! ! ! ! ! ",
"~ ~ ~ ~ ~ ",
"{ { { { { ",
"] ] ] ] ] ",
"^ ^ ^ ^ ^ ",
"/ / / / / ",
"( ( ( ( ( ",
"_ _ _ _ _ ",
": : : : : ",
": : : : : ",
"< < < < < ",
"[ [ [ [ [ ",
"} } } } } ",
"} } } } } ",
"| | | | | ",
"1 1 1 1 1 ",
"2 2 2 2 2 ",
"3 3 3 3 3 ",
"4 4 4 4 4 ",
"5 5 5 5 5 ",
"6 6 6 6 6 ",
"6 6 6 6 6 ",
"7 7 7 7 7 ",
"8 8 8 8 8 ",
"9 9 9 9 9 ",
"9 9 9 9 9 ",
"0 0 0 0 0 ",
"a a a a a ",
"a a a a a ",
"b b b b b ",
"c c c c c ",
"d d d d d ",
"d d d d d ",
"e e e e e ",
"f f f f f ",
"g g g g g ",
"g g g g g ",
"h h h h h ",
"i i i i i ",
"j j j j j ",
"k k k k k ",
"l l l l l ",
"m m m m m ",
"n n n n n ",
"n n n n n ",
"o o o o o ",
"p p p p p ",
"q q q q q ",
"q q q q q ",
"r r r r r ",
"s s s s s ",
"t t t t t ",
"u u u u u ",
"v v v v v ",
"w w w w w ",
"x x x x x ",
"x x x x x ",
"y y y y y ",
"z z z z z ",
"A A A A A ",
"A A A A A ",
"B B B B B ",
"C C C C C ",
"D D D D D ",
"D D D D D ",
"E E E E E ",
"F F F F F ",
"G G G G G ",
"G G G G G ",
"H H H H H ",
"I I I I I ",
"I I I I I ",
"J J J J J ",
"K K K K K ",
"L L L L L ",
"M M M M M ",
"N N N N N ",
"O O O O O ",
"P P P P P ",
"P P P P P ",
"Q Q Q Q Q ",
"R R R R R ",
"S S S S S ",
"S S S S S ",
"T T T T T ",
"U U U U U ",
"V V V V V ",
"V V V V V ",
"W W W W W ",
"X X X X X ",
"Y Y Y Y Y ",
"Y Y Y Y Y ",
"Z Z Z Z Z ",
"` ` ` ` ` ",
" . . . . .",
"..........",
"+.+.+.+.+.",
"@.@.@.@.@.",
"#.#.#.#.#.",
"#.#.#.#.#.",
"$.$.$.$.$.",
"%.%.%.%.%.",
"&.&.&.&.&.",
"&.&.&.&.&.",
"*.*.*.*.*.",
"=.=.=.=.=.",
"-.-.-.-.-.",
";.;.;.;.;.",
";.;.;.;.;.",
">.>.>.>.>.",
",.,.,.,.,.",
"'.'.'.'.'.",
").).).).).",
"!.!.!.!.!.",
"~.~.~.~.~.",
"{.{.{.{.{.",
"].].].].].",
"^.^.^.^.^.",
"/././././.",
"(.(.(.(.(.",
"_._._._._.",
":.:.:.:.:.",
"<.<.<.<.<.",
"[.[.[.[.[.",
"}.}.}.}.}.",
"|.|.|.|.|.",
"1.1.1.1.1.",
"2.2.2.2.2.",
"3.3.3.3.3.",
"4.4.4.4.4.",
"5.5.5.5.5.",
"6.6.6.6.6.",
"7.7.7.7.7.",
"8.8.8.8.8.",
"9.9.9.9.9.",
"0.0.0.0.0.",
"a.a.a.a.a.",
"b.b.b.b.b.",
"c.c.c.c.c.",
"d.d.d.d.d.",
"e.e.e.e.e.",
"f.f.f.f.f.",
"g.g.g.g.g.",
"h.h.h.h.h.",
"i.i.i.i.i.",
"j.j.j.j.j.",
"k.k.k.k.k.",
"l.l.l.l.l.",
"m.m.m.m.m.",
"n.n.n.n.n.",
"o.o.o.o.o.",
"p.p.p.p.p.",
"q.q.q.q.q.",
"r.r.r.r.r.",
"s.s.s.s.s.",
"t.t.t.t.t.",
"u.u.u.u.u.",
"v.v.v.v.v.",
"w.w.w.w.w.",
"x.x.x.x.x.",
"y.y.y.y.y.",
"z.z.z.z.z.",
"A.A.A.A.A.",
"B.B.B.B.B.",
"C.C.C.C.C.",
"D.D.D.D.D.",
"E.E.E.E.E.",
"F.F.F.F.F.",
"G.G.G.G.G.",
"H.H.H.H.H.",
"I.I.I.I.I.",
"J.J.J.J.J.",
"K.K.K.K.K.",
"L.L.L.L.L.",
"M.M.M.M.M.",
"N.N.N.N.N.",
"O.O.O.O.O.",
"P.P.P.P.P.",
"Q.Q.Q.Q.Q.",
"R.R.R.R.R.",
"S.S.S.S.S.",
"T.T.T.T.T.",
"U.U.U.U.U.",
"V.V.V.V.V.",
"W.W.W.W.W.",
"X.X.X.X.X.",
"Y.Y.Y.Y.Y.",
"Z.Z.Z.Z.Z.",
"`.`.`.`.`.",
" + + + + +",
".+.+.+.+.+",
"++++++++++",
"@+@+@+@+@+",
"#+#+#+#+#+",
"$+$+$+$+$+",
"%+%+%+%+%+",
"&+&+&+&+&+",
"*+*+*+*+*+",
"=+=+=+=+=+",
"-+-+-+-+-+",
";+;+;+;+;+",
">+>+>+>+>+",
",+,+,+,+,+",
"'+'+'+'+'+",
")+)+)+)+)+",
"!+!+!+!+!+",
"~+~+~+~+~+",
"{+{+{+{+{+",
"]+]+]+]+]+",
"^+^+^+^+^+",
"/+/+/+/+/+",
"(+(+(+(+(+",
"_+_+_+_+_+",
":+:+:+:+:+",
"<+<+<+<+<+",
"[+[+[+[+[+",
"}+}+}+}+}+",
"|+|+|+|+|+",
"1+1+1+1+1+",
"2+2+2+2+2+",
"3+3+3+3+3+",
"4+4+4+4+4+",
"5+5+5+5+5+",
"6+6+6+6+6+",
"7+7+7+7+7+",
"8+8+8+8+8+",
"9+9+9+9+9+",
"0+0+0+0+0+",
"a+a+a+a+a+",
"b+b+b+b+b+",
"c+c+c+c+c+",
"d+d+d+d+d+",
"e+e+e+e+e+",
"f+f+f+f+f+",
"g+g+g+g+g+"};
