/* XPM */
static char * vslider02_slider_xpm[] = {
"15 32 176 2",
"  	c None",
". 	c #999991",
"+ 	c #A1A198",
"@ 	c #A0A097",
"# 	c #9E9E95",
"$ 	c #9D9D94",
"% 	c #9C9C93",
"& 	c #9A9A92",
"* 	c #999990",
"= 	c #98988F",
"- 	c #96968E",
"; 	c #95958D",
"> 	c #94948B",
", 	c #93938A",
"' 	c #919189",
") 	c #575751",
"! 	c #97978F",
"~ 	c #A3A39A",
"{ 	c #A0A098",
"] 	c #9F9F96",
"^ 	c #989890",
"/ 	c #81817A",
"( 	c #3D3D39",
"_ 	c #94948C",
": 	c #B0B0A8",
"< 	c #C8C8C1",
"[ 	c #C7C7C1",
"} 	c #C7C7C0",
"| 	c #C6C6C0",
"1 	c #C6C6BF",
"2 	c #C5C5BF",
"3 	c #C5C5BE",
"4 	c #C4C4BD",
"5 	c #71716C",
"6 	c #3C3C38",
"7 	c #93938B",
"8 	c #8F8F87",
"9 	c #858580",
"0 	c #85857F",
"a 	c #84847F",
"b 	c #5C5C58",
"c 	c #3C3C39",
"d 	c #878781",
"e 	c #878782",
"f 	c #5A5A56",
"g 	c #3D3D3A",
"h 	c #94948F",
"i 	c #5B5B57",
"j 	c #3E3E3A",
"k 	c #9F9F9A",
"l 	c #A0A09A",
"m 	c #5C5C57",
"n 	c #3E3E3B",
"o 	c #92928A",
"p 	c #9B9B93",
"q 	c #AAAAA4",
"r 	c #AAAAA5",
"s 	c #3F3F3B",
"t 	c #B3B3AD",
"u 	c #B2B2AD",
"v 	c #B2B2AC",
"w 	c #3F3F3C",
"x 	c #929289",
"y 	c #9D9D95",
"z 	c #BABAB3",
"A 	c #BABAB4",
"B 	c #B9B9B3",
"C 	c #B8B8B2",
"D 	c #40403C",
"E 	c #9E9E96",
"F 	c #C0C0BA",
"G 	c #C0C0B9",
"H 	c #BFBFB9",
"I 	c #BFBFB8",
"J 	c #BEBEB8",
"K 	c #40403D",
"L 	c #909088",
"M 	c #C4C4BE",
"N 	c #C3C3BD",
"O 	c #C3C3BC",
"P 	c #C2C2BC",
"Q 	c #5B5B56",
"R 	c #41413D",
"S 	c #878780",
"T 	c #A1A19C",
"U 	c #A1A19D",
"V 	c #A0A09B",
"W 	c #4B4B47",
"X 	c #8E8E86",
"Y 	c #434340",
"Z 	c #323232",
"` 	c #333333",
" .	c #1D1D1C",
"..	c #8D8D85",
"+.	c #8C8C84",
"@.	c #A7A7A2",
"#.	c #A6A6A1",
"$.	c #A6A6A0",
"%.	c #A5A5A0",
"&.	c #8B8B83",
"*.	c #D1D1CA",
"=.	c #D0D0C9",
"-.	c #CFCFC9",
";.	c #CFCFC8",
">.	c #CECEC7",
",.	c #8A8A82",
"'.	c #D2D2CB",
").	c #D2D2CA",
"!.	c #898981",
"~.	c #9F9F97",
"{.	c #D0D0C8",
"].	c #5D5D59",
"^.	c #D1D1C9",
"/.	c #CFCFC7",
"(.	c #5F5F5A",
"_.	c #86867F",
":.	c #CECEC6",
"<.	c #CDCDC6",
"[.	c #CDCDC5",
"}.	c #60605B",
"|.	c #85857D",
"1.	c #A1A199",
"2.	c #CCCCC5",
"3.	c #CCCCC4",
"4.	c #CBCBC4",
"5.	c #CBCBC3",
"6.	c #CACAC3",
"7.	c #62625D",
"8.	c #83837C",
"9.	c #CACAC2",
"0.	c #C9C9C1",
"a.	c #C8C8C0",
"b.	c #C7C7BF",
"c.	c #64645F",
"d.	c #82827B",
"e.	c #A4A49B",
"f.	c #C5C5BD",
"g.	c #C4C4BC",
"h.	c #C3C3BB",
"i.	c #C2C2BA",
"j.	c #C1C1B9",
"k.	c #C0C0B8",
"l.	c #656560",
"m.	c #818179",
"n.	c #A5A59D",
"o.	c #BDBDB5",
"p.	c #BDBDB4",
"q.	c #BCBCB4",
"r.	c #BBBBB3",
"s.	c #BABAB2",
"t.	c #B9B9B1",
"u.	c #B8B8B0",
"v.	c #666661",
"w.	c #7F7F78",
"x.	c #B6B6AE",
"y.	c #B6B6AD",
"z.	c #B5B5AD",
"A.	c #B5B5AC",
"B.	c #B4B4AC",
"C.	c #B3B3AB",
"D.	c #B2B2AB",
"E.	c #B2B2AA",
"F.	c #B1B1A9",
"G.	c #696964",
"H.	c #7D7D76",
"I.	c #BEBEB7",
"J.	c #BDBDB7",
"K.	c #6E6E6A",
"L.	c #7B7B74",
"M.	c #60605A",
"N.	c #50504B",
"O.	c #4D4D49",
"P.	c #6B6B65",
"Q.	c #484844",
"R.	c #454541",
"S.	c #42423E",
". + @ # $ % & * = - ; > , ' ) ",
"! ~ { ] # $ % & . ^ ! - ; / ( ",
"_ : < < [ } } | 1 1 2 3 4 5 6 ",
"7 8 9 9 9 9 9 9 9 0 0 0 a b c ",
"7 8 d e e e e e e e e e d f g ",
"7 ; h h h h h h h h h h h i j ",
"7 ^ k k l l l l l l k k k m n ",
"o p q r r r r r r r q q q m s ",
"o $ t t t t t t t u v v v m w ",
"x y z A A A A B B B B C C i D ",
"' E F F F F F F G H H I J i K ",
"L E M M M M M 4 4 N N O P Q R ",
"8 E [ [ [ [ [ } } | | 1 2 f R ",
"8 S T U U U T T T T V V V W R ",
"X Y Z Z Z Z ` ` Z Z Z Z Z  .R ",
"..Y Z ` ` ` ` ` ` ` ` Z Z  .R ",
"+.S @.@.@.@.#.#.#.#.$.%.%.W R ",
"&.E *.*.*.*.=.=.=.-.;.;.>.i R ",
",.] '.'.'.).*.*.*.=.=.;.;.b R ",
"!.~.'.'.'.'.).*.*.=.=.{.;.].K ",
"S @ ).*.*.*.*.^.=.{.;./.>.(.D ",
"_.+ {.{.{.{.;././.>.:.<.[.}.w ",
"|.1.:.:.:.<.[.[.2.3.4.5.6.7.s ",
"8.~ 6.9.9.9.0.0.< a.} b.1 c.n ",
"d.e.f.g.g.g.h.h.i.i.j.j.k.l.j ",
"m.n.o.p.q.q.r.r.s.s.t.t.u.v.g ",
"w.e.x.x.y.z.A.B.C.C.D.E.F.G.c ",
"H.. J J J J J J J J I.J.J.K.6 ",
"L.M.N.N.N.N.N.N.N.N.N.N.N.O.6 ",
"P.Q.Q.Q.Q.Q.Q.Q.Q.Q.Q.Q.Q.Q.D ",
"O.R.R.R.R.R.R.R.R.R.R.R.R.R.S.",
"O.R.R.R.R.R.R.R.R.R.R.R.R.R.S."};
