/* XPM */
static const char * vslider_rail_xpm[] = {
"3 200 4 1",
" 	c None",
".	c #000000",
",  c #424242",
"+	c #969393",
".,+",
".,+",
".,+",
".,+",
".,+",
".,+",
".,+",
".,+",
".,+",
".,+",
".,+",
".,+",
".,+",
".,+",
".,+",
".,+",
".,+",
".,+",
".,+",
".,+",
".,+",
".,+",
".,+",
".,+",
".,+",
".,+",
".,+",
".,+",
".,+",
".,+",
".,+",
".,+",
".,+",
".,+",
".,+",
".,+",
".,+",
".,+",
".,+",
".,+",
".,+",
".,+",
".,+",
".,+",
".,+",
".,+",
".,+",
".,+",
".,+",
".,+",
".,+",
".,+",
".,+",
".,+",
".,+",
".,+",
".,+",
".,+",
".,+",
".,+",
".,+",
".,+",
".,+",
".,+",
".,+",
".,+",
".,+",
".,+",
".,+",
".,+",
".,+",
".,+",
".,+",
".,+",
".,+",
".,+",
".,+",
".,+",
".,+",
".,+",
".,+",
".,+",
".,+",
".,+",
".,+",
".,+",
".,+",
".,+",
".,+",
".,+",
".,+",
".,+",
".,+",
".,+",
".,+",
".,+",
".,+",
".,+",
".,+",
".,+",
".,+",
".,+",
".,+",
".,+",
".,+",
".,+",
".,+",
".,+",
".,+",
".,+",
".,+",
".,+",
".,+",
".,+",
".,+",
".,+",
".,+",
".,+",
".,+",
".,+",
".,+",
".,+",
".,+",
".,+",
".,+",
".,+",
".,+",
".,+",
".,+",
".,+",
".,+",
".,+",
".,+",
".,+",
".,+",
".,+",
".,+",
".,+",
".,+",
".,+",
".,+",
".,+",
".,+",
".,+",
".,+",
".,+",
".,+",
".,+",
".,+",
".,+",
".,+",
".,+",
".,+",
".,+",
".,+",
".,+",
".,+",
".,+",
".,+",
".,+",
".,+",
".,+",
".,+",
".,+",
".,+",
".,+",
".,+",
".,+",
".,+",
".,+",
".,+",
".,+",
".,+",
".,+",
".,+",
".,+",
".,+",
".,+",
".,+",
".,+",
".,+",
".,+",
".,+",
".,+",
".,+",
".,+",
".,+",
".,+",
".,+",
".,+",
".,+",
".,+",
".,+",
".,+",
".,+",
".,+",
".,+",
".,+",
".,+",
".,+"};
