/* XPM */
static char * vslider00_xpm[] = {
"16 32 162 2",
"  	c None",
". 	c #7B7B7B",
"+ 	c #6C6C6C",
"@ 	c #626262",
"# 	c #585858",
"$ 	c #505050",
"% 	c #4B4B4B",
"& 	c #494949",
"* 	c #8C8C8C",
"= 	c #8E8E8E",
"- 	c #858585",
"; 	c #787878",
"> 	c #6D6D6D",
", 	c #666666",
"' 	c #616161",
") 	c #5C5C5C",
"! 	c #5B5B5B",
"~ 	c #595959",
"{ 	c #555555",
"] 	c #959595",
"^ 	c #ACACAC",
"/ 	c #A0A0A0",
"( 	c #949494",
"_ 	c #8D8D8D",
": 	c #888888",
"< 	c #848484",
"[ 	c #7E7E7E",
"} 	c #7C7C7C",
"| 	c #7A7A7A",
"1 	c #797979",
"2 	c #757575",
"3 	c #676767",
"4 	c #474747",
"5 	c #9C9C9C",
"6 	c #C2C2C2",
"7 	c #BDBDBD",
"8 	c #B9B9B9",
"9 	c #B4B4B4",
"0 	c #B1B1B1",
"a 	c #AEAEAE",
"b 	c #ABABAB",
"c 	c #A8A8A8",
"d 	c #A6A6A6",
"e 	c #A5A5A5",
"f 	c #A4A4A4",
"g 	c #9A9A9A",
"h 	c #323232",
"i 	c #9F9F9F",
"j 	c #D6D6D6",
"k 	c #D2D2D2",
"l 	c #D3D3D3",
"m 	c #D4D4D4",
"n 	c #D5D5D5",
"o 	c #D1D1D1",
"p 	c #232323",
"q 	c #DFDFDF",
"r 	c #DBDBDB",
"s 	c #E0E0E0",
"t 	c #E4E4E4",
"u 	c #E6E6E6",
"v 	c #E2E2E2",
"w 	c #DDDDDD",
"x 	c #D8D8D8",
"y 	c #AAAAAA",
"z 	c #777777",
"A 	c #1A1A1A",
"B 	c #F3F3F3",
"C 	c #D7D7D7",
"D 	c #D9D9D9",
"E 	c #CDCDCD",
"F 	c #737373",
"G 	c #151515",
"H 	c #F2F2F2",
"I 	c #DADADA",
"J 	c #D0D0D0",
"K 	c #CFCFCF",
"L 	c #CBCBCB",
"M 	c #C3C3C3",
"N 	c #999999",
"O 	c #131313",
"P 	c #F1F1F1",
"Q 	c #CACACA",
"R 	c #C6C6C6",
"S 	c #C1C1C1",
"T 	c #BBBBBB",
"U 	c #B8B8B8",
"V 	c #B3B3B3",
"W 	c #707070",
"X 	c #111111",
"Y 	c #F0F0F0",
"Z 	c #BCBCBC",
"` 	c #B6B6B6",
" .	c #AFAFAF",
"..	c #929292",
"+.	c #828282",
"@.	c #6B6B6B",
"#.	c #101010",
"$.	c #CECECE",
"%.	c #C8C8C8",
"&.	c #BEBEBE",
"*.	c #A3A3A3",
"=.	c #9B9B9B",
"-.	c #919191",
";.	c #7F7F7F",
">.	c #0F0F0F",
",.	c #EDEDED",
"'.	c #CCCCCC",
").	c #C5C5C5",
"!.	c #C0C0C0",
"~.	c #BABABA",
"{.	c #A1A1A1",
"].	c #B5B5B5",
"^.	c #A2A2A2",
"/.	c #9E9E9E",
"(.	c #979797",
"_.	c #C7C7C7",
":.	c #C4C4C4",
"<.	c #C9C9C9",
"[.	c #8A8A8A",
"}.	c #989898",
"|.	c #7D7D7D",
"1.	c #747474",
"2.	c #6F6F6F",
"3.	c #0B0B0B",
"4.	c #868686",
"5.	c #2C2C2C",
"6.	c #0E0E0E",
"7.	c #0D0D0D",
"8.	c #0C0C0C",
"9.	c #090909",
"0.	c #010101",
"a.	c #878787",
"b.	c #353535",
"c.	c #141414",
"d.	c #020202",
"e.	c #8F8F8F",
"f.	c #8B8B8B",
"g.	c #838383",
"h.	c #606060",
"i.	c #E3E3E3",
"j.	c #727272",
"k.	c #A7A7A7",
"l.	c #DEDEDE",
"m.	c #BFBFBF",
"n.	c #B0B0B0",
"o.	c #6A6A6A",
"p.	c #F4F4F4",
"q.	c #B7B7B7",
"r.	c #696969",
"s.	c #B2B2B2",
"t.	c #6E6E6E",
"u.	c #A9A9A9",
"v.	c #909090",
"w.	c #ADADAD",
"x.	c #646464",
"y.	c #656565",
"z.	c #5A5A5A",
"A.	c #545454",
"B.	c #484848",
"C.	c #404040",
"D.	c #3E3E3E",
"E.	c #0A0A0A",
"  . + @ # $ % % % % % % % % &   ",
"* = - ; > , ' ) ) ! ! ! ! ~ { ~ ",
"] ^ / ( _ : < [ } . | | 1 2 3 4 ",
"5 6 7 8 9 0 a b c d e e f g 2 h ",
"i j k k l m n n n n m m o 9 } p ",
"/ q r s t u u u v w r x m y z A ",
"e B C j x x x x D D n o E / F G ",
"e H j I r D j m k J K L M N F O ",
"e P o o K Q R S 7 T U V d * W X ",
"e Y K E Q R S Z `  .c / ..+.@.#.",
"e P $.L %.M &.U 0 y *.=.-.;., >.",
"f ,.'.).!.~.9 a c {.=.( * < W #.",
"{.s E &.]. .y c e ^.i /.(.+.+ #.",
"*.u L _.%.M :.:.R <._.S V [.@.#.",
"}./.+.|.;.. | ; z z 1.2.3 # 4 3.",
"4.5.#.#.#.>.>.>.6.6.6.7.8.3.9.0.",
"a.b.c.c.c.c.c.c.c.c.c.c.c.c.6.d.",
"}.*.e.e.e.e.= _ _ * f.[.: g.h.7.",
"*.i._.)._._.:.6 S &.T ` y ] j.#.",
"/ w %.].` ` ].9 9 V 0  .k._ @.#.",
"/ l.K ).M 6 S !.!.m.&.~.n.= o.#.",
"e P m J E E L Q Q <._.6 ` -.3 >.",
"e p.D J '.'.L Q <.%.).6 q.] r.>.",
"e B J T s.0 0 s.V s.s. .f - 3 >.",
"e H l E %.R R %.<.<.%.S s._ @.#.",
"e B C k K E '.L L '.'._.T =.t.>.",
"e B %.` ]. .b u.c k.k.k.e v.r.>.",
"e Y Q S ~.` s. .w.^ ^ b ^.- o.#.",
"^.w ~.0 ^ k.^./.=.N }.}.e.2 x.>.",
"( /.- 1 t.r.3 y.y.x.x.x.' # z.>.",
"~ 3 A.B.C.D.D.D.D.D.D.D.D.D.% 7.",
"  c.8.E.9.9.9.9.9.9.9.9.9.9.3.d."};
