/* XPM */
static char * vslider01_xpm[] = {
"3 200 3 1",
" 	c None",
".	c #000000",
"+	c #969393",
"..+",
"..+",
"..+",
"..+",
"..+",
"..+",
"..+",
"..+",
"..+",
"..+",
"..+",
"..+",
"..+",
"..+",
"..+",
"..+",
"..+",
"..+",
"..+",
"..+",
"..+",
"..+",
"..+",
"..+",
"..+",
"..+",
"..+",
"..+",
"..+",
"..+",
"..+",
"..+",
"..+",
"..+",
"..+",
"..+",
"..+",
"..+",
"..+",
"..+",
"..+",
"..+",
"..+",
"..+",
"..+",
"..+",
"..+",
"..+",
"..+",
"..+",
"..+",
"..+",
"..+",
"..+",
"..+",
"..+",
"..+",
"..+",
"..+",
"..+",
"..+",
"..+",
"..+",
"..+",
"..+",
"..+",
"..+",
"..+",
"..+",
"..+",
"..+",
"..+",
"..+",
"..+",
"..+",
"..+",
"..+",
"..+",
"..+",
"..+",
"..+",
"..+",
"..+",
"..+",
"..+",
"..+",
"..+",
"..+",
"..+",
"..+",
"..+",
"..+",
"..+",
"..+",
"..+",
"..+",
"..+",
"..+",
"..+",
"..+",
"..+",
"..+",
"..+",
"..+",
"..+",
"..+",
"..+",
"..+",
"..+",
"..+",
"..+",
"..+",
"..+",
"..+",
"..+",
"..+",
"..+",
"..+",
"..+",
"..+",
"..+",
"..+",
"..+",
"..+",
"..+",
"..+",
"..+",
"..+",
"..+",
"..+",
"..+",
"..+",
"..+",
"..+",
"..+",
"..+",
"..+",
"..+",
"..+",
"..+",
"..+",
"..+",
"..+",
"..+",
"..+",
"..+",
"..+",
"..+",
"..+",
"..+",
"..+",
"..+",
"..+",
"..+",
"..+",
"..+",
"..+",
"..+",
"..+",
"..+",
"..+",
"..+",
"..+",
"..+",
"..+",
"..+",
"..+",
"..+",
"..+",
"..+",
"..+",
"..+",
"..+",
"..+",
"..+",
"..+",
"..+",
"..+",
"..+",
"..+",
"..+",
"..+",
"..+",
"..+",
"..+",
"..+",
"..+",
"..+",
"..+",
"..+",
"..+",
"..+",
"..+",
"..+",
"..+",
"..+",
"..+",
"..+",
"..+",
"..+"};
