/* XPM */
static char * zoom_full_xpm[] = {
"12 12 14 1",
" 	c None",
".	c #000000",
"+	c #474747",
"@	c #E7E7E7",
"#	c #F6F6F6",
"$	c #DCDCDC",
"%	c #FFFFFF",
"&	c #DFDFDF",
"*	c #D7D7D7",
"=	c #D6D6D6",
"-	c #040404",
";	c #070707",
">	c #060606",
",	c #050505",
"   ...      ",
" +.@#$.+    ",
" .%%.%%.    ",
".&%..%%*.   ",
".#%%.%%#.   ",
".$%%.%%&.   ",
" .%...%.+   ",
" +.*#=...   ",
"   ...+...  ",
"        -.; ",
"         >.-",
"          ,."};
