<?xml version="1.0" encoding="UTF-8" standalone="no"?>
<!-- Created with Sodipodi ("http://www.sodipodi.com/") -->

<svg
   xmlns:dc="http://purl.org/dc/elements/1.1/"
   xmlns:cc="http://creativecommons.org/ns#"
   xmlns:rdf="http://www.w3.org/1999/02/22-rdf-syntax-ns#"
   xmlns:svg="http://www.w3.org/2000/svg"
   xmlns="http://www.w3.org/2000/svg"
   xmlns:sodipodi="http://sodipodi.sourceforge.net/DTD/sodipodi-0.dtd"
   xmlns:inkscape="http://www.inkscape.org/namespaces/inkscape"
   xml:space="preserve"
   width="257mm"
   height="95mm"
   style="shape-rendering:geometricPrecision; text-rendering:geometricPrecision; image-rendering:optimizeQuality; fill-rule:evenodd"
   viewBox="0 0 8268 11692"
   id="svg2"
   sodipodi:version="0.34"
   inkscape:version="0.47 r22583"
   sodipodi:docname="Notes.svg"
   version="1.1"><metadata
     id="metadata34"><rdf:RDF><cc:Work
         rdf:about=""><dc:format>image/svg+xml</dc:format><dc:type
           rdf:resource="http://purl.org/dc/dcmitype/StillImage" /><dc:title></dc:title></cc:Work></rdf:RDF></metadata><sodipodi:namedview
     inkscape:window-height="1155"
     inkscape:window-width="1643"
     inkscape:pageshadow="2"
     inkscape:pageopacity="0.0"
     borderopacity="1.0"
     bordercolor="#666666"
     pagecolor="#ffffff"
     id="base"
     inkscape:zoom="2.0103972"
     inkscape:cx="534.71016"
     inkscape:cy="281.79409"
     inkscape:window-x="82"
     inkscape:window-y="0"
     inkscape:current-layer="svg2"
     showgrid="false"
     inkscape:window-maximized="0" /><defs
     id="defs4"><inkscape:perspective
       sodipodi:type="inkscape:persp3d"
       inkscape:vp_x="0 : 168.30708 : 1"
       inkscape:vp_y="0 : 1000 : 0"
       inkscape:vp_z="910.62994 : 168.30708 : 1"
       inkscape:persp3d-origin="455.31497 : 112.20472 : 1"
       id="perspective20" /><style
       type="text/css"
       id="style6">
   
    .str1 {stroke:#131516;stroke-width:3}
    .str0 {stroke:#131516;stroke-width:42}
    .fil0 {fill:none}
    .fil1 {fill:#131516}
   
  </style></defs><path
     style="fill:none;stroke:#131516;stroke-width:132.11592102"
     id="path17"
     d="m -11065.602,11076.63 30399.205,0"
     class="fil0 str0" /><path
     style="fill:#131516;stroke:#131516;stroke-width:9.4368515"
     id="path25"
     d="m 4431.786,2945.0013 150.4601,0 c 37.615,239.9083 84.6338,441.9363 147.3255,606.0841 59.5571,160.9911 131.6525,299.8854 210.0172,416.6828 81.4992,116.7975 203.748,265.1618 366.7464,448.2497 162.9984,183.0879 291.5164,337.7657 391.8231,467.1899 300.9202,388.2726 451.3803,795.4853 451.3803,1218.4815 0,435.623 -181.806,965.9466 -551.687,1590.9708 l -100.3067,0 c 47.0188,-110.4841 103.4413,-236.7516 166.133,-378.8026 59.5571,-145.2076 112.8451,-274.6318 156.7292,-391.4293 40.7496,-116.7974 75.2301,-233.5949 100.3068,-350.3924 21.9421,-116.7974 34.4804,-230.4382 34.4804,-344.079 0,-179.9312 -34.4804,-359.8624 -106.5759,-539.7936 -72.0954,-183.0879 -175.5368,-350.3924 -304.0547,-505.0701 -131.6526,-154.6777 -278.9781,-277.7885 -445.1111,-375.6459 -166.133,-94.7006 -338.5352,-148.3643 -517.2065,-157.8344 l 0,3573.3709 c 0,202.028 -59.5572,385.1159 -184.9406,542.9503 -122.2488,157.8344 -282.1126,280.9452 -476.4569,366.1758 -191.2097,85.2306 -382.4193,126.2675 -573.629,126.2675 -181.806,0 -335.4006,-47.3503 -457.6494,-138.8942 -119.1143,-91.544 -181.806,-227.2816 -181.806,-404.0561 0,-186.2446 62.6917,-359.8624 184.9406,-520.8535 122.2488,-157.8344 278.978,-284.1019 467.0531,-375.6459 188.0751,-91.544 369.881,-138.8943 545.4178,-138.8943 244.4976,0 420.0344,47.3503 526.6103,145.2077 l 0,-3226.1352 0,-1654.1045 z"
     class="fil1 str1" /></svg>