<?xml version="1.0" encoding="UTF-8" standalone="no"?>
<!-- Created with Sodipodi ("http://www.sodipodi.com/") -->

<svg
   xmlns:dc="http://purl.org/dc/elements/1.1/"
   xmlns:cc="http://creativecommons.org/ns#"
   xmlns:rdf="http://www.w3.org/1999/02/22-rdf-syntax-ns#"
   xmlns:svg="http://www.w3.org/2000/svg"
   xmlns="http://www.w3.org/2000/svg"
   xmlns:sodipodi="http://sodipodi.sourceforge.net/DTD/sodipodi-0.dtd"
   xmlns:inkscape="http://www.inkscape.org/namespaces/inkscape"
   xml:space="preserve"
   width="257mm"
   height="95mm"
   style="shape-rendering:geometricPrecision; text-rendering:geometricPrecision; image-rendering:optimizeQuality; fill-rule:evenodd"
   viewBox="0 0 8268 11692"
   id="svg2"
   sodipodi:version="0.34"
   inkscape:version="0.47 r22583"
   sodipodi:docname="Notes.svg"
   version="1.1"><metadata
     id="metadata34"><rdf:RDF><cc:Work
         rdf:about=""><dc:format>image/svg+xml</dc:format><dc:type
           rdf:resource="http://purl.org/dc/dcmitype/StillImage" /><dc:title></dc:title></cc:Work></rdf:RDF></metadata><sodipodi:namedview
     inkscape:window-height="1155"
     inkscape:window-width="1643"
     inkscape:pageshadow="2"
     inkscape:pageopacity="0.0"
     borderopacity="1.0"
     bordercolor="#666666"
     pagecolor="#ffffff"
     id="base"
     inkscape:zoom="2.0103972"
     inkscape:cx="534.71016"
     inkscape:cy="281.79409"
     inkscape:window-x="82"
     inkscape:window-y="0"
     inkscape:current-layer="svg2"
     showgrid="false"
     inkscape:window-maximized="0" /><defs
     id="defs4"><inkscape:perspective
       sodipodi:type="inkscape:persp3d"
       inkscape:vp_x="0 : 168.30708 : 1"
       inkscape:vp_y="0 : 1000 : 0"
       inkscape:vp_z="910.62994 : 168.30708 : 1"
       inkscape:persp3d-origin="455.31497 : 112.20472 : 1"
       id="perspective20" /><style
       type="text/css"
       id="style6">
   
    .str1 {stroke:#131516;stroke-width:3}
    .str0 {stroke:#131516;stroke-width:42}
    .fil0 {fill:none}
    .fil1 {fill:#131516}
   
  </style></defs><path
     style="fill:none;stroke:#131516;stroke-width:132.11592102"
     id="path17"
     d="m -11065.602,11076.63 30399.205,0"
     class="fil0 str0" /><path
     style="fill:#131516;stroke:#131516;stroke-width:9.4368515"
     id="path19"
     d="m -3039.4604,7768.4206 0,-4810.7925 150.4601,0 0,5366.3696 c -3.1346,170.4611 -68.9609,331.4522 -197.4789,486.1299 -128.5179,154.6777 -282.1126,280.9453 -467.0531,375.6459 -181.8059,91.544 -354.2081,142.051 -514.072,148.3643 -166.133,0 -297.7855,-22.0968 -398.0923,-63.1337 -97.1721,-41.037 -169.2675,-110.4841 -216.2863,-211.4981 -43.8842,-101.014 -68.9609,-243.065 -68.9609,-422.9962 6.2692,-192.558 72.0955,-366.1758 200.6135,-520.8535 131.6525,-151.5211 294.6509,-271.4752 488.9952,-359.8625 194.3443,-85.2305 385.554,-126.2675 570.4945,-126.2675 178.6713,0 329.1314,44.1937 451.3802,138.8943 z m -1122.1814,580.8306 c -65.8263,41.0369 -150.4601,123.1108 -253.9014,246.2216 -103.4413,123.1109 -159.8638,227.2816 -166.133,315.6688 12.5383,88.3873 68.9609,142.051 162.9984,164.1478 94.0376,0 216.2864,-31.5669 366.7465,-94.7006 147.3255,-59.9771 291.5164,-145.2077 429.4381,-252.5351 90.903,-59.977 206.8826,-167.3044 344.8044,-318.8254 137.9217,-151.5211 206.8826,-274.6319 206.8826,-369.3325 0,-88.3873 -43.8842,-142.051 -137.9218,-164.1478 -228.8247,0 -545.4178,157.8344 -952.9138,473.5032 z"
     class="fil1 str1" /></svg>