<?xml version="1.0" encoding="UTF-8" standalone="no"?>
<!-- Created with Inkscape (http://www.inkscape.org/) -->

<svg
   xmlns:dc="http://purl.org/dc/elements/1.1/"
   xmlns:cc="http://creativecommons.org/ns#"
   xmlns:rdf="http://www.w3.org/1999/02/22-rdf-syntax-ns#"
   xmlns:svg="http://www.w3.org/2000/svg"
   xmlns="http://www.w3.org/2000/svg"
   xmlns:sodipodi="http://sodipodi.sourceforge.net/DTD/sodipodi-0.dtd"
   xmlns:inkscape="http://www.inkscape.org/namespaces/inkscape"
   version="1.0"
   width="454.99899"
   height="455"
   viewBox="-9.302 -9.782 454.999 455"
   id="Layer_1"
   xml:space="preserve"
   inkscape:version="0.47 r22583"
   sodipodi:docname="midi_socket.svg"
   inkscape:export-filename="/tmp/DIN-5c_Diagram.png"
   inkscape:export-xdpi="3.46"
   inkscape:export-ydpi="3.46"><metadata
   id="metadata13"><rdf:RDF><cc:Work
       rdf:about=""><dc:format>image/svg+xml</dc:format><dc:type
         rdf:resource="http://purl.org/dc/dcmitype/StillImage" /><dc:title></dc:title></cc:Work></rdf:RDF></metadata><sodipodi:namedview
   pagecolor="#ffffff"
   bordercolor="#666666"
   borderopacity="1"
   objecttolerance="10"
   gridtolerance="10"
   guidetolerance="10"
   inkscape:pageopacity="0"
   inkscape:pageshadow="2"
   inkscape:window-width="1298"
   inkscape:window-height="879"
   id="namedview11"
   showgrid="false"
   inkscape:zoom="1.0373626"
   inkscape:cx="-141.70601"
   inkscape:cy="219.78814"
   inkscape:window-x="294"
   inkscape:window-y="77"
   inkscape:window-maximized="0"
   inkscape:current-layer="Layer_1"
   inkscape:snap-grids="false" /><defs
   id="defs4733"><inkscape:perspective
     sodipodi:type="inkscape:persp3d"
     inkscape:vp_x="0 : 227.5 : 1"
     inkscape:vp_y="0 : 1000 : 0"
     inkscape:vp_z="454.99899 : 227.5 : 1"
     inkscape:persp3d-origin="227.4995 : 151.66667 : 1"
     id="perspective15" /></defs>
<path
   style="fill:#ffffff;stroke:#000000;stroke-width:5;fill-opacity:1"
   d="M 227 28.5 C 117.377 28.5 28.5 117.376 28.5 227 C 28.5 336.631 117.377 425.5 227 425.5 C 336.626 425.5 425.5 336.631 425.5 227 C 425.5 117.376 336.628 28.5 227 28.5 z M 227 45.125 C 327.447 45.125 408.873 126.557 408.875 227 C 408.875 314.806 346.64 388.073 263.875 405.125 C 261.386 386.958 245.838 372.9375 227 372.9375 C 208.148 372.9375 192.617 386.959 190.125 405.125 C 107.363 388.079 45.125 314.806 45.125 227 C 45.125 126.557 126.552 45.125 227 45.125 z "
   transform="translate(-9.302,-9.7820035)"
   id="path4718" />

<path
   d="m 72.890542,234.80485 c 6.946,12.03 22.327,16.147 34.354998,9.202 12.032,-6.946 16.152,-22.324 9.207,-34.353 -6.941,-12.023 -22.320998,-16.148 -34.353998,-9.202 -12.028,6.946 -16.15,22.331 -9.208,34.353 z"
   style="fill:#ffffff;fill-opacity:1;stroke:#000000;stroke-width:5"
   id="path4722" />
<path
   d="m 147.298,155.36437 c 6.946,-12.03 2.821,-27.409 -9.207,-34.353 -12.032,-6.947 -27.408,-2.825 -34.354,9.203 -6.941,12.023 -2.824,27.405 9.207,34.352 12.03,6.944 27.412,2.821 34.354,-9.202 z"
   style="fill:#ffffff;fill-opacity:1;stroke:#000000;stroke-width:5"
   id="path4724" />
<path
   d="m 217.693,128.21914 c 13.891,0 25.147,-11.262 25.147,-25.15 0,-13.895005 -11.258,-25.149005 -25.147,-25.149005 -13.883,0 -25.146,11.257 -25.146,25.149005 0.001,13.889 11.263,25.15 25.146,25.15 z"
   style="fill:#ffffff;fill-opacity:1;stroke:#000000;stroke-width:5"
   id="path4726" />
<path
   d="m 293.8699,152.47142 c 6.946,12.03 22.327,16.147 34.354,9.203 12.033,-6.947 16.151,-22.324 9.206,-34.353 -6.941,-12.023 -22.321,-16.148 -34.353,-9.202 -12.027,6.946 -16.148,22.33 -9.207,34.352 z"
   style="fill:#ffffff;fill-opacity:1;stroke:#000000;stroke-width:5"
   id="path4728" />
<path
   style="fill:#ffffff;fill-opacity:1;stroke:#000000;stroke-width:5"
   d="m 346.90245,195.1555 c -8.49192,0.18976 -16.66109,4.66913 -21.21875,12.5625 -6.941,12.022 -2.81325,27.428 9.21875,34.375 12.029,6.945 27.40275,2.80525 34.34375,-9.21875 6.946,-12.03 2.81025,-27.39775 -9.21875,-34.34375 -4.136,-2.38769 -8.67685,-3.4744 -13.125,-3.375 z"
   id="path4730" />
</svg>