<?xml version="1.0" encoding="UTF-8" standalone="no"?>
<!-- Created with Inkscape (http://www.inkscape.org/) -->

<svg
   xmlns:dc="http://purl.org/dc/elements/1.1/"
   xmlns:cc="http://creativecommons.org/ns#"
   xmlns:rdf="http://www.w3.org/1999/02/22-rdf-syntax-ns#"
   xmlns:svg="http://www.w3.org/2000/svg"
   xmlns="http://www.w3.org/2000/svg"
   xmlns:sodipodi="http://sodipodi.sourceforge.net/DTD/sodipodi-0.dtd"
   xmlns:inkscape="http://www.inkscape.org/namespaces/inkscape"
   version="1.0"
   width="454.99899"
   height="455"
   viewBox="-9.302 -9.782 454.999 455"
   id="Layer_1"
   xml:space="preserve"
   inkscape:version="0.47 r22583"
   sodipodi:docname="DIN-5c_Diagram.svg"
   inkscape:export-filename="/tmp/DIN-5c_Diagram.png"
   inkscape:export-xdpi="4.48"
   inkscape:export-ydpi="4.48"><metadata
   id="metadata13"><rdf:RDF><cc:Work
       rdf:about=""><dc:format>image/svg+xml</dc:format><dc:type
         rdf:resource="http://purl.org/dc/dcmitype/StillImage" /><dc:title></dc:title></cc:Work></rdf:RDF></metadata><sodipodi:namedview
   pagecolor="#ffffff"
   bordercolor="#666666"
   borderopacity="1"
   objecttolerance="10"
   gridtolerance="10"
   guidetolerance="10"
   inkscape:pageopacity="0"
   inkscape:pageshadow="2"
   inkscape:window-width="1298"
   inkscape:window-height="879"
   id="namedview11"
   showgrid="false"
   inkscape:zoom="0.51868132"
   inkscape:cx="-144.59796"
   inkscape:cy="223.64407"
   inkscape:window-x="435"
   inkscape:window-y="77"
   inkscape:window-maximized="0"
   inkscape:current-layer="Layer_1" /><defs
   id="defs4733"><inkscape:perspective
     sodipodi:type="inkscape:persp3d"
     inkscape:vp_x="0 : 227.5 : 1"
     inkscape:vp_y="0 : 1000 : 0"
     inkscape:vp_z="454.99899 : 227.5 : 1"
     inkscape:persp3d-origin="227.4995 : 151.66667 : 1"
     id="perspective15" /></defs>
<path
   style="fill:#ffffff;stroke:#000000;stroke-width:5;fill-opacity:1"
   d="M 227 28.5 C 117.377 28.5 28.5 117.376 28.5 227 C 28.5 336.631 117.377 425.5 227 425.5 C 336.626 425.5 425.5 336.631 425.5 227 C 425.5 117.376 336.628 28.5 227 28.5 z M 227 45.125 C 327.447 45.125 408.873 126.557 408.875 227 C 408.875 314.806 346.64 388.073 263.875 405.125 C 261.386 386.958 245.838 372.9375 227 372.9375 C 208.148 372.9375 192.617 386.959 190.125 405.125 C 107.363 388.079 45.125 314.806 45.125 227 C 45.125 126.557 126.552 45.125 227 45.125 z "
   transform="translate(-9.302,-9.7820035)"
   id="path4718" />

<path
   d="M 103.738,283.004 C 110.684,295.034 126.065,299.151 138.093,292.206 C 150.125,285.26 154.245,269.882 147.3,257.853 C 140.359,245.83 124.979,241.705 112.946,248.651 C 100.918,255.597 96.796,270.982 103.738,283.004 z "
   style="fill:#ffffff;stroke:#000000;stroke-width:5;fill-opacity:1"
   id="path4722" />
<path
   d="M 147.298,176.572 C 154.244,164.542 150.119,149.163 138.091,142.219 C 126.059,135.272 110.683,139.394 103.737,151.422 C 96.796,163.445 100.913,178.827 112.944,185.774 C 124.974,192.718 140.356,188.595 147.298,176.572 z "
   style="fill:#ffffff;stroke:#000000;stroke-width:5;fill-opacity:1"
   id="path4724" />
<path
   d="M 217.693,135.931 C 231.584,135.931 242.84,124.669 242.84,110.781 C 242.84,96.886 231.582,85.632 217.693,85.632 C 203.81,85.632 192.547,96.889 192.547,110.781 C 192.548,124.67 203.81,135.931 217.693,135.931 z "
   style="fill:#ffffff;stroke:#000000;stroke-width:5;fill-opacity:1"
   id="path4726" />
<path
   d="M 288.086,176.571 C 295.032,188.601 310.413,192.718 322.44,185.774 C 334.473,178.827 338.591,163.45 331.646,151.421 C 324.705,139.398 309.325,135.273 297.293,142.219 C 285.266,149.165 281.145,164.549 288.086,176.571 z "
   style="fill:#ffffff;stroke:#000000;stroke-width:5;fill-opacity:1"
   id="path4728" />
<path
   d="M 331.646,283.005 C 338.592,270.975 334.467,255.597 322.438,248.651 C 310.406,241.705 295.029,245.826 288.084,257.854 C 281.143,269.876 285.26,285.259 297.292,292.206 C 309.321,299.151 324.705,295.029 331.646,283.005 z "
   style="fill:#ffffff;stroke:#000000;stroke-width:5;fill-opacity:1"
   id="path4730" />
</svg>