<?xml version="1.0" encoding="UTF-8" standalone="no"?>
<!-- Created with Inkscape (http://www.inkscape.org/) -->

<svg
   xmlns:dc="http://purl.org/dc/elements/1.1/"
   xmlns:cc="http://creativecommons.org/ns#"
   xmlns:rdf="http://www.w3.org/1999/02/22-rdf-syntax-ns#"
   xmlns:svg="http://www.w3.org/2000/svg"
   xmlns="http://www.w3.org/2000/svg"
   xmlns:sodipodi="http://sodipodi.sourceforge.net/DTD/sodipodi-0.dtd"
   xmlns:inkscape="http://www.inkscape.org/namespaces/inkscape"
   version="1.0"
   width="163.19196"
   height="112.74567"
   id="svg2"
   inkscape:version="0.47 r22583"
   sodipodi:docname="Music_dynamic_mezzo_forte.svg"
   inkscape:export-filename="/tmp/mezzoforte.png"
   inkscape:export-xdpi="11.973853"
   inkscape:export-ydpi="11.973853">
  <metadata
     id="metadata2842">
    <rdf:RDF>
      <cc:Work
         rdf:about="">
        <dc:format>image/svg+xml</dc:format>
        <dc:type
           rdf:resource="http://purl.org/dc/dcmitype/StillImage" />
        <dc:title></dc:title>
      </cc:Work>
    </rdf:RDF>
  </metadata>
  <sodipodi:namedview
     pagecolor="#ffffff"
     bordercolor="#666666"
     borderopacity="1"
     objecttolerance="10"
     gridtolerance="10"
     guidetolerance="10"
     inkscape:pageopacity="0"
     inkscape:pageshadow="2"
     inkscape:window-width="640"
     inkscape:window-height="480"
     id="namedview2840"
     showgrid="false"
     inkscape:zoom="2.1109459"
     inkscape:cx="81.595978"
     inkscape:cy="56.372833"
     inkscape:window-x="2453"
     inkscape:window-y="112"
     inkscape:window-maximized="0"
     inkscape:current-layer="svg2" />
  <defs
     id="defs4">
    <inkscape:perspective
       sodipodi:type="inkscape:persp3d"
       inkscape:vp_x="0 : 56.372833 : 1"
       inkscape:vp_y="0 : 1000 : 0"
       inkscape:vp_z="163.19196 : 56.372833 : 1"
       inkscape:persp3d-origin="81.595978 : 37.581889 : 1"
       id="perspective2844" />
  </defs>
  <g
     transform="translate(-297.02949,-476.66)"
     id="layer1"
     style="fill:#ffffff">
    <path
       d="M 297.02949,532.94571 C 297.05128,533.90053 297.35623,534.60482 297.94435,535.0586 C 298.53248,535.51242 299.27309,535.73751 300.16615,535.73386 C 301.33878,535.73751 302.47872,535.38173 303.58599,534.66651 C 304.69327,533.95135 305.52826,532.85497 306.09097,531.37738 C 307.09296,528.15361 308.61772,524.88625 310.66527,521.57529 C 312.71281,518.26441 315.02174,516.47825 317.59207,516.21683 C 318.37259,516.2314 318.9462,516.50731 319.31288,517.04456 C 319.67953,517.5819 319.86105,518.29346 319.85744,519.17924 C 319.82838,520.05057 319.71221,520.92186 319.50892,521.79312 L 309.05337,552.11422 C 308.90815,552.637 308.85007,553.15978 308.87911,553.68255 C 308.88637,554.57563 309.1768,555.31623 309.75041,555.90435 C 310.32401,556.49248 311.13722,556.79743 312.19004,556.81921 L 316.02374,556.81921 C 317.3815,556.78654 318.67392,556.32911 319.901,555.44692 C 321.12807,554.56474 321.98484,553.45384 322.47133,552.11422 L 332.75262,521.79312 C 333.33345,520.341 334.3064,519.0631 335.67146,517.95942 C 337.03646,516.85582 338.44505,516.27496 339.89724,516.21683 C 340.67774,516.23502 341.25135,516.50367 341.61805,517.02278 C 341.98468,517.54197 342.1662,518.2027 342.16261,519.00498 C 342.16258,519.44792 342.11901,519.91261 342.03192,520.39905 C 341.94475,520.88556 341.81406,521.35025 341.63983,521.79312 L 333.10113,552.11422 C 333.01035,552.36835 332.93048,552.60069 332.86152,552.81125 C 332.79252,553.02182 332.75622,553.25417 332.75262,553.50829 C 332.76348,554.48487 333.09022,555.27629 333.73283,555.88257 C 334.37538,556.48884 335.26846,556.80106 336.41206,556.81921 L 340.24576,556.81921 C 341.59986,556.78654 342.85598,556.32911 344.01411,555.44692 C 345.17217,554.56474 345.94908,553.45384 346.34483,552.11422 L 355.05779,521.79312 C 355.55873,520.341 356.47359,519.0631 357.80237,517.95942 C 359.13105,516.85582 360.48155,516.27496 361.8539,516.21683 C 362.71788,516.23865 363.3423,516.54361 363.72718,517.13169 C 364.11195,517.71986 364.30073,518.46046 364.29352,519.3535 C 364.26442,520.07961 364.14825,520.89282 363.945,521.79312 L 357.1489,550.54588 C 356.94554,551.21389 356.82937,551.96901 356.80038,552.81125 C 356.80396,554.49939 357.27591,555.87168 358.21624,556.92812 C 359.15646,557.98457 360.54327,558.52913 362.37667,558.56181 C 368.80968,558.12979 374.71996,555.98785 380.10754,552.136 C 385.49497,548.28416 388.35573,545.31449 388.6898,543.227 C 388.67157,542.43196 388.40292,541.80027 387.88385,541.33193 C 387.36463,540.86362 386.7039,540.62402 385.90166,540.61311 C 384.20981,540.90356 382.32201,542.06529 380.23823,544.0983 C 378.15431,546.13133 376.09225,547.29306 374.05204,547.58348 C 373.69619,547.57986 373.40576,547.45642 373.18074,547.21317 C 372.95559,546.96995 372.83942,546.62869 372.83222,546.18941 C 372.80311,545.98611 372.8612,545.69568 373.00648,545.31811 L 379.10555,519.3535 C 379.19624,518.91063 379.2761,518.44594 379.34515,517.95942 C 379.41406,517.47299 379.45037,517.0083 379.45407,516.56535 C 379.39228,513.38153 378.4266,510.55708 376.55701,508.09199 C 374.68728,505.627 372.28396,504.32732 369.34704,504.19295 C 366.79481,504.21841 364.27531,504.82106 361.78854,506.00089 C 359.30167,507.18081 357,508.78545 354.88353,510.8148 C 354.35707,508.86169 353.49304,507.27883 352.29142,506.06623 C 351.08972,504.85373 349.57221,504.2293 347.7389,504.19295 C 345.18669,504.21479 342.6672,504.78113 340.18041,505.89198 C 337.69355,507.00293 335.39189,508.5277 333.27539,510.46628 C 332.75259,508.60393 331.92486,507.10095 330.7922,505.95732 C 329.65949,504.8138 328.22185,504.22568 326.47929,504.19295 C 320.5749,504.47053 315.42243,506.64554 311.02185,510.71798 C 306.62127,514.79053 303.19848,519.09537 300.75347,523.63252 C 298.30847,528.16974 297.06715,531.27413 297.02949,532.94571 L 297.02949,532.94571 z M 427.62955,518.30794 L 437.91084,518.30794 C 439.34116,518.27167 440.53193,517.77794 441.48315,516.82674 C 442.43425,515.87561 442.92799,514.68484 442.96435,513.25443 C 442.92799,511.82409 442.43425,510.63332 441.48315,509.68211 C 440.53193,508.73099 439.34116,508.23726 437.91084,508.20091 L 430.59195,508.20091 C 431.77179,502.95504 433.37642,498.11209 435.40586,493.67205 C 437.4352,489.23214 440.65173,486.87238 445.05546,486.59277 L 446.27528,486.59277 C 447.27357,486.56744 448.15213,486.66183 448.91094,486.87595 C 449.66963,487.09021 450.06897,487.57668 450.10898,488.33537 C 449.833,490.77143 448.72936,492.39059 446.79805,493.19284 C 444.86662,493.99522 443.76298,495.57081 443.48713,497.91962 C 443.54516,500.06887 444.30028,501.86955 445.7525,503.32165 C 447.2046,504.77387 449.00527,505.52899 451.15453,505.58702 C 454.20037,505.44186 456.47299,504.03326 457.97242,501.36124 C 459.4717,498.68932 460.21956,495.62527 460.21601,492.16907 C 460.10702,487.78724 458.62582,484.13507 455.7724,481.21252 C 452.91883,478.29013 449.34653,476.77262 445.05546,476.66 C 436.96325,476.96141 429.62259,480.19246 423.03346,486.35317 C 416.44425,492.51403 411.58678,499.7966 408.46104,508.20091 L 399.2253,508.20091 C 397.79491,508.23726 396.60414,508.73099 395.65299,509.68211 C 394.70181,510.63332 394.20808,511.82409 394.17179,513.25443 C 394.20808,514.68484 394.70181,515.87561 395.65299,516.82674 C 396.60414,517.77794 397.79491,518.27167 399.2253,518.30794 L 405.67289,518.30794 L 394.17179,564.1381 C 393.26055,568.06255 391.81565,571.58403 389.83709,574.70256 C 387.85852,577.82105 385.06312,579.46925 381.45087,579.64716 L 380.40532,579.64716 C 379.32346,579.67619 378.39408,579.57453 377.61717,579.34221 C 376.84027,579.10984 376.43366,578.57254 376.39736,577.73031 C 376.67327,575.38143 377.77691,573.80583 379.70828,573.00353 C 381.63965,572.2012 382.74329,570.58204 383.0192,568.14606 C 382.97201,566.00411 382.23867,564.23248 380.81918,562.83115 C 379.3997,561.42981 377.57724,560.70373 375.3518,560.65292 C 372.38215,560.78724 370.1313,562.17405 368.59926,564.81335 C 367.06724,567.45264 366.2976,570.53848 366.29032,574.07087 C 366.39925,578.44548 367.88046,582.06861 370.73393,584.94028 C 373.58743,587.8119 377.15974,589.30036 381.45087,589.40568 C 387.19927,589.17653 392.62496,586.61428 397.72797,581.71891 C 402.83094,576.8235 407.27562,570.96969 411.06202,564.15746 C 414.84836,557.34522 417.64081,550.94927 419.43937,544.96959 L 427.62955,518.30794 z"
       id="text2502"
       style="font-size:174.26139832000001206px;font-style:normal;font-variant:normal;font-weight:normal;font-stretch:normal;text-align:center;text-anchor:middle;fill:#ffffff;fill-opacity:1;stroke:none;stroke-width:1px;stroke-linecap:butt;stroke-linejoin:miter;stroke-opacity:1;font-family:Emmentaler;-inkscape-font-specification:Emmentaler" />
  </g>
</svg>
