<?xml version="1.0" encoding="UTF-8" standalone="no"?>
<!-- Created with Inkscape (http://www.inkscape.org/) -->

<svg
   xmlns:dc="http://purl.org/dc/elements/1.1/"
   xmlns:cc="http://creativecommons.org/ns#"
   xmlns:rdf="http://www.w3.org/1999/02/22-rdf-syntax-ns#"
   xmlns:svg="http://www.w3.org/2000/svg"
   xmlns="http://www.w3.org/2000/svg"
   xmlns:sodipodi="http://sodipodi.sourceforge.net/DTD/sodipodi-0.dtd"
   xmlns:inkscape="http://www.inkscape.org/namespaces/inkscape"
   version="1.0"
   width="93.925705"
   height="112.74568"
   id="svg2"
   inkscape:version="0.47 r22583"
   sodipodi:docname="Music_dynamic_forte.svg"
   inkscape:export-filename="/tmp/forte.png"
   inkscape:export-xdpi="11.973853"
   inkscape:export-ydpi="11.973853">
  <metadata
     id="metadata8">
    <rdf:RDF>
      <cc:Work
         rdf:about="">
        <dc:format>image/svg+xml</dc:format>
        <dc:type
           rdf:resource="http://purl.org/dc/dcmitype/StillImage" />
        <dc:title></dc:title>
      </cc:Work>
    </rdf:RDF>
  </metadata>
  <sodipodi:namedview
     pagecolor="#ffffff"
     bordercolor="#666666"
     borderopacity="1"
     objecttolerance="10"
     gridtolerance="10"
     guidetolerance="10"
     inkscape:pageopacity="0"
     inkscape:pageshadow="2"
     inkscape:window-width="640"
     inkscape:window-height="482"
     id="namedview6"
     showgrid="false"
     inkscape:zoom="2.0932066"
     inkscape:cx="46.962852"
     inkscape:cy="55.417369"
     inkscape:window-x="2440"
     inkscape:window-y="102"
     inkscape:window-maximized="0"
     inkscape:current-layer="svg2" />
  <defs
     id="defs4">
    <inkscape:perspective
       sodipodi:type="inkscape:persp3d"
       inkscape:vp_x="0 : 56.372841 : 1"
       inkscape:vp_y="0 : 1000 : 0"
       inkscape:vp_z="93.925705 : 56.372841 : 1"
       inkscape:persp3d-origin="46.962852 : 37.581894 : 1"
       id="perspective10" />
  </defs>
  <g
     transform="translate(-328.00046,-476.66)"
     id="layer1"
     style="fill:#ffffff">
    <path
       d="M 389.33969,518.30794 L 399.62098,518.30794 C 401.0513,518.27167 402.24206,517.77794 403.19329,516.82674 C 404.14439,515.87561 404.63813,514.68484 404.67449,513.25443 C 404.63813,511.82409 404.14439,510.63332 403.19329,509.68211 C 402.24206,508.73099 401.0513,508.23726 399.62098,508.20091 L 392.30209,508.20091 C 393.48192,502.95504 395.08656,498.11209 397.116,493.67205 C 399.14534,489.23214 402.36187,486.87238 406.7656,486.59277 L 407.98542,486.59277 C 408.98371,486.56744 409.86227,486.66183 410.62108,486.87595 C 411.37977,487.09021 411.77911,487.57668 411.81912,488.33537 C 411.54314,490.77143 410.4395,492.39059 408.50819,493.19284 C 406.57676,493.99522 405.47312,495.57081 405.19727,497.91962 C 405.2553,500.06887 406.01042,501.86955 407.46264,503.32165 C 408.91473,504.77387 410.71541,505.52899 412.86467,505.58702 C 415.91051,505.44186 418.18313,504.03326 419.68256,501.36124 C 421.18184,498.68932 421.9297,495.62527 421.92615,492.16907 C 421.81716,487.78724 420.33596,484.13507 417.48254,481.21252 C 414.62897,478.29013 411.05666,476.77262 406.7656,476.66 C 398.67338,476.96141 391.33272,480.19246 384.7436,486.35317 C 378.15439,492.51403 373.29692,499.7966 370.17118,508.20091 L 360.93544,508.20091 C 359.50505,508.23726 358.31428,508.73099 357.36313,509.68211 C 356.41195,510.63332 355.91822,511.82409 355.88193,513.25443 C 355.91822,514.68484 356.41195,515.87561 357.36313,516.82674 C 358.31428,517.77794 359.50505,518.27167 360.93544,518.30794 L 367.38303,518.30794 L 355.88193,564.1381 C 354.97069,568.06255 353.52579,571.58403 351.54723,574.70256 C 349.56866,577.82105 346.77326,579.46925 343.16101,579.64716 L 342.11545,579.64716 C 341.0336,579.67619 340.10422,579.57453 339.32731,579.34221 C 338.55041,579.10984 338.1438,578.57254 338.10749,577.73031 C 338.38341,575.38143 339.48705,573.80583 341.41842,573.00353 C 343.34979,572.2012 344.45343,570.58204 344.72934,568.14606 C 344.68215,566.00411 343.94881,564.23248 342.52932,562.83115 C 341.10984,561.42981 339.28738,560.70373 337.06194,560.65292 C 334.09228,560.78724 331.84144,562.17405 330.30939,564.81335 C 328.77738,567.45264 328.00774,570.53848 328.00046,574.07087 C 328.10939,578.44548 329.59059,582.06861 332.44407,584.94028 C 335.29757,587.8119 338.86988,589.30036 343.16101,589.40568 C 348.90941,589.17653 354.3351,586.61428 359.4381,581.71891 C 364.54108,576.8235 368.98576,570.96969 372.77215,564.15746 C 376.5585,557.34522 379.35094,550.94927 381.14951,544.96959 L 389.33969,518.30794 z"
       id="text2502"
       style="font-size:174.26139832000001206px;font-style:normal;font-variant:normal;font-weight:normal;font-stretch:normal;text-align:center;text-anchor:middle;fill:#ffffff;fill-opacity:1;stroke:none;stroke-width:1px;stroke-linecap:butt;stroke-linejoin:miter;stroke-opacity:1;font-family:Emmentaler;-inkscape-font-specification:Emmentaler" />
  </g>
</svg>
