<?xml version="1.0" encoding="UTF-8" standalone="no"?>
<!-- Created with Inkscape (http://www.inkscape.org/) -->

<svg
   xmlns:dc="http://purl.org/dc/elements/1.1/"
   xmlns:cc="http://creativecommons.org/ns#"
   xmlns:rdf="http://www.w3.org/1999/02/22-rdf-syntax-ns#"
   xmlns:svg="http://www.w3.org/2000/svg"
   xmlns="http://www.w3.org/2000/svg"
   xmlns:sodipodi="http://sodipodi.sourceforge.net/DTD/sodipodi-0.dtd"
   xmlns:inkscape="http://www.inkscape.org/namespaces/inkscape"
   version="1.0"
   width="206.24805"
   height="112.74567"
   id="svg2"
   inkscape:version="0.47 r22583"
   sodipodi:docname="Music_dynamic_fortississimo.svg"
   inkscape:export-filename="/tmp/fortississimo.png"
   inkscape:export-xdpi="11.973853"
   inkscape:export-ydpi="11.973853">
  <metadata
     id="metadata2832">
    <rdf:RDF>
      <cc:Work
         rdf:about="">
        <dc:format>image/svg+xml</dc:format>
        <dc:type
           rdf:resource="http://purl.org/dc/dcmitype/StillImage" />
        <dc:title></dc:title>
      </cc:Work>
    </rdf:RDF>
  </metadata>
  <sodipodi:namedview
     pagecolor="#ffffff"
     bordercolor="#666666"
     borderopacity="1"
     objecttolerance="10"
     gridtolerance="10"
     guidetolerance="10"
     inkscape:pageopacity="0"
     inkscape:pageshadow="2"
     inkscape:window-width="640"
     inkscape:window-height="480"
     id="namedview2830"
     showgrid="false"
     inkscape:zoom="2.1109459"
     inkscape:cx="103.12402"
     inkscape:cy="56.372833"
     inkscape:window-x="2450"
     inkscape:window-y="125"
     inkscape:window-maximized="0"
     inkscape:current-layer="svg2" />
  <defs
     id="defs4">
    <inkscape:perspective
       sodipodi:type="inkscape:persp3d"
       inkscape:vp_x="0 : 56.372833 : 1"
       inkscape:vp_y="0 : 1000 : 0"
       inkscape:vp_z="206.24805 : 56.372833 : 1"
       inkscape:persp3d-origin="103.12402 : 37.581889 : 1"
       id="perspective2834" />
  </defs>
  <g
     transform="translate(-271.842,-476.66)"
     id="layer1"
     style="fill:#ffffff">
    <path
       d="M 333.18123,518.30794 L 343.46252,518.30794 C 344.89284,518.27167 346.08361,517.77794 347.03483,516.82674 C 347.98593,515.87561 348.47967,514.68484 348.51603,513.25443 C 348.47967,511.82409 347.98593,510.63332 347.03483,509.68211 C 346.08361,508.73099 344.89284,508.23726 343.46252,508.20091 L 336.14363,508.20091 C 337.32347,502.95504 338.9281,498.11209 340.95754,493.67205 C 342.98688,489.23214 346.20341,486.87238 350.60714,486.59277 L 351.82696,486.59277 C 352.82525,486.56744 353.70381,486.66183 354.46262,486.87595 C 355.22131,487.09021 355.62065,487.57668 355.66066,488.33537 C 355.38468,490.77143 354.28104,492.39059 352.34973,493.19284 C 350.4183,493.99522 349.31466,495.57081 349.03881,497.91962 C 349.09684,500.06887 349.85196,501.86955 351.30418,503.32165 C 352.75628,504.77387 354.55695,505.52899 356.70621,505.58702 C 359.75205,505.44186 362.02467,504.03326 363.5241,501.36124 C 365.02338,498.68932 365.77124,495.62527 365.76769,492.16907 C 365.6587,487.78724 364.1775,484.13507 361.32408,481.21252 C 358.47051,478.29013 354.89821,476.77262 350.60714,476.66 C 342.51493,476.96141 335.17427,480.19246 328.58514,486.35317 C 321.99593,492.51403 317.13846,499.7966 314.01272,508.20091 L 304.77698,508.20091 C 303.34659,508.23726 302.15582,508.73099 301.20467,509.68211 C 300.25349,510.63332 299.75976,511.82409 299.72347,513.25443 C 299.75976,514.68484 300.25349,515.87561 301.20467,516.82674 C 302.15582,517.77794 303.34659,518.27167 304.77698,518.30794 L 311.22457,518.30794 L 299.72347,564.1381 C 298.81223,568.06255 297.36733,571.58403 295.38877,574.70256 C 293.4102,577.82105 290.6148,579.46925 287.00255,579.64716 L 285.957,579.64716 C 284.87514,579.67619 283.94576,579.57453 283.16885,579.34221 C 282.39195,579.10984 281.98534,578.57254 281.94904,577.73031 C 282.22495,575.38143 283.32859,573.80583 285.25996,573.00353 C 287.19133,572.2012 288.29497,570.58204 288.57088,568.14606 C 288.52369,566.00411 287.79035,564.23248 286.37086,562.83115 C 284.95138,561.42981 283.12892,560.70373 280.90348,560.65292 C 277.93383,560.78724 275.68298,562.17405 274.15094,564.81335 C 272.61892,567.45264 271.84928,570.53848 271.842,574.07087 C 271.95093,578.44548 273.43214,582.06861 276.28561,584.94028 C 279.13911,587.8119 282.71142,589.30036 287.00255,589.40568 C 292.75095,589.17653 298.17664,586.61428 303.27965,581.71891 C 308.38262,576.8235 312.8273,570.96969 316.6137,564.15746 C 320.40004,557.34522 323.19249,550.94927 324.99105,544.96959 L 333.18123,518.30794 z M 389.33969,518.30794 L 399.62098,518.30794 C 401.0513,518.27167 402.24206,517.77794 403.19329,516.82674 C 404.14439,515.87561 404.63813,514.68484 404.67449,513.25443 C 404.63813,511.82409 404.14439,510.63332 403.19329,509.68211 C 402.24206,508.73099 401.0513,508.23726 399.62098,508.20091 L 392.30209,508.20091 C 393.48192,502.95504 395.08656,498.11209 397.116,493.67205 C 399.14534,489.23214 402.36187,486.87238 406.7656,486.59277 L 407.98542,486.59277 C 408.98371,486.56744 409.86227,486.66183 410.62108,486.87595 C 411.37977,487.09021 411.77911,487.57668 411.81912,488.33537 C 411.54314,490.77143 410.4395,492.39059 408.50819,493.19284 C 406.57676,493.99522 405.47312,495.57081 405.19727,497.91962 C 405.2553,500.06887 406.01042,501.86955 407.46264,503.32165 C 408.91473,504.77387 410.71541,505.52899 412.86467,505.58702 C 415.91051,505.44186 418.18313,504.03326 419.68256,501.36124 C 421.18184,498.68932 421.9297,495.62527 421.92615,492.16907 C 421.81716,487.78724 420.33596,484.13507 417.48254,481.21252 C 414.62897,478.29013 411.05666,476.77262 406.7656,476.66 C 398.67338,476.96141 391.33272,480.19246 384.7436,486.35317 C 378.15439,492.51403 373.29692,499.7966 370.17118,508.20091 L 360.93544,508.20091 C 359.50505,508.23726 358.31428,508.73099 357.36313,509.68211 C 356.41195,510.63332 355.91822,511.82409 355.88193,513.25443 C 355.91822,514.68484 356.41195,515.87561 357.36313,516.82674 C 358.31428,517.77794 359.50505,518.27167 360.93544,518.30794 L 367.38303,518.30794 L 355.88193,564.1381 C 354.97069,568.06255 353.52579,571.58403 351.54723,574.70256 C 349.56866,577.82105 346.77326,579.46925 343.16101,579.64716 L 342.11545,579.64716 C 341.0336,579.67619 340.10422,579.57453 339.32731,579.34221 C 338.55041,579.10984 338.1438,578.57254 338.10749,577.73031 C 338.38341,575.38143 339.48705,573.80583 341.41842,573.00353 C 343.34979,572.2012 344.45343,570.58204 344.72934,568.14606 C 344.68215,566.00411 343.94881,564.23248 342.52932,562.83115 C 341.10984,561.42981 339.28738,560.70373 337.06194,560.65292 C 334.09228,560.78724 331.84144,562.17405 330.30939,564.81335 C 328.77738,567.45264 328.00774,570.53848 328.00046,574.07087 C 328.10939,578.44548 329.59059,582.06861 332.44407,584.94028 C 335.29757,587.8119 338.86988,589.30036 343.16101,589.40568 C 348.90941,589.17653 354.3351,586.61428 359.4381,581.71891 C 364.54108,576.8235 368.98576,570.96969 372.77216,564.15746 C 376.5585,557.34522 379.35094,550.94927 381.14951,544.96959 L 389.33969,518.30794 z M 445.49814,518.30794 L 455.77943,518.30794 C 457.20975,518.27167 458.40052,517.77794 459.35174,516.82674 C 460.30285,515.87561 460.79659,514.68484 460.83295,513.25443 C 460.79659,511.82409 460.30285,510.63332 459.35174,509.68211 C 458.40052,508.73099 457.20975,508.23726 455.77943,508.20091 L 448.46055,508.20091 C 449.64038,502.95504 451.24502,498.11209 453.27446,493.67205 C 455.3038,489.23214 458.52033,486.87238 462.92406,486.59277 L 464.14387,486.59277 C 465.14217,486.56744 466.02073,486.66183 466.77954,486.87595 C 467.53823,487.09021 467.93757,487.57668 467.97758,488.33537 C 467.7016,490.77143 466.59796,492.39059 464.66665,493.19284 C 462.73522,493.99522 461.63158,495.57081 461.35573,497.91962 C 461.41375,500.06887 462.16888,501.86955 463.6211,503.32165 C 465.07319,504.77387 466.87387,505.52899 469.02313,505.58702 C 472.06897,505.44186 474.34159,504.03326 475.84102,501.36124 C 477.3403,498.68932 478.08816,495.62527 478.08461,492.16907 C 477.97562,487.78724 476.49442,484.13507 473.641,481.21252 C 470.78743,478.29013 467.21512,476.77262 462.92406,476.66 C 454.83184,476.96141 447.49118,480.19246 440.90206,486.35317 C 434.31285,492.51403 429.45538,499.7966 426.32964,508.20091 L 417.0939,508.20091 C 415.66351,508.23726 414.47274,508.73099 413.52159,509.68211 C 412.57041,510.63332 412.07668,511.82409 412.04039,513.25443 C 412.07668,514.68484 412.57041,515.87561 413.52159,516.82674 C 414.47274,517.77794 415.66351,518.27167 417.0939,518.30794 L 423.54149,518.30794 L 412.04039,564.1381 C 411.12914,568.06255 409.68425,571.58403 407.70569,574.70256 C 405.72712,577.82105 402.93172,579.46925 399.31947,579.64716 L 398.27391,579.64716 C 397.19206,579.67619 396.26268,579.57453 395.48577,579.34221 C 394.70887,579.10984 394.30226,578.57254 394.26595,577.73031 C 394.54187,575.38143 395.64551,573.80583 397.57688,573.00353 C 399.50825,572.2012 400.61189,570.58204 400.8878,568.14606 C 400.84061,566.00411 400.10727,564.23248 398.68778,562.83115 C 397.26829,561.42981 395.44584,560.70373 393.2204,560.65292 C 390.25074,560.78724 387.9999,562.17405 386.46785,564.81335 C 384.93584,567.45264 384.1662,570.53848 384.15892,574.07087 C 384.26785,578.44548 385.74905,582.06861 388.60253,584.94028 C 391.45603,587.8119 395.02834,589.30036 399.31947,589.40568 C 405.06787,589.17653 410.49356,586.61428 415.59656,581.71891 C 420.69954,576.8235 425.14422,570.96969 428.93061,564.15746 C 432.71696,557.34522 435.5094,550.94927 437.30796,544.96959 L 445.49814,518.30794 z"
       id="text2502"
       style="font-size:174.26139832000001206px;font-style:normal;font-variant:normal;font-weight:normal;font-stretch:normal;text-align:center;text-anchor:middle;fill:#ffffff;fill-opacity:1;stroke:none;stroke-width:1px;stroke-linecap:butt;stroke-linejoin:miter;stroke-opacity:1;font-family:Emmentaler;-inkscape-font-specification:Emmentaler" />
  </g>
</svg>
