<?xml version="1.0" encoding="UTF-8" standalone="no"?>
<!-- Created with Inkscape (http://www.inkscape.org/) -->

<svg
   xmlns:dc="http://purl.org/dc/elements/1.1/"
   xmlns:cc="http://creativecommons.org/ns#"
   xmlns:rdf="http://www.w3.org/1999/02/22-rdf-syntax-ns#"
   xmlns:svg="http://www.w3.org/2000/svg"
   xmlns="http://www.w3.org/2000/svg"
   xmlns:sodipodi="http://sodipodi.sourceforge.net/DTD/sodipodi-0.dtd"
   xmlns:inkscape="http://www.inkscape.org/namespaces/inkscape"
   version="1.0"
   width="84.864212"
   height="76.325508"
   id="svg2"
   inkscape:version="0.47 r22583"
   sodipodi:docname="Music_dynamic_piano.svg">
  <metadata
     id="metadata2878">
    <rdf:RDF>
      <cc:Work
         rdf:about="">
        <dc:format>image/svg+xml</dc:format>
        <dc:type
           rdf:resource="http://purl.org/dc/dcmitype/StillImage" />
        <dc:title></dc:title>
      </cc:Work>
    </rdf:RDF>
  </metadata>
  <sodipodi:namedview
     pagecolor="#ffffff"
     bordercolor="#666666"
     borderopacity="1"
     objecttolerance="10"
     gridtolerance="10"
     guidetolerance="10"
     inkscape:pageopacity="0"
     inkscape:pageshadow="2"
     inkscape:window-width="640"
     inkscape:window-height="480"
     id="namedview2876"
     showgrid="false"
     inkscape:zoom="3.1182236"
     inkscape:cx="42.432106"
     inkscape:cy="38.162754"
     inkscape:window-x="2441"
     inkscape:window-y="89"
     inkscape:window-maximized="0"
     inkscape:current-layer="svg2" />
  <defs
     id="defs4">
    <inkscape:perspective
       sodipodi:type="inkscape:persp3d"
       inkscape:vp_x="0 : 38.162754 : 1"
       inkscape:vp_y="0 : 1000 : 0"
       inkscape:vp_z="84.864212 : 38.162754 : 1"
       inkscape:persp3d-origin="42.432106 : 25.441836 : 1"
       id="perspective2880" />
  </defs>
  <g
     transform="translate(-319.37731,-505.93554)"
     id="layer1"
     style="fill:#ffffff"
     inkscape:export-filename="/tmp/piano.png"
     inkscape:export-xdpi="17.687403"
     inkscape:export-ydpi="17.687403">
    <path
       d="M 369.91246,552.11422 C 367.93387,552.07792 366.53254,551.45349 365.70846,550.24093 C 364.88434,549.02838 364.485,547.44553 364.51043,545.49237 C 364.53408,542.47619 365.29996,538.55644 366.80807,533.7331 C 368.31614,528.90981 370.42446,524.55118 373.13303,520.65721 C 375.84154,516.76331 379.00833,514.70232 382.63338,514.47424 C 384.18715,514.51785 385.30531,515.08419 385.98787,516.17327 C 386.67034,517.26243 387.00434,518.61293 386.98986,520.22479 C 387.00165,521.49627 386.41648,524.6652 385.23436,529.73159 C 384.05215,534.79804 382.20199,539.70956 379.68388,544.46617 C 377.16569,549.22281 373.90856,551.77216 369.91246,552.11422 L 369.91246,552.11422 z M 332.96952,532.77145 C 333.00221,533.81703 333.37251,534.60119 334.08042,535.12395 C 334.78836,535.64674 335.63787,535.90813 336.62897,535.90812 C 339.74735,535.64352 342.02993,533.79121 343.47671,530.35119 C 344.92348,526.91121 346.34122,523.47121 347.72992,520.03117 C 349.11861,516.5912 351.28501,514.7389 354.22914,514.47424 C 354.74464,514.47428 355.10768,514.60498 355.31826,514.86632 C 355.52881,515.12775 355.63046,515.51984 355.62321,516.04257 C 355.61594,516.58354 355.49977,517.24427 355.2747,518.02477 C 355.0496,518.80534 354.75917,519.59677 354.4034,520.39905 L 338.37156,567.79754 C 336.8753,571.46127 334.64005,573.54377 331.6658,574.04505 C 328.69158,574.5463 325.94001,574.83458 323.41108,574.90989 C 320.88219,574.98517 319.5376,576.21574 319.37731,578.60161 C 319.38096,579.51644 319.67866,580.34417 320.27039,581.0848 C 320.86216,581.82538 321.7262,582.21746 322.86249,582.26105 C 323.16383,582.22472 325.08794,582.0795 328.63483,581.8254 C 332.18174,581.57125 336.58904,581.42603 341.85674,581.38975 C 346.95381,581.42603 351.26672,581.57125 354.79548,581.8254 C 358.32421,582.0795 360.28463,582.22472 360.67673,582.26105 C 361.81302,582.21746 362.67706,581.82538 363.26883,581.0848 C 363.86057,580.34418 364.15826,579.51645 364.16191,578.60161 C 364.05217,576.46638 363.28414,575.33477 361.85782,575.20678 C 360.43146,575.07875 359.00511,574.8249 357.57879,574.4452 C 356.15243,574.06547 355.3844,572.43045 355.2747,569.54013 C 355.28194,568.85034 355.35455,568.18235 355.49252,567.53615 C 355.63046,566.88993 355.7902,566.22193 355.97173,565.53217 L 358.93414,556.64495 C 359.64931,554.90963 361.35559,554.76441 364.053,556.2093 C 366.75036,557.6542 370.85271,558.55454 376.36005,558.91032 C 381.86732,558.79415 387.75582,555.8027 394.02557,549.93597 C 400.29521,544.06926 403.70053,536.02431 404.24152,525.80108 C 404.21604,520.01789 402.61141,515.29112 399.42761,511.62074 C 396.24369,507.95046 391.63309,506.05539 385.59579,505.93554 C 382.48449,505.97553 379.34057,506.81052 376.164,508.44051 C 372.98737,510.07061 370.14841,512.25611 367.6471,514.99702 C 367.03716,512.40859 365.86091,510.26665 364.11834,508.57121 C 362.37573,506.87586 360.0668,505.99731 357.19155,505.93554 C 352.39403,506.22817 348.18385,508.39243 344.56098,512.4283 C 340.93812,516.46427 338.1091,520.61637 336.07392,524.88461 C 334.03875,529.15291 333.00395,531.78185 332.96952,532.77145 L 332.96952,532.77145 z"
       id="text2502"
       style="font-size:174.26139832000001206px;font-style:normal;font-variant:normal;font-weight:normal;font-stretch:normal;text-align:center;text-anchor:middle;fill:#ffffff;fill-opacity:1;stroke:none;stroke-width:1px;stroke-linecap:butt;stroke-linejoin:miter;stroke-opacity:1;font-family:Emmentaler;-inkscape-font-specification:Emmentaler" />
  </g>
</svg>
