<?xml version="1.0" encoding="UTF-8" standalone="no"?>
<!-- Created with Sodipodi ("http://www.sodipodi.com/") -->

<svg
   xmlns:dc="http://purl.org/dc/elements/1.1/"
   xmlns:cc="http://creativecommons.org/ns#"
   xmlns:rdf="http://www.w3.org/1999/02/22-rdf-syntax-ns#"
   xmlns:svg="http://www.w3.org/2000/svg"
   xmlns="http://www.w3.org/2000/svg"
   xmlns:sodipodi="http://sodipodi.sourceforge.net/DTD/sodipodi-0.dtd"
   xmlns:inkscape="http://www.inkscape.org/namespaces/inkscape"
   xml:space="preserve"
   width="257mm"
   height="95mm"
   style="shape-rendering:geometricPrecision; text-rendering:geometricPrecision; image-rendering:optimizeQuality; fill-rule:evenodd"
   viewBox="0 0 8268 11692"
   id="svg2"
   sodipodi:version="0.34"
   inkscape:version="0.47 r22583"
   sodipodi:docname="Notes.svg"
   version="1.1"><metadata
     id="metadata34"><rdf:RDF><cc:Work
         rdf:about=""><dc:format>image/svg+xml</dc:format><dc:type
           rdf:resource="http://purl.org/dc/dcmitype/StillImage" /><dc:title></dc:title></cc:Work></rdf:RDF></metadata><sodipodi:namedview
     inkscape:window-height="1155"
     inkscape:window-width="1643"
     inkscape:pageshadow="2"
     inkscape:pageopacity="0.0"
     borderopacity="1.0"
     bordercolor="#666666"
     pagecolor="#ffffff"
     id="base"
     inkscape:zoom="2.0103972"
     inkscape:cx="534.71016"
     inkscape:cy="281.79409"
     inkscape:window-x="82"
     inkscape:window-y="0"
     inkscape:current-layer="svg2"
     showgrid="false"
     inkscape:window-maximized="0" /><defs
     id="defs4"><inkscape:perspective
       sodipodi:type="inkscape:persp3d"
       inkscape:vp_x="0 : 168.30708 : 1"
       inkscape:vp_y="0 : 1000 : 0"
       inkscape:vp_z="910.62994 : 168.30708 : 1"
       inkscape:persp3d-origin="455.31497 : 112.20472 : 1"
       id="perspective20" /><style
       type="text/css"
       id="style6">
   
    .str1 {stroke:#131516;stroke-width:3}
    .str0 {stroke:#131516;stroke-width:42}
    .fil0 {fill:none}
    .fil1 {fill:#131516}
   
  </style></defs><path
     style="fill:none;stroke:#131516;stroke-width:132.11592102"
     id="path17"
     d="m -11065.602,11076.63 30399.205,0"
     class="fil0 str0" /><path
     style="fill:#131516;stroke:#131516;stroke-width:9.4368515"
     id="path21"
     d="m -8448.2238,8323.9977 c 12.5384,233.5949 81.4992,429.3095 206.8826,580.8306 125.3834,151.521 275.8435,227.2815 451.3803,227.2815 134.7871,-15.7834 228.8247,-59.9771 282.1126,-135.7376 50.1534,-75.7605 75.2301,-208.3414 75.2301,-394.586 -18.8075,-239.9083 -87.7684,-435.6229 -213.1518,-583.9873 -125.3834,-148.3643 -275.8435,-224.1248 -457.6494,-224.1248 -125.3834,22.0968 -213.1518,66.2904 -266.4398,138.8943 -53.2879,69.4471 -78.3646,202.028 -78.3646,391.4293 z m -783.6462,132.5809 c 0,-192.558 68.9608,-347.2357 210.0172,-464.0332 141.0563,-119.9541 310.3239,-202.028 507.8027,-252.535 194.3443,-47.3503 376.1502,-72.6038 542.2832,-72.6038 181.806,0 373.0157,25.2535 570.4945,72.6038 200.6135,47.3503 373.0156,132.5809 520.3411,249.3784 147.3255,116.7974 225.6901,274.6318 231.9593,467.1898 0,192.5579 -68.9609,350.3923 -210.0172,470.3465 -141.0563,119.9541 -310.3239,205.1847 -504.6682,255.6917 -197.4788,50.507 -382.4193,75.7605 -557.9561,75.7605 -188.0751,0 -379.2848,-25.2535 -579.8982,-72.6038 -197.4789,-50.507 -366.7465,-132.5809 -510.9374,-252.535 -141.0563,-119.9542 -216.2863,-277.7886 -219.4209,-476.6599 z"
     class="fil1 str1" /></svg>