<?xml version="1.0" encoding="UTF-8" standalone="no"?>
<!-- Created with Inkscape (http://www.inkscape.org/) -->

<svg
   xmlns:dc="http://purl.org/dc/elements/1.1/"
   xmlns:cc="http://creativecommons.org/ns#"
   xmlns:rdf="http://www.w3.org/1999/02/22-rdf-syntax-ns#"
   xmlns:svg="http://www.w3.org/2000/svg"
   xmlns="http://www.w3.org/2000/svg"
   xmlns:sodipodi="http://sodipodi.sourceforge.net/DTD/sodipodi-0.dtd"
   xmlns:inkscape="http://www.inkscape.org/namespaces/inkscape"
   width="595"
   height="250"
   id="svg8439"
   version="1.1"
   inkscape:version="0.48.3.1 r9886"
   sodipodi:docname="ardour_logo_horizontal.svg">
  <defs
     id="defs8441" />
  <sodipodi:namedview
     id="base"
     pagecolor="#ffffff"
     bordercolor="#666666"
     borderopacity="1.0"
     inkscape:pageopacity="0.0"
     inkscape:pageshadow="2"
     inkscape:zoom="1"
     inkscape:cx="763.89171"
     inkscape:cy="-100.21706"
     inkscape:document-units="px"
     inkscape:current-layer="layer1"
     showgrid="false"
     inkscape:snap-bbox="true"
     inkscape:bbox-paths="true"
     inkscape:bbox-nodes="true"
     inkscape:snap-bbox-edge-midpoints="true"
     inkscape:snap-bbox-midpoints="true"
     inkscape:object-paths="true"
     inkscape:object-nodes="false"
     inkscape:snap-intersection-paths="true"
     inkscape:snap-smooth-nodes="true"
     inkscape:snap-midpoints="true"
     inkscape:snap-object-midpoints="true"
     inkscape:snap-center="true"
     fit-margin-top="0"
     fit-margin-left="0"
     fit-margin-right="0"
     fit-margin-bottom="0"
     inkscape:window-width="2560"
     inkscape:window-height="1576"
     inkscape:window-x="0"
     inkscape:window-y="24"
     inkscape:window-maximized="1">
    <inkscape:grid
       type="xygrid"
       id="grid3005"
       empspacing="5"
       visible="true"
       enabled="true"
       snapvisiblegridlinesonly="true"
       originx="-268px"
       originy="118px" />
  </sodipodi:namedview>
  <metadata
     id="metadata8444">
    <rdf:RDF>
      <cc:Work
         rdf:about="">
        <dc:format>image/svg+xml</dc:format>
        <dc:type
           rdf:resource="http://purl.org/dc/dcmitype/StillImage" />
        <dc:title />
      </cc:Work>
    </rdf:RDF>
  </metadata>
  <g
     inkscape:label="Layer 1"
     inkscape:groupmode="layer"
     id="layer1"
     transform="translate(-627.12207,-289.7702)">
    <rect
       style="fill:#212a30;fill-opacity:1;stroke:none;display:inline"
       id="rect3003"
       width="595"
       height="125"
       x="627.12207"
       y="414.7702"
       inkscape:export-filename="ardour_org_06.png"
       inkscape:export-xdpi="90"
       inkscape:export-ydpi="90" />
    <path
       sodipodi:nodetypes="cccscsssccscscscscscssssssssccscccsccssssssscscsssssscscccc"
       inkscape:connector-curvature="0"
       style="fill:#c61c3e;fill-opacity:1;stroke:none;display:inline"
       d="m 714.12744,436.91571 -45.66639,79.11504 c 3.35595,-3e-5 2.82735,-2.38244 4.41693,-2.38244 1.68069,0.005 1.36782,1.19122 2.95166,1.19122 0.81426,0 1.46632,-0.80639 1.46531,-2.80407 0,-2.66318 0.66157,-4.01635 1.47583,-4.01635 0.81425,0 1.47583,1.18613 1.47583,2.37185 0,1.4927 0.66157,2.67758 1.47583,2.67758 0.81425,0 1.47583,-2.0181 1.47583,-4.51183 l -0.0105,-2.85676 c 0,-3.44751 0.66158,-6.24066 1.47583,-6.24066 0.81425,0 1.47718,1.20688 1.47583,5.11268 0,3.10431 0.66158,6.19849 1.47583,6.19849 0.81425,0 1.47684,-3.60163 1.47583,-9.38206 0,-6.67824 0.65105,-10.99492 1.46527,-10.99492 0.81425,0 1.47688,4.31954 1.47583,8.58086 0,4.97637 0.66161,9.87754 1.47583,9.87754 0.81425,0 1.47688,-4.90225 1.47583,-11.70122 0,-7.30025 0.65105,-12.60781 1.46531,-12.60781 0.81425,0 1.47684,5.30783 1.47583,11.40606 0,6.39903 0.66157,11.95422 1.47583,11.95422 0.81421,0 1.47582,-5.55111 1.47582,-12.66049 0,-7.10946 0.65106,-12.76595 1.46528,-12.76595 0.81422,0 1.47583,5.6568 1.47583,12.64997 0,6.99314 0.66161,12.63945 1.47583,12.63945 0.81422,0 1.47583,-5.64985 1.47583,-12.39697 0,-6.60089 0.65105,-12.13345 1.4653,-12.13345 0.81422,0 1.47583,5.52939 1.47583,12.74483 0,6.95168 0.66158,12.27047 1.47583,12.27047 0.81425,3e-5 1.47684,-5.31913 1.47583,-11.33225 0,-5.65066 0.65105,-10.66814 1.46527,-10.66814 0.81426,0 1.47688,5.0271 1.47583,11.88041 0,6.4133 0.66161,11.06876 1.47583,11.06876 0.81426,-3e-5 1.47688,-4.65708 1.47583,-9.6667 0,-4.51307 0.65105,-8.78121 1.46531,-8.78121 0.81425,0 1.47687,4.26534 1.47579,10.32029 0,5.5226 0.66165,9.35045 1.47583,9.35045 0.81429,-3e-5 1.47587,-3.82552 1.47587,-7.72704 0,-3.35211 0.65101,-6.73609 1.4653,-6.73609 0.81422,0 1.47583,3.38118 1.47583,8.38059 0,4.44955 0.66154,7.3897 1.47583,7.3897 0.81422,0 1.47583,-2.58599 1.47583,-5.40787 0,-2.91156 0.66161,-5.14433 1.47583,-5.14433 0.81425,0 1.46527,2.50062 1.46527,6.3566 0,3.34435 0.66158,5.43948 1.47583,5.43948 0.81429,4e-5 1.47583,-1.73297 1.47583,-3.4787 0,-1.80041 0.66158,-3.56311 1.47583,-3.56311 0.81426,3e-5 1.46531,1.70336 1.46531,4.45913 0,2.31781 0.66157,3.66849 1.47583,3.66849 0.81418,0 1.47583,-0.94099 1.47583,-2.03452 0,-1.43818 0.66157,-2.0978 1.47583,-2.0978 0.81422,0 1.4653,0.98717 1.4653,2.81463 0,1.44041 0.66155,2.19266 1.47583,2.19266 1.53939,0 1.33156,-1.91699 2.95166,-1.92913 1.77295,0 1.25289,2.57216 2.9411,2.57216 1.21696,0 2.15907,-0.469 2.95166,-0.47436 1.31722,0 1.40864,0.92766 4.41693,0.92766 l -45.67691,-79.11504 z"
       id="path2999" />
    <path
       d="m 1048.9072,451.16495 0,25.8589 c 0,14.88209 9.7298,25.82088 25.8589,25.82088 16.1291,0 25.8589,-10.93879 25.8589,-25.82088 l 0,-25.8589 -10.6321,0 0,24.49191 c -10e-5,13.61217 -7.276,17.99867 -15.2268,17.99867 -7.9509,0 -15.2268,-4.3865 -15.2268,-17.99867 l 0,-24.49191 -10.6321,0 z m 64.1727,0 0,50.61695 10.6322,0 0,-16.85951 21.0366,0.0375 9.7209,16.82148 11.6952,0 -11.1258,-19.25166 c 4.8585,-2.94348 8.126,-8.28299 8.126,-14.46734 0,-9.43285 -7.6245,-16.89755 -16.8596,-16.89755 z m 10.6322,9.18968 21.4543,0 c 3.9546,0 7.6703,3.06411 7.6703,7.70824 0,4.6441 -3.7157,7.7104 -7.6703,7.7082 l -21.4543,-0.0375 z m -275.42768,-9.18968 0,50.61656 10.63213,0 0,-16.85948 21.03656,0.0375 9.72079,16.82148 11.69533,0 -11.12579,-19.25166 c 4.85845,-2.94348 8.12596,-8.28299 8.12596,-14.46737 0,-9.43282 -7.62452,-16.89716 -16.8595,-16.89716 z m 10.63213,9.18932 21.45419,0 c 3.95454,0 7.6703,3.0641 7.6703,7.70824 0,4.6441 -3.71576,7.7104 -7.6703,7.70821 l -21.45419,-0.0375 z m -61.647,-9.18932 -29.23833,50.61656 11.69531,0 6.94882,-11.99909 33.79508,0 6.94877,11.99909 11.69537,-3.6e-4 -29.23834,-50.6162 z m 6.30333,9.34121 11.61941,20.08706 -23.2388,0 z M 1007.125,450.10173 c -22.99892,0 -30.98397,15.29084 -30.98397,26.35262 0,11.06164 7.98505,26.39038 30.98397,26.39038 23.0001,0 30.985,-15.32874 30.985,-26.39038 0,-11.06178 -7.9849,-26.35262 -30.985,-26.35262 z m 0,9.18931 c 11.7685,0 20.6567,6.76035 20.6567,17.16331 0,10.40283 -8.8882,17.20118 -20.6567,17.20118 -11.76742,0 -20.65562,-6.79835 -20.65562,-17.20118 0,-10.40296 8.8882,-17.16331 20.65562,-17.16331 z m -94.00804,-8.12609 0,50.6162 27.76806,0 c 14.68436,0 25.35306,-12.06569 25.35306,-25.30811 0,-13.2424 -10.72885,-25.30809 -25.35306,-25.30809 z m 10.63212,9.22664 15.99668,0 c 8.77326,0 16.16399,6.97587 16.16399,16.08145 0,9.10562 -7.42195,16.08126 -16.16399,16.08126 l -15.99668,0 0,-16.01818 z"
       style="fill:#ced6dc;fill-opacity:1;stroke:none;display:inline"
       id="path3001"
       inkscape:connector-curvature="0" />
    <path
       id="path3009"
       d="m 714.12744,311.91571 -45.66639,79.11504 c 3.35595,-3e-5 2.82735,-2.38244 4.41693,-2.38244 1.68069,0.005 1.36782,1.19122 2.95166,1.19122 0.81426,0 1.46632,-0.80639 1.46531,-2.80407 0,-2.66318 0.66157,-4.01635 1.47583,-4.01635 0.81425,0 1.47583,1.18613 1.47583,2.37185 0,1.4927 0.66157,2.67758 1.47583,2.67758 0.81425,0 1.47583,-2.0181 1.47583,-4.51183 l -0.0105,-2.85676 c 0,-3.44751 0.66158,-6.24066 1.47583,-6.24066 0.81425,0 1.47718,1.20688 1.47583,5.11268 0,3.10431 0.66158,6.19849 1.47583,6.19849 0.81425,0 1.47684,-3.60163 1.47583,-9.38206 0,-6.67824 0.65105,-10.99492 1.46527,-10.99492 0.81425,0 1.47688,4.31954 1.47583,8.58086 0,4.97637 0.66161,9.87754 1.47583,9.87754 0.81425,0 1.47688,-4.90225 1.47583,-11.70122 0,-7.30025 0.65105,-12.60781 1.46531,-12.60781 0.81425,0 1.47684,5.30783 1.47583,11.40606 0,6.39903 0.66157,11.95422 1.47583,11.95422 0.81421,0 1.47582,-5.55111 1.47582,-12.66049 0,-7.10946 0.65106,-12.76595 1.46528,-12.76595 0.81422,0 1.47583,5.6568 1.47583,12.64997 0,6.99314 0.66161,12.63945 1.47583,12.63945 0.81422,0 1.47583,-5.64985 1.47583,-12.39697 0,-6.60089 0.65105,-12.13345 1.4653,-12.13345 0.81422,0 1.47583,5.52939 1.47583,12.74483 0,6.95168 0.66158,12.27047 1.47583,12.27047 0.81425,3e-5 1.47684,-5.31913 1.47583,-11.33225 0,-5.65066 0.65105,-10.66814 1.46527,-10.66814 0.81426,0 1.47688,5.0271 1.47583,11.88041 0,6.4133 0.66161,11.06876 1.47583,11.06876 0.81426,-3e-5 1.47688,-4.65708 1.47583,-9.6667 0,-4.51307 0.65105,-8.78121 1.46531,-8.78121 0.81425,0 1.47687,4.26534 1.47579,10.32029 0,5.5226 0.66165,9.35045 1.47583,9.35045 0.81429,-3e-5 1.47587,-3.82552 1.47587,-7.72704 0,-3.35211 0.65101,-6.73609 1.4653,-6.73609 0.81422,0 1.47583,3.38118 1.47583,8.38059 0,4.44955 0.66154,7.3897 1.47583,7.3897 0.81422,0 1.47583,-2.58599 1.47583,-5.40787 0,-2.91156 0.66161,-5.14433 1.47583,-5.14433 0.81425,0 1.46527,2.50062 1.46527,6.3566 0,3.34435 0.66158,5.43948 1.47583,5.43948 0.81429,4e-5 1.47583,-1.73297 1.47583,-3.4787 0,-1.80041 0.66158,-3.56311 1.47583,-3.56311 0.81426,3e-5 1.46531,1.70336 1.46531,4.45913 0,2.31781 0.66157,3.66849 1.47583,3.66849 0.81418,0 1.47583,-0.94099 1.47583,-2.03452 0,-1.43818 0.66157,-2.0978 1.47583,-2.0978 0.81422,0 1.4653,0.98717 1.4653,2.81463 0,1.44041 0.66155,2.19266 1.47583,2.19266 1.53939,0 1.33156,-1.91699 2.95166,-1.92913 1.77295,0 1.25289,2.57216 2.9411,2.57216 1.21696,0 2.15907,-0.469 2.95166,-0.47436 1.31722,0 1.40864,0.92766 4.41693,0.92766 l -45.67691,-79.11504 z"
       style="fill:#e4214e;fill-opacity:1;stroke:none;display:inline"
       inkscape:connector-curvature="0"
       sodipodi:nodetypes="cccscsssccscscscscscssssssssccscccsccssssssscscsssssscscccc" />
    <path
       inkscape:connector-curvature="0"
       id="path3011"
       style="fill:#212a30;fill-opacity:1;stroke:none;display:inline"
       d="m 1048.9072,326.16495 0,25.8589 c 0,14.88209 9.7298,25.82088 25.8589,25.82088 16.1291,0 25.8589,-10.93879 25.8589,-25.82088 l 0,-25.8589 -10.6321,0 0,24.49191 c -10e-5,13.61217 -7.276,17.99867 -15.2268,17.99867 -7.9509,0 -15.2268,-4.3865 -15.2268,-17.99867 l 0,-24.49191 -10.6321,0 z m 64.1727,0 0,50.61695 10.6322,0 0,-16.85951 21.0366,0.0375 9.7209,16.82148 11.6952,0 -11.1258,-19.25166 c 4.8585,-2.94348 8.126,-8.28299 8.126,-14.46734 0,-9.43285 -7.6245,-16.89755 -16.8596,-16.89755 z m 10.6322,9.18968 21.4543,0 c 3.9546,0 7.6703,3.06411 7.6703,7.70824 0,4.6441 -3.7157,7.7104 -7.6703,7.7082 l -21.4543,-0.0375 z m -275.42768,-9.18968 0,50.61656 10.63213,0 0,-16.85948 21.03656,0.0375 9.72079,16.82148 11.69533,0 -11.12579,-19.25166 c 4.85845,-2.94348 8.12596,-8.28299 8.12596,-14.46737 0,-9.43282 -7.62452,-16.89716 -16.8595,-16.89716 z m 10.63213,9.18932 21.45419,0 c 3.95454,0 7.6703,3.0641 7.6703,7.70824 0,4.6441 -3.71576,7.7104 -7.6703,7.70821 l -21.45419,-0.0375 z m -61.647,-9.18932 -29.23833,50.61656 11.69531,0 6.94882,-11.99909 33.79508,0 6.94877,11.99909 11.69537,-3.6e-4 -29.23834,-50.6162 z m 6.30333,9.34121 11.61941,20.08706 -23.2388,0 z M 1007.125,325.10173 c -22.99892,0 -30.98397,15.29084 -30.98397,26.35262 0,11.06164 7.98505,26.39038 30.98397,26.39038 23.0001,0 30.985,-15.32874 30.985,-26.39038 0,-11.06178 -7.9849,-26.35262 -30.985,-26.35262 z m 0,9.18931 c 11.7685,0 20.6567,6.76035 20.6567,17.16331 0,10.40283 -8.8882,17.20118 -20.6567,17.20118 -11.76742,0 -20.65562,-6.79835 -20.65562,-17.20118 0,-10.40296 8.8882,-17.16331 20.65562,-17.16331 z m -94.00804,-8.12609 0,50.6162 27.76806,0 c 14.68436,0 25.35306,-12.06569 25.35306,-25.30811 0,-13.2424 -10.72885,-25.30809 -25.35306,-25.30809 z m 10.63212,9.22664 15.99668,0 c 8.77326,0 16.16399,6.97587 16.16399,16.08145 0,9.10562 -7.42195,16.08126 -16.16399,16.08126 l -15.99668,0 0,-16.01818 z" />
  </g>
</svg>
