<?xml version="1.0" encoding="UTF-8" standalone="no"?>
<!-- Created with Sodipodi ("http://www.sodipodi.com/") -->

<svg
   xmlns:dc="http://purl.org/dc/elements/1.1/"
   xmlns:cc="http://creativecommons.org/ns#"
   xmlns:rdf="http://www.w3.org/1999/02/22-rdf-syntax-ns#"
   xmlns:svg="http://www.w3.org/2000/svg"
   xmlns="http://www.w3.org/2000/svg"
   xmlns:sodipodi="http://sodipodi.sourceforge.net/DTD/sodipodi-0.dtd"
   xmlns:inkscape="http://www.inkscape.org/namespaces/inkscape"
   xml:space="preserve"
   width="103.64716"
   height="282.17834"
   style="fill-rule:evenodd"
   viewBox="0 0 941.057 9801.2191"
   id="svg2"
   sodipodi:version="0.34"
   inkscape:version="0.47 r22583"
   sodipodi:docname="chord.svg"
   version="1.1"><metadata
     id="metadata34"><rdf:RDF><cc:Work
         rdf:about=""><dc:format>image/svg+xml</dc:format><dc:type
           rdf:resource="http://purl.org/dc/dcmitype/StillImage" /></cc:Work></rdf:RDF></metadata><sodipodi:namedview
     inkscape:window-height="745"
     inkscape:window-width="1030"
     inkscape:pageshadow="2"
     inkscape:pageopacity="0.0"
     borderopacity="1.0"
     bordercolor="#666666"
     pagecolor="#ffffff"
     id="base"
     inkscape:zoom="1.0051986"
     inkscape:cx="73.669444"
     inkscape:cy="88.293688"
     inkscape:window-x="198"
     inkscape:window-y="198"
     inkscape:current-layer="svg2"
     showgrid="false"
     inkscape:showpageshadow="false"
     borderlayer="true"
     fit-margin-top="0"
     fit-margin-left="0"
     fit-margin-right="0"
     fit-margin-bottom="0"
     inkscape:window-maximized="0" /><defs
     id="defs4"><inkscape:perspective
       sodipodi:type="inkscape:persp3d"
       inkscape:vp_x="0 : 141.08917 : 1"
       inkscape:vp_y="0 : 1000 : 0"
       inkscape:vp_z="103.64716 : 141.08917 : 1"
       inkscape:persp3d-origin="51.823582 : 94.059448 : 1"
       id="perspective8" /><style
       type="text/css"
       id="style6">
   
    .str1 {stroke:#131516;stroke-width:3}
    .str0 {stroke:#131516;stroke-width:42}
    .fil0 {fill:none}
    .fil1 {fill:#131516}
   
  </style></defs><path
     style="fill:#131516;stroke:#131516;stroke-width:9.4368515"
     d="m 544.61291,9796.4848 -149.7909,0 0,-3490.7799 0,-1786.6368 0,-1745.39 0,-331.0596 c -128.3162,103.5445 -287.7921,157.389 -472.16711,157.389 -181.8057,0 -369.9636,-47.5917 -561.1733,-145.4492 -191.2096,-94.7005 -354.5038,-224.3408 -483.0214,-385.3317 -128.5181,-160.991 -196.7084,-334.6679 -202.9776,-517.7556 12.5383,-167.3046 78.4363,-297.1436 197.5503,-391.8444 119.1141,-91.5439 266.2382,-137.8511 441.7748,-137.8511 184.9401,0 372.2564,43.9369 566.6004,129.1675 191.20971,85.2306 351.12561,207.9595 476.50891,365.7938 13.0683,16.1219 25.1985,33.3319 36.905,49.9303 l 0,-538.379 c 0,-195.71463 62.3981,-372.84693 187.7814,-527.52453 125.3834,-157.8344 285.2994,-280.5632 476.50839,-365.7938 194.345,-85.230604 382.746,-130.2530039 567.686,-130.2530039 175.537,0 322.661,47.3925999 441.775,138.9365039 119.114,94.7009 185.012,224.5398 197.55,391.8444 -6.269,183.0878 -75.545,356.7646 -204.063,517.75563 -128.518,160.991 -291.811,290.6312 -483.021,385.3317 -191.21,97.8575 -379.367,145.4492 -561.173,145.4492 -184.94099,0 -344.73499,-54.3037 -473.25289,-158.4745 l 0,569.8568 c 0.8823,16.1622 2.1709,32.4139 2.1709,48.8449 l -2.1709,5.4272 0,246.3953 c 11.9374,-16.9812 24.6289,-33.4473 37.9905,-49.9304 125.3834,-157.8343 285.2994,-280.5631 476.50839,-365.7938 194.345,-85.2306 382.746,-130.2529 567.686,-130.2529 175.537,0 322.661,47.3926 441.775,138.9365 119.114,94.7008 185.012,224.5398 197.55,391.8444 -6.269,183.0877 -75.545,356.7646 -204.063,517.7556 -128.518,160.9909 -291.811,290.6312 -483.021,385.3317 -191.21,97.8575 -379.367,144.3637 -561.173,144.3637 -184.94099,0 -344.73499,-53.2182 -473.25289,-157.389 l 0,870.5241 c 11.9374,-16.9811 24.6289,-33.4472 37.9905,-49.9303 125.3834,-157.8343 285.2994,-280.5632 476.50839,-365.7938 194.345,-85.2306 382.746,-130.253 567.686,-130.253 175.537,0 322.661,47.3927 441.775,138.9366 119.114,94.7008 185.012,224.5398 197.55,391.8444 -6.269,183.0877 -75.545,356.7646 -204.063,517.7556 -128.518,160.9909 -291.811,290.6312 -483.021,385.3317 -191.21,97.8575 -379.367,144.3637 -561.173,144.3637 -184.94099,0 -344.73499,-53.2182 -473.25289,-157.389 l 0,1389.3652 0,3490.7799 z"
     id="path23"
     inkscape:connector-curvature="0" /></svg>