<?xml version="1.0" encoding="UTF-8" standalone="no"?>
<!-- Created with Inkscape (http://www.inkscape.org/) -->

<svg
   xmlns:dc="http://purl.org/dc/elements/1.1/"
   xmlns:cc="http://creativecommons.org/ns#"
   xmlns:rdf="http://www.w3.org/1999/02/22-rdf-syntax-ns#"
   xmlns:svg="http://www.w3.org/2000/svg"
   xmlns="http://www.w3.org/2000/svg"
   xmlns:sodipodi="http://sodipodi.sourceforge.net/DTD/sodipodi-0.dtd"
   xmlns:inkscape="http://www.inkscape.org/namespaces/inkscape"
   version="1.0"
   width="212.15671"
   height="76.325508"
   id="svg2"
   inkscape:version="0.47 r22583"
   sodipodi:docname="Music_dynamic_pianississimo.svg"
   inkscape:export-filename="/tmp/pianississimo.png"
   inkscape:export-xdpi="17.687403"
   inkscape:export-ydpi="17.687403">
  <metadata
     id="metadata2868">
    <rdf:RDF>
      <cc:Work
         rdf:about="">
        <dc:format>image/svg+xml</dc:format>
        <dc:type
           rdf:resource="http://purl.org/dc/dcmitype/StillImage" />
        <dc:title></dc:title>
      </cc:Work>
    </rdf:RDF>
  </metadata>
  <sodipodi:namedview
     pagecolor="#ffffff"
     bordercolor="#666666"
     borderopacity="1"
     objecttolerance="10"
     gridtolerance="10"
     guidetolerance="10"
     inkscape:pageopacity="0"
     inkscape:pageshadow="2"
     inkscape:window-width="1122"
     inkscape:window-height="734"
     id="namedview2866"
     showgrid="false"
     inkscape:zoom="3.7062356"
     inkscape:cx="96.690408"
     inkscape:cy="43.302286"
     inkscape:window-x="2072"
     inkscape:window-y="180"
     inkscape:window-maximized="0"
     inkscape:current-layer="layer1" />
  <defs
     id="defs4">
    <inkscape:perspective
       sodipodi:type="inkscape:persp3d"
       inkscape:vp_x="0 : 38.162754 : 1"
       inkscape:vp_y="0 : 1000 : 0"
       inkscape:vp_z="212.15671 : 38.162754 : 1"
       inkscape:persp3d-origin="106.07835 : 25.441836 : 1"
       id="perspective2870" />
  </defs>
  <g
     transform="translate(-255.73106,-505.93554)"
     id="layer1">
    <path
       d="M 306.26621,552.11422 C 304.28762,552.07792 302.88628,551.45349 302.06221,550.24093 C 301.23809,549.02838 300.83874,547.44553 300.86418,545.49237 C 300.88782,542.47619 301.6537,538.55644 303.16182,533.7331 C 304.66988,528.90981 306.7782,524.55118 309.48678,520.65721 C 312.19529,516.76331 315.36207,514.70232 318.98713,514.47424 C 320.5409,514.51785 321.65906,515.08419 322.34162,516.17327 C 323.02409,517.26243 323.35808,518.61293 323.34361,520.22479 C 323.3554,521.49627 322.77023,524.6652 321.58811,529.73159 C 320.4059,534.79804 318.55574,539.70956 316.03763,544.46617 C 313.51944,549.22281 310.26231,551.77216 306.26621,552.11422 L 306.26621,552.11422 z M 269.32327,532.77145 C 269.35595,533.81703 269.72625,534.60119 270.43417,535.12395 C 271.14211,535.64674 271.99162,535.90813 272.98271,535.90812 C 276.1011,535.64352 278.38367,533.79121 279.83045,530.35119 C 281.27723,526.91121 282.69497,523.47121 284.08367,520.03117 C 285.47236,516.5912 287.63876,514.7389 290.58289,514.47424 C 291.09839,514.47428 291.46143,514.60498 291.672,514.86632 C 291.88256,515.12775 291.98421,515.51984 291.97696,516.04257 C 291.96969,516.58354 291.85351,517.24427 291.62844,518.02477 C 291.40334,518.80534 291.11291,519.59677 290.75715,520.39905 L 274.7253,567.79754 C 273.22905,571.46127 270.9938,573.54377 268.01955,574.04505 C 265.04533,574.5463 262.29375,574.83458 259.76483,574.90989 C 257.23594,574.98517 255.89135,576.21574 255.73106,578.60161 C 255.73471,579.51644 256.0324,580.34417 256.62414,581.0848 C 257.21591,581.82538 258.07995,582.21746 259.21624,582.26105 C 259.51758,582.22472 261.44169,582.0795 264.98857,581.8254 C 268.53548,581.57125 272.94278,581.42603 278.21049,581.38975 C 283.30756,581.42603 287.62047,581.57125 291.14923,581.8254 C 294.67796,582.0795 296.63837,582.22472 297.03048,582.26105 C 298.16677,582.21746 299.0308,581.82538 299.62258,581.0848 C 300.21431,580.34418 300.51201,579.51645 300.51566,578.60161 C 300.40592,576.46638 299.63789,575.33477 298.21157,575.20678 C 296.7852,575.07875 295.35886,574.8249 293.93253,574.4452 C 292.50617,574.06547 291.73814,572.43045 291.62844,569.54013 C 291.63569,568.85034 291.7083,568.18235 291.84627,567.53615 C 291.98421,566.88993 292.14395,566.22193 292.32548,565.53217 L 295.28788,556.64495 C 296.00305,554.90963 297.70934,554.76441 300.40674,556.2093 C 303.10411,557.6542 307.20645,558.55454 312.7138,558.91032 C 318.22107,558.79415 324.10957,555.8027 330.37932,549.93597 C 336.64896,544.06926 340.05427,536.02431 340.59526,525.80108 C 340.56979,520.01789 338.96515,515.29112 335.78135,511.62074 C 332.59744,507.95046 327.98684,506.05539 321.94954,505.93554 C 318.83824,505.97553 315.69432,506.81052 312.51775,508.44051 C 309.34112,510.07061 306.50215,512.25611 304.00084,514.99702 C 303.39091,512.40859 302.21466,510.26665 300.47209,508.57121 C 298.72948,506.87586 296.42055,505.99731 293.54529,505.93554 C 288.74778,506.22817 284.53759,508.39243 280.91473,512.4283 C 277.29186,516.46427 274.46284,520.61637 272.42766,524.88461 C 270.39249,529.15291 269.3577,531.78185 269.32327,532.77145 L 269.32327,532.77145 z M 369.91246,552.11422 C 367.93387,552.07792 366.53254,551.45349 365.70846,550.24093 C 364.88434,549.02838 364.48499,547.44553 364.51043,545.49237 C 364.53407,542.47619 365.29995,538.55644 366.80807,533.7331 C 368.31614,528.90981 370.42445,524.55118 373.13303,520.65721 C 375.84154,516.76331 379.00832,514.70232 382.63338,514.47424 C 384.18715,514.51785 385.30531,515.08419 385.98787,516.17327 C 386.67034,517.26243 387.00434,518.61293 386.98986,520.22479 C 387.00165,521.49627 386.41648,524.6652 385.23436,529.73159 C 384.05215,534.79804 382.20199,539.70956 379.68388,544.46617 C 377.16569,549.22281 373.90856,551.77216 369.91246,552.11422 L 369.91246,552.11422 z M 332.96952,532.77145 C 333.0022,533.81703 333.3725,534.60119 334.08042,535.12395 C 334.78836,535.64674 335.63787,535.90813 336.62896,535.90812 C 339.74735,535.64352 342.02993,533.79121 343.4767,530.35119 C 344.92348,526.91121 346.34122,523.47121 347.72992,520.03117 C 349.11861,516.5912 351.28501,514.7389 354.22914,514.47424 C 354.74464,514.47428 355.10768,514.60498 355.31826,514.86632 C 355.52881,515.12775 355.63046,515.51984 355.62321,516.04257 C 355.61594,516.58354 355.49977,517.24427 355.27469,518.02477 C 355.0496,518.80534 354.75916,519.59677 354.4034,520.39905 L 338.37156,567.79754 C 336.8753,571.46127 334.64005,573.54377 331.6658,574.04505 C 328.69158,574.5463 325.94001,574.83458 323.41108,574.90989 C 320.88219,574.98517 319.5376,576.21574 319.37731,578.60161 C 319.38096,579.51644 319.67866,580.34417 320.27039,581.0848 C 320.86216,581.82538 321.7262,582.21746 322.86249,582.26105 C 323.16383,582.22472 325.08794,582.0795 328.63482,581.8254 C 332.18174,581.57125 336.58904,581.42603 341.85674,581.38975 C 346.95381,581.42603 351.26672,581.57125 354.79548,581.8254 C 358.32421,582.0795 360.28463,582.22472 360.67673,582.26105 C 361.81302,582.21746 362.67706,581.82538 363.26883,581.0848 C 363.86056,580.34418 364.15826,579.51645 364.16191,578.60161 C 364.05217,576.46638 363.28414,575.33477 361.85782,575.20678 C 360.43146,575.07875 359.00511,574.8249 357.57879,574.4452 C 356.15243,574.06547 355.3844,572.43045 355.27469,569.54013 C 355.28194,568.85034 355.35455,568.18235 355.49252,567.53615 C 355.63046,566.88993 355.7902,566.22193 355.97173,565.53217 L 358.93414,556.64495 C 359.6493,554.90963 361.35559,554.76441 364.053,556.2093 C 366.75036,557.6542 370.85271,558.55454 376.36005,558.91032 C 381.86732,558.79415 387.75582,555.8027 394.02557,549.93597 C 400.29521,544.06926 403.70052,536.02431 404.24152,525.80108 C 404.21604,520.01789 402.61141,515.29112 399.42761,511.62074 C 396.24369,507.95046 391.63309,506.05539 385.59579,505.93554 C 382.48449,505.97553 379.34057,506.81052 376.164,508.44051 C 372.98737,510.07061 370.14841,512.25611 367.64709,514.99702 C 367.03716,512.40859 365.86091,510.26665 364.11834,508.57121 C 362.37573,506.87586 360.0668,505.99731 357.19154,505.93554 C 352.39403,506.22817 348.18385,508.39243 344.56098,512.4283 C 340.93812,516.46427 338.1091,520.61637 336.07392,524.88461 C 334.03875,529.15291 333.00395,531.78185 332.96952,532.77145 L 332.96952,532.77145 z M 433.55871,552.11422 C 431.58012,552.07792 430.17879,551.45349 429.35471,550.24093 C 428.53059,549.02838 428.13125,547.44553 428.15668,545.49237 C 428.18033,542.47619 428.94621,538.55644 430.45432,533.7331 C 431.96239,528.90981 434.07071,524.55118 436.77928,520.65721 C 439.48779,516.76331 442.65458,514.70232 446.27963,514.47424 C 447.8334,514.51785 448.95156,515.08419 449.63412,516.17327 C 450.31659,517.26243 450.65059,518.61293 450.63611,520.22479 C 450.6479,521.49627 450.06273,524.6652 448.88061,529.73159 C 447.6984,534.79804 445.84824,539.70956 443.33013,544.46617 C 440.81194,549.22281 437.55481,551.77216 433.55871,552.11422 L 433.55871,552.11422 z M 396.61577,532.77145 C 396.64846,533.81703 397.01876,534.60119 397.72667,535.12395 C 398.43461,535.64674 399.28412,535.90813 400.27522,535.90812 C 403.3936,535.64352 405.67618,533.79121 407.12296,530.35119 C 408.56973,526.91121 409.98747,523.47121 411.37617,520.03117 C 412.76486,516.5912 414.93126,514.7389 417.87539,514.47424 C 418.39089,514.47428 418.75393,514.60498 418.96451,514.86632 C 419.17506,515.12775 419.27671,515.51984 419.26946,516.04257 C 419.26219,516.58354 419.14602,517.24427 418.92095,518.02477 C 418.69585,518.80534 418.40542,519.59677 418.04965,520.39905 L 402.01781,567.79754 C 400.52155,571.46127 398.2863,573.54377 395.31206,574.04505 C 392.33783,574.5463 389.58626,574.83458 387.05733,574.90989 C 384.52844,574.98517 383.18385,576.21574 383.02356,578.60161 C 383.02721,579.51644 383.32491,580.34417 383.91664,581.0848 C 384.50841,581.82538 385.37245,582.21746 386.50874,582.26105 C 386.81008,582.22472 388.73419,582.0795 392.28108,581.8254 C 395.82799,581.57125 400.23529,581.42603 405.50299,581.38975 C 410.60006,581.42603 414.91297,581.57125 418.44173,581.8254 C 421.97046,582.0795 423.93088,582.22472 424.32298,582.26105 C 425.45927,582.21746 426.32331,581.82538 426.91508,581.0848 C 427.50682,580.34418 427.80451,579.51645 427.80816,578.60161 C 427.69842,576.46638 426.9304,575.33477 425.50407,575.20678 C 424.07771,575.07875 422.65136,574.8249 421.22504,574.4452 C 419.79868,574.06547 419.03065,572.43045 418.92095,569.54013 C 418.92819,568.85034 419.0008,568.18235 419.13877,567.53615 C 419.27671,566.88993 419.43645,566.22193 419.61798,565.53217 L 422.58039,556.64495 C 423.29556,554.90963 425.00184,554.76441 427.69925,556.2093 C 430.39661,557.6542 434.49896,558.55454 440.0063,558.91032 C 445.51357,558.79415 451.40207,555.8027 457.67182,549.93597 C 463.94146,544.06926 467.34678,536.02431 467.88777,525.80108 C 467.86229,520.01789 466.25766,515.29112 463.07386,511.62074 C 459.88994,507.95046 455.27934,506.05539 449.24204,505.93554 C 446.13074,505.97553 442.98682,506.81052 439.81026,508.44051 C 436.63362,510.07061 433.79466,512.25611 431.29335,514.99702 C 430.68341,512.40859 429.50716,510.26665 427.76459,508.57121 C 426.02198,506.87586 423.71305,505.99731 420.8378,505.93554 C 416.04028,506.22817 411.8301,508.39243 408.20724,512.4283 C 404.58437,516.46427 401.75535,520.61637 399.72017,524.88461 C 397.685,529.15291 396.6502,531.78185 396.61577,532.77145 L 396.61577,532.77145 z"
       id="text2502"
       style="font-size:174.26139832000001206px;font-style:normal;font-variant:normal;font-weight:normal;font-stretch:normal;text-align:center;text-anchor:middle;fill:#ffffff;fill-opacity:1;stroke:none;stroke-width:1px;stroke-linecap:butt;stroke-linejoin:miter;stroke-opacity:1;font-family:Emmentaler;-inkscape-font-specification:Emmentaler" />
  </g>
</svg>
