<?xml version="1.0" encoding="UTF-8" standalone="no"?>
<!-- Created with Inkscape (http://www.inkscape.org/) -->

<svg
   xmlns:dc="http://purl.org/dc/elements/1.1/"
   xmlns:cc="http://creativecommons.org/ns#"
   xmlns:rdf="http://www.w3.org/1999/02/22-rdf-syntax-ns#"
   xmlns:svg="http://www.w3.org/2000/svg"
   xmlns="http://www.w3.org/2000/svg"
   xmlns:sodipodi="http://sodipodi.sourceforge.net/DTD/sodipodi-0.dtd"
   xmlns:inkscape="http://www.inkscape.org/namespaces/inkscape"
   version="1.0"
   width="150.08417"
   height="112.74568"
   id="svg2"
   inkscape:version="0.47 r22583"
   sodipodi:docname="Music_dynamic_fortissimo.svg"
   inkscape:export-filename="/tmp/fortissimo.png"
   inkscape:export-xdpi="11.973851"
   inkscape:export-ydpi="11.973851">
  <metadata
     id="metadata2822">
    <rdf:RDF>
      <cc:Work
         rdf:about="">
        <dc:format>image/svg+xml</dc:format>
        <dc:type
           rdf:resource="http://purl.org/dc/dcmitype/StillImage" />
        <dc:title></dc:title>
      </cc:Work>
    </rdf:RDF>
  </metadata>
  <sodipodi:namedview
     pagecolor="#ffffff"
     bordercolor="#666666"
     borderopacity="1"
     objecttolerance="10"
     gridtolerance="10"
     guidetolerance="10"
     inkscape:pageopacity="0"
     inkscape:pageshadow="2"
     inkscape:window-width="640"
     inkscape:window-height="480"
     id="namedview2820"
     showgrid="false"
     inkscape:zoom="2.1109456"
     inkscape:cx="75.042084"
     inkscape:cy="56.372841"
     inkscape:window-x="2379"
     inkscape:window-y="0"
     inkscape:window-maximized="0"
     inkscape:current-layer="svg2" />
  <defs
     id="defs4">
    <inkscape:perspective
       sodipodi:type="inkscape:persp3d"
       inkscape:vp_x="0 : 56.372841 : 1"
       inkscape:vp_y="0 : 1000 : 0"
       inkscape:vp_z="150.08417 : 56.372841 : 1"
       inkscape:persp3d-origin="75.042084 : 37.581894 : 1"
       id="perspective2824" />
  </defs>
  <g
     transform="translate(-299.92123,-476.66)"
     id="layer1"
     style="fill:#ffffff">
    <path
       d="M 361.26046,518.30794 L 371.54175,518.30794 C 372.97207,518.27167 374.16283,517.77794 375.11406,516.82674 C 376.06516,515.87561 376.5589,514.68484 376.59526,513.25443 C 376.5589,511.82409 376.06516,510.63332 375.11406,509.68211 C 374.16283,508.73099 372.97207,508.23726 371.54175,508.20091 L 364.22286,508.20091 C 365.40269,502.95504 367.00733,498.11209 369.03677,493.67205 C 371.06611,489.23214 374.28264,486.87238 378.68637,486.59277 L 379.90619,486.59277 C 380.90448,486.56744 381.78304,486.66183 382.54185,486.87595 C 383.30054,487.09021 383.69988,487.57668 383.73989,488.33537 C 383.46391,490.77143 382.36027,492.39059 380.42896,493.19284 C 378.49753,493.99522 377.39389,495.57081 377.11804,497.91962 C 377.17607,500.06887 377.93119,501.86955 379.38341,503.32165 C 380.8355,504.77387 382.63618,505.52899 384.78544,505.58702 C 387.83128,505.44186 390.1039,504.03326 391.60333,501.36124 C 393.10261,498.68932 393.85047,495.62527 393.84692,492.16907 C 393.73793,487.78724 392.25673,484.13507 389.40331,481.21252 C 386.54974,478.29013 382.97744,476.77262 378.68637,476.66 C 370.59416,476.96141 363.25349,480.19246 356.66437,486.35317 C 350.07516,492.51403 345.21769,499.7966 342.09195,508.20091 L 332.85621,508.20091 C 331.42582,508.23726 330.23505,508.73099 329.2839,509.68211 C 328.33272,510.63332 327.83899,511.82409 327.8027,513.25443 C 327.83899,514.68484 328.33272,515.87561 329.2839,516.82674 C 330.23505,517.77794 331.42582,518.27167 332.85621,518.30794 L 339.3038,518.30794 L 327.8027,564.1381 C 326.89146,568.06255 325.44656,571.58403 323.468,574.70256 C 321.48943,577.82105 318.69403,579.46925 315.08178,579.64716 L 314.03623,579.64716 C 312.95437,579.67619 312.02499,579.57453 311.24808,579.34221 C 310.47118,579.10984 310.06457,578.57254 310.02826,577.73031 C 310.30418,575.38143 311.40782,573.80583 313.33919,573.00353 C 315.27056,572.2012 316.3742,570.58204 316.65011,568.14606 C 316.60292,566.00411 315.86958,564.23248 314.45009,562.83115 C 313.03061,561.42981 311.20815,560.70373 308.98271,560.65292 C 306.01306,560.78724 303.76221,562.17405 302.23016,564.81335 C 300.69815,567.45264 299.92851,570.53848 299.92123,574.07087 C 300.03016,578.44548 301.51136,582.06861 304.36484,584.94028 C 307.21834,587.8119 310.79065,589.30036 315.08178,589.40568 C 320.83018,589.17653 326.25587,586.61428 331.35888,581.71891 C 336.46185,576.8235 340.90653,570.96969 344.69293,564.15746 C 348.47927,557.34522 351.27171,550.94927 353.07028,544.96959 L 361.26046,518.30794 z M 417.41891,518.30794 L 427.70021,518.30794 C 429.13052,518.27167 430.32129,517.77794 431.27252,516.82674 C 432.22362,515.87561 432.71736,514.68484 432.75372,513.25443 C 432.71736,511.82409 432.22362,510.63332 431.27252,509.68211 C 430.32129,508.73099 429.13052,508.23726 427.70021,508.20091 L 420.38132,508.20091 C 421.56115,502.95504 423.16579,498.11209 425.19523,493.67205 C 427.22457,489.23214 430.4411,486.87238 434.84483,486.59277 L 436.06464,486.59277 C 437.06294,486.56744 437.9415,486.66183 438.70031,486.87595 C 439.459,487.09021 439.85834,487.57668 439.89835,488.33537 C 439.62237,490.77143 438.51873,492.39059 436.58742,493.19284 C 434.65599,493.99522 433.55235,495.57081 433.2765,497.91962 C 433.33452,500.06887 434.08965,501.86955 435.54187,503.32165 C 436.99396,504.77387 438.79464,505.52899 440.9439,505.58702 C 443.98974,505.44186 446.26236,504.03326 447.76179,501.36124 C 449.26107,498.68932 450.00893,495.62527 450.00538,492.16907 C 449.89639,487.78724 448.41519,484.13507 445.56177,481.21252 C 442.7082,478.29013 439.13589,476.77262 434.84483,476.66 C 426.75261,476.96141 419.41195,480.19246 412.82283,486.35317 C 406.23362,492.51403 401.37615,499.7966 398.25041,508.20091 L 389.01467,508.20091 C 387.58428,508.23726 386.39351,508.73099 385.44236,509.68211 C 384.49118,510.63332 383.99745,511.82409 383.96116,513.25443 C 383.99745,514.68484 384.49118,515.87561 385.44236,516.82674 C 386.39351,517.77794 387.58428,518.27167 389.01467,518.30794 L 395.46226,518.30794 L 383.96116,564.1381 C 383.04992,568.06255 381.60502,571.58403 379.62646,574.70256 C 377.64789,577.82105 374.85249,579.46925 371.24024,579.64716 L 370.19468,579.64716 C 369.11283,579.67619 368.18345,579.57453 367.40654,579.34221 C 366.62964,579.10984 366.22303,578.57254 366.18672,577.73031 C 366.46264,575.38143 367.56628,573.80583 369.49765,573.00353 C 371.42902,572.2012 372.53266,570.58204 372.80857,568.14606 C 372.76138,566.00411 372.02804,564.23248 370.60855,562.83115 C 369.18906,561.42981 367.36661,560.70373 365.14117,560.65292 C 362.17151,560.78724 359.92067,562.17405 358.38862,564.81335 C 356.85661,567.45264 356.08697,570.53848 356.07969,574.07087 C 356.18862,578.44548 357.66982,582.06861 360.5233,584.94028 C 363.3768,587.8119 366.94911,589.30036 371.24024,589.40568 C 376.98864,589.17653 382.41433,586.61428 387.51733,581.71891 C 392.62031,576.8235 397.06499,570.96969 400.85138,564.15746 C 404.63773,557.34522 407.43017,550.94927 409.22873,544.96959 L 417.41891,518.30794 z"
       id="text2502"
       style="font-size:174.26139832000001206px;font-style:normal;font-variant:normal;font-weight:normal;font-stretch:normal;text-align:center;text-anchor:middle;fill:#ffffff;fill-opacity:1;stroke:none;stroke-width:1px;stroke-linecap:butt;stroke-linejoin:miter;stroke-opacity:1;font-family:Emmentaler;-inkscape-font-specification:Emmentaler" />
  </g>
</svg>
