<?xml version="1.0" encoding="UTF-8" standalone="no"?>
<!-- Created with Inkscape (http://www.inkscape.org/) -->

<svg
   xmlns:dc="http://purl.org/dc/elements/1.1/"
   xmlns:cc="http://creativecommons.org/ns#"
   xmlns:rdf="http://www.w3.org/1999/02/22-rdf-syntax-ns#"
   xmlns:svg="http://www.w3.org/2000/svg"
   xmlns="http://www.w3.org/2000/svg"
   xmlns:sodipodi="http://sodipodi.sourceforge.net/DTD/sodipodi-0.dtd"
   xmlns:inkscape="http://www.inkscape.org/namespaces/inkscape"
   version="1.0"
   width="148.51047"
   height="76.325508"
   id="svg2"
   inkscape:version="0.47 r22583"
   sodipodi:docname="Music_dynamic_pianissimo.svg"
   inkscape:export-filename="/tmp/pianissimo.png"
   inkscape:export-xdpi="17.687403"
   inkscape:export-ydpi="17.687403">
  <metadata
     id="metadata2858">
    <rdf:RDF>
      <cc:Work
         rdf:about="">
        <dc:format>image/svg+xml</dc:format>
        <dc:type
           rdf:resource="http://purl.org/dc/dcmitype/StillImage" />
        <dc:title></dc:title>
      </cc:Work>
    </rdf:RDF>
  </metadata>
  <sodipodi:namedview
     pagecolor="#ffffff"
     bordercolor="#666666"
     borderopacity="1"
     objecttolerance="10"
     gridtolerance="10"
     guidetolerance="10"
     inkscape:pageopacity="0"
     inkscape:pageshadow="2"
     inkscape:window-width="640"
     inkscape:window-height="480"
     id="namedview2856"
     showgrid="false"
     inkscape:zoom="3.1182236"
     inkscape:cx="74.255234"
     inkscape:cy="38.162754"
     inkscape:window-x="2456"
     inkscape:window-y="110"
     inkscape:window-maximized="0"
     inkscape:current-layer="svg2" />
  <defs
     id="defs4">
    <inkscape:perspective
       sodipodi:type="inkscape:persp3d"
       inkscape:vp_x="0 : 38.162754 : 1"
       inkscape:vp_y="0 : 1000 : 0"
       inkscape:vp_z="148.51047 : 38.162754 : 1"
       inkscape:persp3d-origin="74.255234 : 25.441836 : 1"
       id="perspective2860" />
  </defs>
  <g
     transform="translate(-287.55418,-505.93554)"
     id="layer1"
     style="fill:#ffffff">
    <path
       d="M 338.08934,552.11422 C 336.11074,552.07792 334.70941,551.45349 333.88533,550.24093 C 333.06121,549.02838 332.66187,547.44553 332.6873,545.49237 C 332.71095,542.47619 333.47683,538.55644 334.98494,533.7331 C 336.49301,528.90981 338.60133,524.55118 341.3099,520.65721 C 344.01842,516.76331 347.1852,514.70232 350.81026,514.47424 C 352.36402,514.51785 353.48218,515.08419 354.16474,516.17327 C 354.84721,517.26243 355.18121,518.61293 355.16674,520.22479 C 355.17852,521.49627 354.59336,524.6652 353.41123,529.73159 C 352.22902,534.79804 350.37886,539.70956 347.86075,544.46617 C 345.34257,549.22281 342.08543,551.77216 338.08934,552.11422 L 338.08934,552.11422 z M 301.1464,532.77145 C 301.17908,533.81703 301.54938,534.60119 302.2573,535.12395 C 302.96523,535.64674 303.81475,535.90813 304.80584,535.90812 C 307.92422,535.64352 310.2068,533.79121 311.65358,530.35119 C 313.10036,526.91121 314.51809,523.47121 315.90679,520.03117 C 317.29548,516.5912 319.46189,514.7389 322.40601,514.47424 C 322.92151,514.47428 323.28455,514.60498 323.49513,514.86632 C 323.70568,515.12775 323.80733,515.51984 323.80009,516.04257 C 323.79281,516.58354 323.67664,517.24427 323.45157,518.02477 C 323.22647,518.80534 322.93604,519.59677 322.58027,520.39905 L 306.54843,567.79754 C 305.05217,571.46127 302.81693,573.54377 299.84268,574.04505 C 296.86845,574.5463 294.11688,574.83458 291.58795,574.90989 C 289.05907,574.98517 287.71448,576.21574 287.55418,578.60161 C 287.55784,579.51644 287.85553,580.34417 288.44726,581.0848 C 289.03904,581.82538 289.90307,582.21746 291.03937,582.26105 C 291.34071,582.22472 293.26481,582.0795 296.8117,581.8254 C 300.35861,581.57125 304.76591,581.42603 310.03361,581.38975 C 315.13069,581.42603 319.4436,581.57125 322.97235,581.8254 C 326.50109,582.0795 328.4615,582.22472 328.8536,582.26105 C 329.9899,582.21746 330.85393,581.82538 331.44571,581.0848 C 332.03744,580.34418 332.33513,579.51645 332.33879,578.60161 C 332.22905,576.46638 331.46102,575.33477 330.03469,575.20678 C 328.60833,575.07875 327.18199,574.8249 325.75566,574.4452 C 324.3293,574.06547 323.56127,572.43045 323.45157,569.54013 C 323.45882,568.85034 323.53142,568.18235 323.66939,567.53615 C 323.80733,566.88993 323.96707,566.22193 324.14861,565.53217 L 327.11101,556.64495 C 327.82618,554.90963 329.53246,554.76441 332.22987,556.2093 C 334.92723,557.6542 339.02958,558.55454 344.53693,558.91032 C 350.0442,558.79415 355.9327,555.8027 362.20244,549.93597 C 368.47209,544.06926 371.8774,536.02431 372.41839,525.80108 C 372.39292,520.01789 370.78828,515.29112 367.60448,511.62074 C 364.42057,507.95046 359.80996,506.05539 353.77266,505.93554 C 350.66137,505.97553 347.51744,506.81052 344.34088,508.44051 C 341.16425,510.07061 338.32528,512.25611 335.82397,514.99702 C 335.21403,512.40859 334.03778,510.26665 332.29522,508.57121 C 330.55261,506.87586 328.24368,505.99731 325.36842,505.93554 C 320.5709,506.22817 316.36072,508.39243 312.73786,512.4283 C 309.11499,516.46427 306.28597,520.61637 304.25079,524.88461 C 302.21562,529.15291 301.18082,531.78185 301.1464,532.77145 L 301.1464,532.77145 z M 401.73559,552.11422 C 399.75699,552.07792 398.35566,551.45349 397.53159,550.24093 C 396.70746,549.02838 396.30812,547.44553 396.33356,545.49237 C 396.3572,542.47619 397.12308,538.55644 398.6312,533.7331 C 400.13926,528.90981 402.24758,524.55118 404.95616,520.65721 C 407.66467,516.76331 410.83145,514.70232 414.45651,514.47424 C 416.01027,514.51785 417.12843,515.08419 417.81099,516.17327 C 418.49347,517.26243 418.82746,518.61293 418.81299,520.22479 C 418.82478,521.49627 418.23961,524.6652 417.05748,529.73159 C 415.87527,534.79804 414.02512,539.70956 411.50701,544.46617 C 408.98882,549.22281 405.73168,551.77216 401.73559,552.11422 L 401.73559,552.11422 z M 364.79265,532.77145 C 364.82533,533.81703 365.19563,534.60119 365.90355,535.12395 C 366.61148,535.64674 367.461,535.90813 368.45209,535.90812 C 371.57047,535.64352 373.85305,533.79121 375.29983,530.35119 C 376.74661,526.91121 378.16434,523.47121 379.55304,520.03117 C 380.94173,516.5912 383.10814,514.7389 386.05227,514.47424 C 386.56777,514.47428 386.93081,514.60498 387.14138,514.86632 C 387.35193,515.12775 387.45359,515.51984 387.44634,516.04257 C 387.43906,516.58354 387.32289,517.24427 387.09782,518.02477 C 386.87272,518.80534 386.58229,519.59677 386.22652,520.39905 L 370.19468,567.79754 C 368.69843,571.46127 366.46318,573.54377 363.48893,574.04505 C 360.5147,574.5463 357.76313,574.83458 355.23421,574.90989 C 352.70532,574.98517 351.36073,576.21574 351.20043,578.60161 C 351.20409,579.51644 351.50178,580.34417 352.09351,581.0848 C 352.68529,581.82538 353.54932,582.21746 354.68562,582.26105 C 354.98696,582.22472 356.91107,582.0795 360.45795,581.8254 C 364.00486,581.57125 368.41216,581.42603 373.67987,581.38975 C 378.77694,581.42603 383.08985,581.57125 386.61861,581.8254 C 390.14734,582.0795 392.10775,582.22472 392.49985,582.26105 C 393.63615,582.21746 394.50018,581.82538 395.09196,581.0848 C 395.68369,580.34418 395.98138,579.51645 395.98504,578.60161 C 395.8753,576.46638 395.10727,575.33477 393.68095,575.20678 C 392.25458,575.07875 390.82824,574.8249 389.40191,574.4452 C 387.97555,574.06547 387.20752,572.43045 387.09782,569.54013 C 387.10507,568.85034 387.17768,568.18235 387.31564,567.53615 C 387.45359,566.88993 387.61332,566.22193 387.79486,565.53217 L 390.75726,556.64495 C 391.47243,554.90963 393.17872,554.76441 395.87612,556.2093 C 398.57348,557.6542 402.67583,558.55454 408.18318,558.91032 C 413.69045,558.79415 419.57895,555.8027 425.8487,549.93597 C 432.11834,544.06926 435.52365,536.02431 436.06464,525.80108 C 436.03917,520.01789 434.43453,515.29112 431.25073,511.62074 C 428.06682,507.95046 423.45622,506.05539 417.41891,505.93554 C 414.30762,505.97553 411.16369,506.81052 407.98713,508.44051 C 404.8105,510.07061 401.97153,512.25611 399.47022,514.99702 C 398.86028,512.40859 397.68403,510.26665 395.94147,508.57121 C 394.19886,506.87586 391.88993,505.99731 389.01467,505.93554 C 384.21716,506.22817 380.00697,508.39243 376.38411,512.4283 C 372.76124,516.46427 369.93222,520.61637 367.89704,524.88461 C 365.86187,529.15291 364.82708,531.78185 364.79265,532.77145 L 364.79265,532.77145 z"
       id="text2502"
       style="font-size:174.26139832000001206px;font-style:normal;font-variant:normal;font-weight:normal;font-stretch:normal;text-align:center;text-anchor:middle;fill:#ffffff;fill-opacity:1;stroke:none;stroke-width:1px;stroke-linecap:butt;stroke-linejoin:miter;stroke-opacity:1;font-family:Emmentaler;-inkscape-font-specification:Emmentaler" />
  </g>
</svg>
