<?xml version="1.0" encoding="UTF-8" standalone="no"?>
<!-- Created with Sodipodi ("http://www.sodipodi.com/") -->

<svg
   xmlns:dc="http://purl.org/dc/elements/1.1/"
   xmlns:cc="http://creativecommons.org/ns#"
   xmlns:rdf="http://www.w3.org/1999/02/22-rdf-syntax-ns#"
   xmlns:svg="http://www.w3.org/2000/svg"
   xmlns="http://www.w3.org/2000/svg"
   xmlns:sodipodi="http://sodipodi.sourceforge.net/DTD/sodipodi-0.dtd"
   xmlns:inkscape="http://www.inkscape.org/namespaces/inkscape"
   xml:space="preserve"
   width="257mm"
   height="95mm"
   style="shape-rendering:geometricPrecision; text-rendering:geometricPrecision; image-rendering:optimizeQuality; fill-rule:evenodd"
   viewBox="0 0 8268 11692"
   id="svg2"
   sodipodi:version="0.34"
   inkscape:version="0.47 r22583"
   sodipodi:docname="Notes.svg"
   version="1.1"><metadata
     id="metadata34"><rdf:RDF><cc:Work
         rdf:about=""><dc:format>image/svg+xml</dc:format><dc:type
           rdf:resource="http://purl.org/dc/dcmitype/StillImage" /><dc:title></dc:title></cc:Work></rdf:RDF></metadata><sodipodi:namedview
     inkscape:window-height="1155"
     inkscape:window-width="1643"
     inkscape:pageshadow="2"
     inkscape:pageopacity="0.0"
     borderopacity="1.0"
     bordercolor="#666666"
     pagecolor="#ffffff"
     id="base"
     inkscape:zoom="2.0103972"
     inkscape:cx="534.71016"
     inkscape:cy="281.79409"
     inkscape:window-x="82"
     inkscape:window-y="0"
     inkscape:current-layer="svg2"
     showgrid="false"
     inkscape:window-maximized="0" /><defs
     id="defs4"><inkscape:perspective
       sodipodi:type="inkscape:persp3d"
       inkscape:vp_x="0 : 168.30708 : 1"
       inkscape:vp_y="0 : 1000 : 0"
       inkscape:vp_z="910.62994 : 168.30708 : 1"
       inkscape:persp3d-origin="455.31497 : 112.20472 : 1"
       id="perspective20" /><style
       type="text/css"
       id="style6">
   
    .str1 {stroke:#131516;stroke-width:3}
    .str0 {stroke:#131516;stroke-width:42}
    .fil0 {fill:none}
    .fil1 {fill:#131516}
   
  </style></defs><path
     style="fill:none;stroke:#131516;stroke-width:132.11592102"
     id="path17"
     d="m -11065.602,11076.63 30399.205,0"
     class="fil0 str0" /><path
     style="fill:#131516;stroke:#131516;stroke-width:9.4368515"
     id="path31"
     d="m 15678.677,7799.9875 0,-6212.362 0,-972.25992 150.46,0 c 0,246.22167 56.423,448.24972 172.402,602.92742 115.98,151.521 300.92,350.3924 561.091,593.4573 260.17,243.065 457.649,476.6599 589.302,700.7848 131.652,227.2815 197.479,514.5401 197.479,861.7758 0,167.3045 -21.942,366.1758 -62.692,593.4573 75.23,145.2077 112.845,331.4523 112.845,555.5771 0,214.6548 -37.615,416.6828 -112.845,606.0841 81.499,189.4013 125.383,391.4293 125.383,599.7707 0,205.1848 -43.884,391.4294 -125.383,555.5771 97.172,148.3644 147.326,359.8625 147.326,631.3376 0,385.116 -94.038,776.5453 -282.113,1180.6013 l -112.845,0 c 172.402,-492.4433 257.036,-874.4025 257.036,-1142.721 0,-205.1847 -37.615,-369.3325 -112.845,-498.7567 -78.365,-129.4242 -166.133,-230.4382 -263.305,-299.8854 -97.173,-69.4471 -266.44,-176.7745 -507.803,-321.9822 -241.363,-145.2076 -429.438,-274.6318 -570.495,-388.2726 l -12.538,2765.2587 c 0,208.3414 -62.692,391.4293 -184.94,552.4204 -125.384,160.9911 -282.113,280.9452 -473.323,366.1758 -191.209,85.2306 -379.285,129.4242 -564.225,129.4242 -188.075,0 -341.67,-44.1936 -467.053,-135.7376 -122.249,-91.5439 -184.941,-220.9681 -184.941,-394.586 0,-183.0879 65.826,-356.7057 197.479,-514.5401 128.518,-160.9911 297.786,-287.2586 498.399,-381.9592 200.614,-94.7007 398.092,-138.8943 589.302,-138.8943 184.941,0 329.131,34.7235 438.842,107.3274 z m 162.998,-4854.9862 c 0,217.8115 43.885,397.7427 128.518,542.9504 84.634,145.2076 231.96,309.3554 438.842,495.6 206.883,186.2446 369.881,337.7656 485.861,460.8764 115.98,123.1109 222.555,287.2586 319.728,495.6 18.807,-78.9172 25.076,-164.1477 25.076,-258.8484 0,-243.0649 -65.826,-473.5032 -203.748,-691.3146 -134.787,-220.9682 -307.189,-416.6829 -520.341,-587.144 -210.017,-173.6179 -435.707,-325.1389 -673.936,-457.7198 z m -12.538,1161.6612 c 0,211.4981 53.288,410.3695 156.729,590.3007 103.442,179.9312 241.363,356.7057 410.631,530.3236 172.402,170.4611 335.401,334.6089 492.13,486.1299 153.594,154.6777 260.17,293.572 313.458,413.5261 21.942,-104.1707 31.346,-195.7146 31.346,-271.4751 0,-372.4892 -141.056,-710.2548 -426.303,-1016.4536 -285.248,-303.042 -611.245,-546.107 -977.991,-732.3516 z m 12.538,-2335.9491 c 0,208.3414 40.75,385.1159 119.115,527.1669 78.364,142.0509 222.555,309.3554 426.303,501.9134 206.883,192.5579 363.612,347.2357 476.457,464.0331 109.711,116.7975 222.556,287.2586 338.535,508.2268 12.539,-82.0739 18.808,-157.8344 18.808,-233.5949 0,-293.572 -72.096,-549.2637 -216.287,-770.2319 -144.19,-224.1248 -310.323,-404.0561 -492.129,-542.9503 -181.806,-138.8943 -404.362,-290.4153 -670.802,-454.5631 z"
     class="fil1 str1" /></svg>