<?xml version="1.0" encoding="UTF-8" standalone="no"?>
<!-- Created with Sodipodi ("http://www.sodipodi.com/") -->

<svg
   xmlns:dc="http://purl.org/dc/elements/1.1/"
   xmlns:cc="http://creativecommons.org/ns#"
   xmlns:rdf="http://www.w3.org/1999/02/22-rdf-syntax-ns#"
   xmlns:svg="http://www.w3.org/2000/svg"
   xmlns="http://www.w3.org/2000/svg"
   xmlns:sodipodi="http://sodipodi.sourceforge.net/DTD/sodipodi-0.dtd"
   xmlns:inkscape="http://www.inkscape.org/namespaces/inkscape"
   xml:space="preserve"
   width="257mm"
   height="95mm"
   style="shape-rendering:geometricPrecision; text-rendering:geometricPrecision; image-rendering:optimizeQuality; fill-rule:evenodd"
   viewBox="0 0 8268 11692"
   id="svg2"
   sodipodi:version="0.34"
   inkscape:version="0.47 r22583"
   sodipodi:docname="Notes.svg"
   version="1.1"><metadata
     id="metadata34"><rdf:RDF><cc:Work
         rdf:about=""><dc:format>image/svg+xml</dc:format><dc:type
           rdf:resource="http://purl.org/dc/dcmitype/StillImage" /><dc:title></dc:title></cc:Work></rdf:RDF></metadata><sodipodi:namedview
     inkscape:window-height="1155"
     inkscape:window-width="1643"
     inkscape:pageshadow="2"
     inkscape:pageopacity="0.0"
     borderopacity="1.0"
     bordercolor="#666666"
     pagecolor="#ffffff"
     id="base"
     inkscape:zoom="2.0103972"
     inkscape:cx="534.71016"
     inkscape:cy="281.79409"
     inkscape:window-x="82"
     inkscape:window-y="0"
     inkscape:current-layer="svg2"
     showgrid="false"
     inkscape:window-maximized="0" /><defs
     id="defs4"><inkscape:perspective
       sodipodi:type="inkscape:persp3d"
       inkscape:vp_x="0 : 168.30708 : 1"
       inkscape:vp_y="0 : 1000 : 0"
       inkscape:vp_z="910.62994 : 168.30708 : 1"
       inkscape:persp3d-origin="455.31497 : 112.20472 : 1"
       id="perspective20" /><style
       type="text/css"
       id="style6">
   
    .str1 {stroke:#131516;stroke-width:3}
    .str0 {stroke:#131516;stroke-width:42}
    .fil0 {fill:none}
    .fil1 {fill:#131516}
   
  </style></defs><path
     style="fill:none;stroke:#131516;stroke-width:132.11592102"
     id="path17"
     d="m -11065.602,11076.63 30399.205,0"
     class="fil0 str0" /><path
     style="fill:#131516;stroke:#131516;stroke-width:9.4368515"
     id="path29"
     d="m 11904.637,7837.8677 0,-5795.6791 153.594,0 c 18.808,211.4981 59.557,378.8025 122.249,495.6 62.692,116.7974 153.595,236.7516 282.113,356.7057 125.383,119.9542 304.054,287.2586 532.879,505.0701 410.631,397.7427 614.379,864.9325 614.379,1407.8828 0,186.2446 -25.077,369.3325 -75.23,555.5771 50.153,157.8344 75.23,328.2956 75.23,505.0701 0,138.8943 -18.808,299.8854 -62.692,479.8166 100.307,129.4242 150.46,334.6089 150.46,618.7108 0,195.7147 -25.076,397.7427 -81.499,599.7708 -53.288,202.028 -131.653,381.9592 -238.228,542.9503 l -100.307,0 c 188.075,-394.586 282.113,-735.5083 282.113,-1022.7669 0,-183.0879 -34.481,-350.3924 -106.576,-498.7567 -72.096,-151.521 -172.403,-287.2586 -300.921,-410.3695 -128.518,-119.9541 -266.439,-233.5949 -416.899,-337.7656 -150.46,-101.014 -376.151,-249.3783 -677.071,-438.7796 l 0,2847.3326 c 0,186.2446 -62.691,356.7057 -188.075,511.3834 -125.383,154.6777 -282.112,277.7886 -473.322,366.1758 -191.21,88.3873 -379.285,132.5809 -564.225,132.5809 -188.076,0 -341.67,-47.3503 -460.784,-138.8942 -119.115,-94.7007 -178.672,-233.595 -178.672,-416.6829 0,-179.9312 65.827,-347.2356 194.344,-501.9134 125.384,-154.6777 288.382,-277.7885 482.727,-372.4891 194.344,-91.544 376.15,-135.7376 548.552,-135.7376 203.748,0 366.746,47.3503 485.861,145.2076 z m 175.536,-4646.6447 c 0,186.2446 43.885,347.2357 125.384,476.6599 81.499,132.5809 225.69,293.572 429.438,482.9732 203.748,189.4013 363.612,344.079 479.591,470.3466 115.98,126.2675 225.691,296.7286 325.997,508.2267 12.539,-75.7605 18.808,-148.3643 18.808,-214.6548 0,-258.8484 -68.961,-492.4433 -210.017,-703.9414 -141.057,-214.6548 -297.786,-388.2726 -476.457,-527.1669 -175.537,-138.8943 -407.496,-303.042 -692.744,-492.4433 z m -12.538,1098.5274 c 12.538,198.8714 68.961,375.6459 169.268,533.4803 100.306,157.8344 225.69,309.3554 379.284,457.7197 153.595,145.2077 313.459,293.572 476.457,448.2497 162.999,154.6778 278.978,296.7287 347.939,422.9962 6.269,-34.7235 6.269,-85.2305 6.269,-151.521 0,-637.651 -457.649,-1209.0115 -1379.217,-1710.9249 z"
     class="fil1 str1" /></svg>