/* XPM */
static char * tool_object_xpm[] = {
"16 12 39 1",
" 	c None",
".	c #000000",
"+	c #0C0C0C",
"@	c #151515",
"#	c #D1D1D1",
"$	c #121212",
"%	c #161616",
"&	c #DADADA",
"*	c #131313",
"=	c #D6D6D6",
"-	c #0F0F0F",
";	c #050505",
">	c #D3D3D3",
",	c #0A0A0A",
"'	c #070707",
")	c #E5E5E5",
"!	c #292929",
"~	c #B0B0B0",
"{	c #262626",
"]	c #5C5C5C",
"^	c #333333",
"/	c #0E0E0E",
"(	c #111111",
"_	c #3D3D3D",
":	c #F4F4F4",
"<	c #FFFFFF",
"[	c #EBEBEB",
"}	c #D0D0D0",
"|	c #030303",
"1	c #F1F1F1",
"2	c #FDFDFD",
"3	c #C3C3C3",
"4	c #101010",
"5	c #141414",
"6	c #F2F2F2",
"7	c #4E4E4E",
"8	c #686868",
"9	c #0B0B0B",
"0	c #020202",
"    .+.         ",
"    @#$         ",
"    %&*         ",
"    +=-..       ",
"    ;>.,,-..    ",
"   .')!~{]^/    ",
"   (_:<<<[}|    ",
"   '12<<<<<|    ",
"   -~<<<<<34    ",
"   .56<<<<7|    ",
"    /8<<<),.    ",
"    .9|||0-     "};
