<?xml version="1.0" encoding="utf-8"?>
<!DOCTYPE svg PUBLIC "-//W3C//DTD SVG 1.1//EN" "http://www.w3.org/Graphics/SVG/1.1/DTD/svg11.dtd">
<svg version="1.1" id="Layer_1" xmlns="http://www.w3.org/2000/svg" xmlns:xlink="http://www.w3.org/1999/xlink" x="0px" y="0px"
	 width="64px" height="64px" viewBox="0 0 64 64" enable-background="new 0 0 64 64" xml:space="preserve">
<g>
	<g>
		<path fill="#FFFFFF" d="M28.939,34.766c-1.092-1.069-2.842-1.051-3.91,0.04L5.785,54.458V39.901c0-1.527-1.24-2.766-2.766-2.766
			c-1.527,0-2.766,1.238-2.766,2.766v21.333c0,0.005,0.002,0.009,0.002,0.014c0,0.182,0.018,0.364,0.055,0.544
			c0,0.006,0.004,0.012,0.004,0.019c0.037,0.169,0.088,0.336,0.156,0.497c0.027,0.069,0.07,0.13,0.104,0.195
			c0.068,0.13,0.143,0.255,0.232,0.374c0.082,0.112,0.168,0.223,0.266,0.32c0.004,0.004,0.008,0.01,0.012,0.014
			c0.053,0.052,0.115,0.091,0.172,0.138c0.078,0.065,0.152,0.134,0.236,0.19c0.082,0.053,0.168,0.092,0.252,0.136
			c0.074,0.039,0.145,0.083,0.223,0.115c0.098,0.04,0.199,0.065,0.303,0.094c0.07,0.021,0.137,0.048,0.211,0.063
			C2.658,63.98,2.838,64,3.02,64h21.332c1.527,0,2.766-1.238,2.766-2.766c0-1.526-1.238-2.766-2.766-2.766H9.598L28.98,38.676
			C30.049,37.585,30.031,35.834,28.939,34.766z"/>
		<path fill="#FFFFFF" d="M35.059,29.234c1.092,1.07,2.844,1.051,3.912-0.04L58.215,9.543v14.556c0,1.527,1.238,2.766,2.766,2.766
			s2.766-1.238,2.766-2.766V2.766c0-0.005-0.002-0.009-0.002-0.014c0-0.182-0.018-0.363-0.055-0.543c0-0.007-0.004-0.014-0.006-0.02
			c-0.035-0.17-0.086-0.336-0.154-0.498c-0.029-0.068-0.072-0.129-0.105-0.194c-0.066-0.13-0.141-0.255-0.23-0.374
			c-0.082-0.112-0.168-0.223-0.268-0.32c-0.004-0.004-0.006-0.01-0.01-0.014c-0.055-0.053-0.117-0.091-0.172-0.138
			c-0.078-0.065-0.152-0.134-0.238-0.19c-0.08-0.053-0.166-0.092-0.252-0.137c-0.072-0.038-0.145-0.082-0.221-0.114
			c-0.1-0.04-0.201-0.065-0.303-0.095c-0.07-0.02-0.139-0.047-0.211-0.061C61.342,0.02,61.16,0,60.98,0H39.646
			c-1.527,0-2.766,1.238-2.766,2.766s1.238,2.766,2.766,2.766H54.4L35.018,25.324C33.949,26.415,33.969,28.166,35.059,29.234z"/>
	</g>
	<rect fill="none" width="64" height="64"/>
</g>
</svg>
